Inku-Regular.ufo
<glyph name="exclam" format="2">
  <advance width="1106"/>
  <unicode hex="0021"/>
  <outline>
    <contour>
      <point x="442" y="410" type="line"/>
      <point x="539" y="410" type="line"/>
      <point x="609" y="918" type="line" smooth="yes"/>
      <point x="617" y="971"/>
      <point x="627" y="1060"/>
      <point x="627" y="1106" type="qcurve" smooth="yes"/>
      <point x="627" y="1237"/>
      <point x="558" y="1337"/>
      <point x="492" y="1337" type="qcurve" smooth="yes"/>
      <point x="425" y="1337"/>
      <point x="352" y="1227"/>
      <point x="352" y="1108" type="qcurve" smooth="yes"/>
      <point x="352" y="1053"/>
      <point x="368" y="950"/>
      <point x="377" y="879" type="qcurve" smooth="yes"/>
    </contour>
    <contour>
      <point x="494" y="0" type="qcurve" smooth="yes"/>
      <point x="559" y="0"/>
      <point x="649" y="92"/>
      <point x="649" y="158" type="qcurve" smooth="yes"/>
      <point x="649" y="223"/>
      <point x="559" y="313"/>
      <point x="494" y="313" type="qcurve" smooth="yes"/>
      <point x="428" y="313"/>
      <point x="336" y="223"/>
      <point x="336" y="158" type="qcurve" smooth="yes"/>
      <point x="336" y="92"/>
      <point x="428" y="0"/>
    </contour>
  </outline>
</glyph>
<glyph name="quotedbl" format="2">
  <advance width="930"/>
  <unicode hex="0022"/>
  <outline>
    <contour>
      <point x="629" y="766" type="line"/>
      <point x="680" y="766" type="line"/>
      <point x="737" y="1069" type="line" smooth="yes"/>
      <point x="751" y="1146"/>
      <point x="760" y="1240"/>
      <point x="760" y="1262" type="qcurve" smooth="yes"/>
      <point x="760" y="1306"/>
      <point x="705" y="1372"/>
      <point x="655" y="1372" type="qcurve" smooth="yes"/>
      <point x="605" y="1372"/>
      <point x="549" y="1313"/>
      <point x="549" y="1247" type="qcurve" smooth="yes"/>
      <point x="549" y="1201"/>
      <point x="573" y="1069" type="qcurve" smooth="yes"/>
    </contour>
    <contour>
      <point x="250" y="766" type="line"/>
      <point x="293" y="766" type="line"/>
      <point x="350" y="1071" type="line" smooth="yes"/>
      <point x="379" y="1221"/>
      <point x="379" y="1260" type="qcurve" smooth="yes"/>
      <point x="379" y="1310"/>
      <point x="319" y="1372"/>
      <point x="272" y="1372" type="qcurve" smooth="yes"/>
      <point x="228" y="1372"/>
      <point x="170" y="1318"/>
      <point x="170" y="1247" type="qcurve" smooth="yes"/>
      <point x="170" y="1222"/>
      <point x="180" y="1136"/>
      <point x="193" y="1073" type="qcurve" smooth="yes"/>
    </contour>
  </outline>
</glyph>
<glyph name="dollar" format="2">
  <advance width="1106"/>
  <unicode hex="0024"/>
  <outline>
    <contour>
      <point x="387" y="-104" type="line"/>
      <point x="498" y="-104" type="line"/>
      <point x="498" y="0" type="line"/>
      <point x="526" y="0" type="line" smooth="yes"/>
      <point x="540" y="0"/>
      <point x="565" y="1"/>
      <point x="578" y="2" type="qcurve"/>
      <point x="578" y="-104" type="line"/>
      <point x="688" y="-104" type="line"/>
      <point x="688" y="20" type="line"/>
      <point x="826" y="59"/>
      <point x="987" y="247"/>
      <point x="987" y="354" type="qcurve" smooth="yes"/>
      <point x="987" y="480"/>
      <point x="833" y="658"/>
      <point x="688" y="707" type="qcurve"/>
      <point x="688" y="1130" type="line"/>
      <point x="790" y="1075"/>
      <point x="809" y="967" type="qcurve"/>
      <point x="977" y="967" type="line"/>
      <point x="963" y="1092"/>
      <point x="805" y="1249"/>
      <point x="688" y="1280" type="qcurve"/>
      <point x="688" y="1405" type="line"/>
      <point x="578" y="1405" type="line"/>
      <point x="578" y="1296" type="line"/>
      <point x="559" y="1298"/>
      <point x="518" y="1298"/>
      <point x="498" y="1298" type="qcurve"/>
      <point x="498" y="1405" type="line"/>
      <point x="387" y="1405" type="line"/>
      <point x="387" y="1284" type="line"/>
      <point x="255" y="1255"/>
      <point x="88" y="1093"/>
      <point x="88" y="965" type="qcurve" smooth="yes"/>
      <point x="88" y="828"/>
      <point x="257" y="678"/>
      <point x="387" y="637" type="qcurve"/>
      <point x="387" y="188" type="line"/>
      <point x="335" y="224"/>
      <point x="279" y="338"/>
      <point x="279" y="401" type="qcurve"/>
      <point x="90" y="401" type="line"/>
      <point x="90" y="251"/>
      <point x="258" y="54"/>
      <point x="387" y="18" type="qcurve"/>
    </contour>
    <contour>
      <point x="498" y="147" type="qcurve"/>
      <point x="498" y="608" type="line"/>
      <point x="578" y="584" type="line"/>
      <point x="578" y="147" type="line"/>
      <point x="564" y="146"/>
      <point x="512" y="144"/>
    </contour>
    <contour>
      <point x="688" y="186" type="qcurve"/>
      <point x="688" y="530" type="line"/>
      <point x="741" y="496"/>
      <point x="784" y="414"/>
      <point x="784" y="367" type="qcurve" smooth="yes"/>
      <point x="784" y="316"/>
      <point x="739" y="218"/>
    </contour>
    <contour>
      <point x="387" y="811" type="line"/>
      <point x="326" y="845"/>
      <point x="283" y="920"/>
      <point x="283" y="971" type="qcurve" smooth="yes"/>
      <point x="283" y="1026"/>
      <point x="333" y="1117"/>
      <point x="387" y="1143" type="qcurve"/>
    </contour>
    <contour>
      <point x="578" y="739" type="qcurve"/>
      <point x="556" y="746"/>
      <point x="516" y="759"/>
      <point x="498" y="766" type="qcurve"/>
      <point x="498" y="1169" type="line"/>
      <point x="516" y="1169"/>
      <point x="551" y="1167"/>
      <point x="569" y="1165" type="qcurve" smooth="yes"/>
      <point x="570" y="1165"/>
      <point x="570" y="1165" type="qcurve"/>
      <point x="570" y="1165"/>
      <point x="571" y="1165" type="qcurve" smooth="yes"/>
      <point x="574" y="1132"/>
      <point x="577" y="999"/>
      <point x="578" y="829"/>
    </contour>
  </outline>
</glyph>
<glyph name="percent" format="2">
  <advance width="1616"/>
  <unicode hex="0025"/>
  <outline>
    <contour>
      <point x="344" y="-25" type="line"/>
      <point x="547" y="-25" type="line"/>
      <point x="1288" y="1282" type="line"/>
      <point x="1085" y="1282" type="line"/>
    </contour>
    <contour>
      <point x="397" y="596" type="qcurve" smooth="yes"/>
      <point x="526" y="596"/>
      <point x="709" y="761"/>
      <point x="709" y="930" type="qcurve" smooth="yes"/>
      <point x="709" y="1099"/>
      <point x="526" y="1264"/>
      <point x="397" y="1264" type="qcurve" smooth="yes"/>
      <point x="270" y="1264"/>
      <point x="88" y="1099"/>
      <point x="88" y="930" type="qcurve" smooth="yes"/>
      <point x="88" y="761"/>
      <point x="270" y="596"/>
    </contour>
    <contour>
      <point x="397" y="731" type="qcurve" smooth="yes"/>
      <point x="313" y="731"/>
      <point x="256" y="841"/>
      <point x="256" y="930" type="qcurve" smooth="yes"/>
      <point x="256" y="1021"/>
      <point x="318" y="1130"/>
      <point x="397" y="1130" type="qcurve" smooth="yes"/>
      <point x="480" y="1130"/>
      <point x="539" y="1021"/>
      <point x="539" y="930" type="qcurve" smooth="yes"/>
      <point x="539" y="841"/>
      <point x="480" y="731"/>
    </contour>
    <contour>
      <point x="1217" y="-6" type="qcurve" smooth="yes"/>
      <point x="1346" y="-6"/>
      <point x="1528" y="159"/>
      <point x="1528" y="328" type="qcurve" smooth="yes"/>
      <point x="1528" y="497"/>
      <point x="1346" y="662"/>
      <point x="1217" y="662" type="qcurve" smooth="yes"/>
      <point x="1090" y="662"/>
      <point x="907" y="497"/>
      <point x="907" y="328" type="qcurve" smooth="yes"/>
      <point x="907" y="159"/>
      <point x="1090" y="-6"/>
    </contour>
    <contour>
      <point x="1217" y="129" type="qcurve" smooth="yes"/>
      <point x="1132" y="129"/>
      <point x="1075" y="239"/>
      <point x="1075" y="328" type="qcurve" smooth="yes"/>
      <point x="1075" y="419"/>
      <point x="1137" y="528"/>
      <point x="1217" y="528" type="qcurve" smooth="yes"/>
      <point x="1300" y="528"/>
      <point x="1358" y="419"/>
      <point x="1358" y="328" type="qcurve" smooth="yes"/>
      <point x="1358" y="239"/>
      <point x="1300" y="129"/>
    </contour>
  </outline>
</glyph>
<glyph name="ampersand" format="2">
  <advance width="1432"/>
  <unicode hex="0026"/>
  <outline>
    <contour>
      <point x="506" y="-25" type="qcurve" smooth="yes"/>
      <point x="602" y="-25"/>
      <point x="749" y="29"/>
      <point x="869" y="110"/>
      <point x="922" y="152" type="qcurve"/>
      <point x="1014" y="49" type="line"/>
      <point x="1014" y="0" type="line"/>
      <point x="1391" y="0" type="line"/>
      <point x="1391" y="88" type="line"/>
      <point x="1208" y="98" type="line"/>
      <point x="1042" y="289" type="line"/>
      <point x="1087" y="351"/>
      <point x="1188" y="531"/>
      <point x="1217" y="635" type="qcurve"/>
      <point x="1364" y="657" type="line"/>
      <point x="1364" y="743" type="line"/>
      <point x="944" y="743" type="line"/>
      <point x="944" y="657" type="line"/>
      <point x="1055" y="641" type="line" smooth="yes"/>
      <point x="1068" y="640"/>
      <point x="1090" y="614"/>
      <point x="1090" y="604" type="qcurve" smooth="yes"/>
      <point x="1090" y="570"/>
      <point x="1049" y="476"/>
      <point x="995" y="388"/>
      <point x="975" y="362" type="qcurve"/>
      <point x="631" y="733" type="line"/>
      <point x="706" y="767"/>
      <point x="844" y="857"/>
      <point x="932" y="992"/>
      <point x="932" y="1092" type="qcurve" smooth="yes"/>
      <point x="932" y="1181"/>
      <point x="838" y="1321"/>
      <point x="675" y="1401"/>
      <point x="571" y="1401" type="qcurve" smooth="yes"/>
      <point x="461" y="1401"/>
      <point x="284" y="1313"/>
      <point x="182" y="1158"/>
      <point x="182" y="1055" type="qcurve" smooth="yes"/>
      <point x="182" y="983"/>
      <point x="242" y="863"/>
      <point x="320" y="775"/>
      <point x="345" y="750" type="qcurve" smooth="yes"/>
      <point x="354" y="741" type="line"/>
      <point x="233" y="691"/>
      <point x="80" y="516"/>
      <point x="80" y="381" type="qcurve" smooth="yes"/>
      <point x="80" y="264"/>
      <point x="195" y="81"/>
      <point x="389" y="-25"/>
    </contour>
    <contour>
      <point x="584" y="109" type="qcurve" smooth="yes"/>
      <point x="501" y="109"/>
      <point x="366" y="192"/>
      <point x="287" y="336"/>
      <point x="287" y="428" type="qcurve" smooth="yes"/>
      <point x="287" y="520"/>
      <point x="373" y="639"/>
      <point x="434" y="682" type="qcurve"/>
      <point x="856" y="223" type="line"/>
      <point x="804" y="179"/>
      <point x="678" y="109"/>
    </contour>
    <contour>
      <point x="557" y="803" type="qcurve"/>
      <point x="538" y="821" type="line" smooth="yes"/>
      <point x="501" y="856"/>
      <point x="422" y="941"/>
      <point x="367" y="1045"/>
      <point x="367" y="1108" type="qcurve" smooth="yes"/>
      <point x="367" y="1188"/>
      <point x="468" y="1300"/>
      <point x="551" y="1300" type="qcurve" smooth="yes"/>
      <point x="649" y="1300"/>
      <point x="743" y="1167"/>
      <point x="743" y="1079" type="qcurve" smooth="yes"/>
      <point x="743" y="976"/>
      <point x="646" y="847"/>
    </contour>
  </outline>
</glyph>
<glyph name="quotesingle" format="2">
  <advance width="385"/>
  <unicode hex="0027"/>
  <outline>
    <contour>
      <point x="166" y="766" type="line"/>
      <point x="213" y="766" type="line"/>
      <point x="268" y="1071" type="line" smooth="yes"/>
      <point x="297" y="1228"/>
      <point x="297" y="1262" type="qcurve" smooth="yes"/>
      <point x="297" y="1299"/>
      <point x="245" y="1372"/>
      <point x="186" y="1372" type="qcurve" smooth="yes"/>
      <point x="88" y="1372"/>
      <point x="88" y="1247" type="qcurve" smooth="yes"/>
      <point x="88" y="1225"/>
      <point x="98" y="1138"/>
      <point x="111" y="1073" type="qcurve" smooth="yes"/>
    </contour>
  </outline>
</glyph>
<glyph name="parenleft" format="2">
  <advance width="680"/>
  <unicode hex="0028"/>
  <outline>
    <contour>
      <point x="518" y="-41" type="qcurve" smooth="yes"/>
      <point x="557" y="-41"/>
      <point x="557" y="-8" type="qcurve" smooth="yes"/>
      <point x="557" y="18"/>
      <point x="513" y="71"/>
      <point x="449" y="152"/>
      <point x="384" y="290"/>
      <point x="340" y="512"/>
      <point x="340" y="680" type="qcurve" smooth="yes"/>
      <point x="340" y="848"/>
      <point x="384" y="1073"/>
      <point x="449" y="1215"/>
      <point x="513" y="1299"/>
      <point x="557" y="1349"/>
      <point x="557" y="1372" type="qcurve" smooth="yes"/>
      <point x="557" y="1392"/>
      <point x="537" y="1407"/>
      <point x="524" y="1407" type="qcurve" smooth="yes"/>
      <point x="489" y="1407"/>
      <point x="387" y="1327"/>
      <point x="277" y="1186"/>
      <point x="182" y="1002"/>
      <point x="123" y="792"/>
      <point x="123" y="684" type="qcurve" smooth="yes"/>
      <point x="123" y="576"/>
      <point x="184" y="366"/>
      <point x="281" y="181"/>
      <point x="390" y="40"/>
      <point x="487" y="-41"/>
    </contour>
  </outline>
</glyph>
<glyph name="parenright" format="2">
  <advance width="680"/>
  <unicode hex="0029"/>
  <outline>
    <contour>
      <point x="156" y="-41" type="qcurve" smooth="yes"/>
      <point x="191" y="-41"/>
      <point x="293" y="39"/>
      <point x="403" y="180"/>
      <point x="498" y="364"/>
      <point x="557" y="574"/>
      <point x="557" y="682" type="qcurve" smooth="yes"/>
      <point x="557" y="790"/>
      <point x="496" y="1000"/>
      <point x="399" y="1185"/>
      <point x="290" y="1326"/>
      <point x="193" y="1407"/>
      <point x="162" y="1407" type="qcurve" smooth="yes"/>
      <point x="123" y="1407"/>
      <point x="123" y="1374" type="qcurve" smooth="yes"/>
      <point x="123" y="1348"/>
      <point x="167" y="1295"/>
      <point x="232" y="1214"/>
      <point x="296" y="1076"/>
      <point x="340" y="854"/>
      <point x="340" y="686" type="qcurve" smooth="yes"/>
      <point x="340" y="518"/>
      <point x="296" y="293"/>
      <point x="232" y="151"/>
      <point x="167" y="67"/>
      <point x="123" y="17"/>
      <point x="123" y="-6" type="qcurve" smooth="yes"/>
      <point x="123" y="-26"/>
      <point x="143" y="-41"/>
    </contour>
  </outline>
</glyph>
<glyph name="asterisk" format="2">
  <advance width="997"/>
  <unicode hex="002A"/>
  <outline>
    <contour>
      <point x="324" y="707" type="qcurve" smooth="yes"/>
      <point x="348" y="707"/>
      <point x="397" y="725"/>
      <point x="415" y="750" type="qcurve" smooth="yes"/>
      <point x="438" y="782"/>
      <point x="452" y="869"/>
      <point x="454" y="941"/>
      <point x="459" y="948" type="qcurve" smooth="yes"/>
      <point x="470" y="964"/>
      <point x="482" y="964" type="qcurve" smooth="yes"/>
      <point x="494" y="964"/>
      <point x="504" y="948" type="qcurve" smooth="yes"/>
      <point x="509" y="940"/>
      <point x="516" y="871"/>
      <point x="534" y="788"/>
      <point x="555" y="758" type="qcurve" smooth="yes"/>
      <point x="574" y="732"/>
      <point x="623" y="711"/>
      <point x="647" y="711" type="qcurve" smooth="yes"/>
      <point x="699" y="711"/>
      <point x="762" y="780"/>
      <point x="762" y="832" type="qcurve" smooth="yes"/>
      <point x="762" y="866"/>
      <point x="742" y="893" type="qcurve" smooth="yes"/>
      <point x="719" y="924"/>
      <point x="640" y="963"/>
      <point x="573" y="987"/>
      <point x="567" y="995" type="qcurve" smooth="yes"/>
      <point x="558" y="1009"/>
      <point x="558" y="1017" type="qcurve" smooth="yes"/>
      <point x="558" y="1031"/>
      <point x="582" y="1038" type="qcurve" smooth="yes"/>
      <point x="583" y="1038"/>
      <point x="586" y="1039"/>
      <point x="587" y="1039" type="qcurve" smooth="yes"/>
      <point x="604" y="1039"/>
      <point x="685" y="1019"/>
      <point x="728" y="1019" type="qcurve" smooth="yes"/>
      <point x="783" y="1019"/>
      <point x="858" y="1084"/>
      <point x="858" y="1142" type="qcurve" smooth="yes"/>
      <point x="858" y="1186"/>
      <point x="784" y="1253"/>
      <point x="741" y="1253" type="qcurve" smooth="yes"/>
      <point x="726" y="1253"/>
      <point x="709" y="1247" type="qcurve" smooth="yes"/>
      <point x="672" y="1235"/>
      <point x="609" y="1172"/>
      <point x="565" y="1115"/>
      <point x="557" y="1112" type="qcurve" smooth="yes"/>
      <point x="548" y="1109"/>
      <point x="541" y="1109" type="qcurve" smooth="yes"/>
      <point x="520" y="1109"/>
      <point x="520" y="1139" type="qcurve" smooth="yes"/>
      <point x="520" y="1149"/>
      <point x="556" y="1209"/>
      <point x="592" y="1286"/>
      <point x="592" y="1323" type="qcurve" smooth="yes"/>
      <point x="592" y="1364"/>
      <point x="550" y="1416"/>
      <point x="496" y="1440"/>
      <point x="477" y="1440" type="qcurve" smooth="yes"/>
      <point x="459" y="1440"/>
      <point x="403" y="1415"/>
      <point x="360" y="1364"/>
      <point x="360" y="1325" type="qcurve" smooth="yes"/>
      <point x="360" y="1286"/>
      <point x="401" y="1207"/>
      <point x="442" y="1148"/>
      <point x="442" y="1139" type="qcurve" smooth="yes"/>
      <point x="442" y="1110"/>
      <point x="419" y="1110" type="qcurve" smooth="yes"/>
      <point x="411" y="1110"/>
      <point x="406" y="1112" type="qcurve" smooth="yes"/>
      <point x="397" y="1115"/>
      <point x="351" y="1167"/>
      <point x="288" y="1226"/>
      <point x="252" y="1237" type="qcurve" smooth="yes"/>
      <point x="234" y="1243"/>
      <point x="216" y="1243" type="qcurve" smooth="yes"/>
      <point x="172" y="1243"/>
      <point x="113" y="1186"/>
      <point x="106" y="1163" type="qcurve" smooth="yes"/>
      <point x="102" y="1152"/>
      <point x="102" y="1133" type="qcurve" smooth="yes"/>
      <point x="102" y="1075"/>
      <point x="173" y="1011"/>
      <point x="228" y="1011" type="qcurve" smooth="yes"/>
      <point x="276" y="1011"/>
      <point x="366" y="1038"/>
      <point x="379" y="1038" type="qcurve" smooth="yes"/>
      <point x="404" y="1031"/>
      <point x="404" y="1017" type="qcurve" smooth="yes"/>
      <point x="404" y="1007"/>
      <point x="395" y="995" type="qcurve" smooth="yes"/>
      <point x="390" y="986"/>
      <point x="326" y="959"/>
      <point x="251" y="919"/>
      <point x="229" y="889" type="qcurve" smooth="yes"/>
      <point x="207" y="859"/>
      <point x="207" y="823" type="qcurve" smooth="yes"/>
      <point x="207" y="790"/>
      <point x="238" y="736"/>
      <point x="254" y="725" type="qcurve" smooth="yes"/>
      <point x="279" y="707"/>
    </contour>
  </outline>
</glyph>
<glyph name="comma" format="2">
  <advance width="696"/>
  <unicode hex="002C"/>
  <outline>
    <contour>
      <point x="180" y="-342" type="qcurve" smooth="yes"/>
      <point x="212" y="-342"/>
      <point x="315" y="-281"/>
      <point x="419" y="-166"/>
      <point x="489" y="-7"/>
      <point x="489" y="90" type="qcurve" smooth="yes"/>
      <point x="489" y="224"/>
      <point x="392" y="313"/>
      <point x="319" y="313" type="qcurve" smooth="yes"/>
      <point x="247" y="313"/>
      <point x="164" y="221"/>
      <point x="164" y="147" type="qcurve" smooth="yes"/>
      <point x="164" y="74"/>
      <point x="250" y="0"/>
      <point x="313" y="0" type="qcurve"/>
      <point x="313" y="-83"/>
      <point x="255" y="-206"/>
      <point x="193" y="-266" type="qcurve" smooth="yes"/>
      <point x="150" y="-309"/>
      <point x="150" y="-317" type="qcurve" smooth="yes"/>
      <point x="150" y="-342"/>
    </contour>
  </outline>
</glyph>
<glyph name="period" format="2">
  <advance width="653"/>
  <unicode hex="002E"/>
  <outline>
    <contour>
      <point x="279" y="0" type="qcurve" smooth="yes"/>
      <point x="345" y="0"/>
      <point x="436" y="92"/>
      <point x="436" y="158" type="qcurve" smooth="yes"/>
      <point x="436" y="224"/>
      <point x="345" y="315"/>
      <point x="279" y="315" type="qcurve" smooth="yes"/>
      <point x="212" y="315"/>
      <point x="121" y="224"/>
      <point x="121" y="158" type="qcurve" smooth="yes"/>
      <point x="121" y="92"/>
      <point x="212" y="0"/>
    </contour>
  </outline>
</glyph>
<glyph name="zero" format="2">
  <advance width="1106"/>
  <unicode hex="0030"/>
  <outline>
    <contour>
      <point x="532" y="-2" type="qcurve" smooth="yes"/>
      <point x="699" y="-2"/>
      <point x="897" y="174"/>
      <point x="983" y="469"/>
      <point x="983" y="649" type="qcurve" smooth="yes"/>
      <point x="983" y="830"/>
      <point x="895" y="1125"/>
      <point x="697" y="1300"/>
      <point x="532" y="1300" type="qcurve" smooth="yes"/>
      <point x="370" y="1300"/>
      <point x="173" y="1125"/>
      <point x="84" y="830"/>
      <point x="84" y="649" type="qcurve" smooth="yes"/>
      <point x="84" y="469"/>
      <point x="172" y="174"/>
      <point x="369" y="-2"/>
    </contour>
    <contour>
      <point x="532" y="156" type="qcurve" smooth="yes"/>
      <point x="437" y="156"/>
      <point x="339" y="289"/>
      <point x="305" y="513"/>
      <point x="305" y="649" type="qcurve" smooth="yes"/>
      <point x="305" y="786"/>
      <point x="340" y="1009"/>
      <point x="438" y="1141"/>
      <point x="532" y="1141" type="qcurve" smooth="yes"/>
      <point x="629" y="1141"/>
      <point x="726" y="1009"/>
      <point x="760" y="786"/>
      <point x="760" y="649" type="qcurve" smooth="yes"/>
      <point x="760" y="513"/>
      <point x="725" y="289"/>
      <point x="627" y="156"/>
    </contour>
  </outline>
</glyph>
<glyph name="one" format="2">
  <advance width="1106"/>
  <unicode hex="0031"/>
  <outline>
    <contour>
      <point x="526" y="0" type="line"/>
      <point x="735" y="0" type="line"/>
      <point x="735" y="1262" type="line"/>
      <point x="520" y="1262" type="line"/>
      <point x="508" y="1246"/>
      <point x="441" y="1188"/>
      <point x="355" y="1124"/>
      <point x="267" y="1069"/>
      <point x="233" y="1055" type="qcurve"/>
      <point x="233" y="858" type="line"/>
      <point x="273" y="871"/>
      <point x="384" y="919"/>
      <point x="492" y="980"/>
      <point x="526" y="1012" type="qcurve"/>
    </contour>
  </outline>
</glyph>
<glyph name="two" format="2">
  <advance width="1106"/>
  <unicode hex="0032"/>
  <outline>
    <contour>
      <point x="86" y="0" type="line"/>
      <point x="942" y="0" type="line"/>
      <point x="942" y="195" type="line"/>
      <point x="301" y="195" type="line"/>
      <point x="502" y="328"/>
      <point x="801" y="564"/>
      <point x="967" y="806"/>
      <point x="967" y="948" type="qcurve" smooth="yes"/>
      <point x="967" y="1108"/>
      <point x="756" y="1300"/>
      <point x="559" y="1300" type="qcurve" smooth="yes"/>
      <point x="351" y="1300"/>
      <point x="121" y="1105"/>
      <point x="109" y="911" type="qcurve"/>
      <point x="328" y="911" type="line"/>
      <point x="332" y="963"/>
      <point x="378" y="1070"/>
      <point x="474" y="1143"/>
      <point x="553" y="1143" type="qcurve" smooth="yes"/>
      <point x="631" y="1143"/>
      <point x="716" y="1078"/>
      <point x="748" y="986"/>
      <point x="748" y="946" type="qcurve" smooth="yes"/>
      <point x="748" y="882"/>
      <point x="685" y="740"/>
      <point x="535" y="563"/>
      <point x="279" y="332"/>
      <point x="86" y="180" type="qcurve"/>
    </contour>
  </outline>
</glyph>
<glyph name="three" format="2">
  <advance width="1106"/>
  <unicode hex="0033"/>
  <outline>
    <contour>
      <point x="508" y="0" type="qcurve" smooth="yes"/>
      <point x="670" y="0"/>
      <point x="872" y="113"/>
      <point x="967" y="287"/>
      <point x="967" y="379" type="qcurve" smooth="yes"/>
      <point x="967" y="471"/>
      <point x="886" y="594"/>
      <point x="769" y="666"/>
      <point x="715" y="680" type="qcurve"/>
      <point x="770" y="701"/>
      <point x="875" y="759"/>
      <point x="944" y="866"/>
      <point x="944" y="958" type="qcurve" smooth="yes"/>
      <point x="944" y="1071"/>
      <point x="834" y="1223"/>
      <point x="650" y="1300"/>
      <point x="537" y="1300" type="qcurve" smooth="yes"/>
      <point x="424" y="1300"/>
      <point x="241" y="1227"/>
      <point x="129" y="1081"/>
      <point x="123" y="971" type="qcurve"/>
      <point x="342" y="971" type="line"/>
      <point x="354" y="1155"/>
      <point x="547" y="1155" type="qcurve" smooth="yes"/>
      <point x="615" y="1155"/>
      <point x="692" y="1096"/>
      <point x="725" y="1006"/>
      <point x="725" y="958" type="qcurve" smooth="yes"/>
      <point x="725" y="923"/>
      <point x="708" y="847"/>
      <point x="650" y="782"/>
      <point x="526" y="741"/>
      <point x="418" y="741" type="qcurve"/>
      <point x="418" y="602" type="line"/>
      <point x="530" y="602" type="line" smooth="yes"/>
      <point x="596" y="602"/>
      <point x="682" y="548"/>
      <point x="729" y="471"/>
      <point x="748" y="397"/>
      <point x="748" y="377" type="qcurve" smooth="yes"/>
      <point x="748" y="277"/>
      <point x="607" y="158"/>
      <point x="518" y="158" type="qcurve" smooth="yes"/>
      <point x="427" y="158"/>
      <point x="321" y="272"/>
      <point x="317" y="356" type="qcurve"/>
      <point x="98" y="356" type="line"/>
      <point x="98" y="296"/>
      <point x="136" y="171"/>
      <point x="228" y="65"/>
      <point x="387" y="0"/>
    </contour>
  </outline>
</glyph>
<glyph name="five" format="2">
  <advance width="1106"/>
  <unicode hex="0035"/>
  <outline>
    <contour>
      <point x="481" y="0" type="qcurve" smooth="yes"/>
      <point x="645" y="0"/>
      <point x="849" y="130"/>
      <point x="944" y="329"/>
      <point x="944" y="432" type="qcurve" smooth="yes"/>
      <point x="944" y="535"/>
      <point x="857" y="719"/>
      <point x="685" y="836"/>
      <point x="559" y="836" type="qcurve" smooth="yes"/>
      <point x="477" y="836"/>
      <point x="349" y="784"/>
      <point x="287" y="721" type="qcurve"/>
      <point x="301" y="1069" type="line"/>
      <point x="856" y="1069" type="line"/>
      <point x="856" y="1264" type="line"/>
      <point x="147" y="1264" type="line"/>
      <point x="123" y="516" type="line"/>
      <point x="283" y="516" type="line"/>
      <point x="298" y="587"/>
      <point x="396" y="690"/>
      <point x="502" y="690" type="qcurve" smooth="yes"/>
      <point x="622" y="690"/>
      <point x="725" y="551"/>
      <point x="725" y="432" type="qcurve" smooth="yes"/>
      <point x="725" y="312"/>
      <point x="613" y="145"/>
      <point x="492" y="145" type="qcurve" smooth="yes"/>
      <point x="403" y="145"/>
      <point x="301" y="260"/>
      <point x="293" y="330" type="qcurve"/>
      <point x="96" y="330" type="line"/>
      <point x="96" y="296"/>
      <point x="125" y="186"/>
      <point x="206" y="75"/>
      <point x="358" y="0"/>
    </contour>
  </outline>
</glyph>
<glyph name="six" format="2">
  <advance width="1106"/>
  <unicode hex="0036"/>
  <outline>
    <contour>
      <point x="532" y="0" type="qcurve" smooth="yes"/>
      <point x="650" y="0"/>
      <point x="861" y="93"/>
      <point x="993" y="288"/>
      <point x="993" y="440" type="qcurve" smooth="yes"/>
      <point x="993" y="554"/>
      <point x="919" y="711"/>
      <point x="800" y="806"/>
      <point x="662" y="848"/>
      <point x="598" y="848" type="qcurve" smooth="yes"/>
      <point x="488" y="848"/>
      <point x="341" y="775"/>
      <point x="301" y="727" type="qcurve"/>
      <point x="321" y="912"/>
      <point x="389" y="1101"/>
      <point x="492" y="1167"/>
      <point x="565" y="1167" type="qcurve" smooth="yes"/>
      <point x="628" y="1167"/>
      <point x="698" y="1114"/>
      <point x="727" y="1035"/>
      <point x="727" y="997" type="qcurve"/>
      <point x="944" y="997" type="line"/>
      <point x="944" y="1082"/>
      <point x="850" y="1219"/>
      <point x="679" y="1300"/>
      <point x="565" y="1300" type="qcurve" smooth="yes"/>
      <point x="425" y="1300"/>
      <point x="208" y="1169"/>
      <point x="84" y="872"/>
      <point x="84" y="623" type="qcurve" smooth="yes"/>
      <point x="84" y="436"/>
      <point x="157" y="194"/>
      <point x="283" y="56"/>
      <point x="444" y="0"/>
    </contour>
    <contour>
      <point x="541" y="143" type="qcurve" smooth="yes"/>
      <point x="477" y="143"/>
      <point x="369" y="221"/>
      <point x="305" y="351"/>
      <point x="305" y="430" type="qcurve" smooth="yes"/>
      <point x="305" y="509"/>
      <point x="369" y="638"/>
      <point x="477" y="715"/>
      <point x="541" y="715" type="qcurve" smooth="yes"/>
      <point x="607" y="715"/>
      <point x="713" y="638"/>
      <point x="776" y="509"/>
      <point x="776" y="430" type="qcurve" smooth="yes"/>
      <point x="776" y="351"/>
      <point x="713" y="221"/>
      <point x="607" y="143"/>
    </contour>
  </outline>
</glyph>
<glyph name="eight" format="2">
  <advance width="1106"/>
  <unicode hex="0038"/>
  <outline>
    <contour>
      <point x="530" y="0" type="qcurve" smooth="yes"/>
      <point x="658" y="0"/>
      <point x="856" y="94"/>
      <point x="969" y="257"/>
      <point x="969" y="360" type="qcurve" smooth="yes"/>
      <point x="969" y="470"/>
      <point x="835" y="649"/>
      <point x="692" y="684" type="qcurve"/>
      <point x="792" y="706"/>
      <point x="902" y="797"/>
      <point x="946" y="917"/>
      <point x="946" y="979" type="qcurve" smooth="yes"/>
      <point x="946" y="1113"/>
      <point x="732" y="1300"/>
      <point x="526" y="1300" type="qcurve" smooth="yes"/>
      <point x="397" y="1300"/>
      <point x="208" y="1214"/>
      <point x="106" y="1068"/>
      <point x="106" y="979" type="qcurve" smooth="yes"/>
      <point x="106" y="872"/>
      <point x="235" y="713"/>
      <point x="371" y="682" type="qcurve"/>
      <point x="223" y="647"/>
      <point x="84" y="468"/>
      <point x="84" y="360" type="qcurve" smooth="yes"/>
      <point x="84" y="258"/>
      <point x="193" y="95"/>
      <point x="393" y="0"/>
    </contour>
    <contour>
      <point x="526" y="143" type="qcurve" smooth="yes"/>
      <point x="468" y="143"/>
      <point x="361" y="193"/>
      <point x="293" y="296"/>
      <point x="293" y="375" type="qcurve" smooth="yes"/>
      <point x="293" y="485"/>
      <point x="429" y="600"/>
      <point x="530" y="600" type="qcurve" smooth="yes"/>
      <point x="629" y="600"/>
      <point x="764" y="487"/>
      <point x="764" y="377" type="qcurve" smooth="yes"/>
      <point x="764" y="298"/>
      <point x="695" y="194"/>
      <point x="586" y="143"/>
    </contour>
    <contour>
      <point x="528" y="758" type="qcurve" smooth="yes"/>
      <point x="441" y="758"/>
      <point x="317" y="867"/>
      <point x="317" y="961" type="qcurve" smooth="yes"/>
      <point x="317" y="1058"/>
      <point x="441" y="1165"/>
      <point x="528" y="1165" type="qcurve" smooth="yes"/>
      <point x="616" y="1165"/>
      <point x="741" y="1065"/>
      <point x="741" y="961" type="qcurve" smooth="yes"/>
      <point x="741" y="867"/>
      <point x="616" y="758"/>
    </contour>
  </outline>
</glyph>
<glyph name="nine" format="2">
  <advance width="1106"/>
  <unicode hex="0039"/>
  <outline>
    <contour>
      <point x="512" y="0" type="qcurve" smooth="yes"/>
      <point x="654" y="0"/>
      <point x="870" y="131"/>
      <point x="993" y="429"/>
      <point x="993" y="678" type="qcurve" smooth="yes"/>
      <point x="993" y="865"/>
      <point x="921" y="1107"/>
      <point x="795" y="1244"/>
      <point x="634" y="1300"/>
      <point x="545" y="1300" type="qcurve" smooth="yes"/>
      <point x="427" y="1300"/>
      <point x="216" y="1208"/>
      <point x="84" y="1014"/>
      <point x="84" y="860" type="qcurve" smooth="yes"/>
      <point x="84" y="746"/>
      <point x="158" y="589"/>
      <point x="277" y="495"/>
      <point x="415" y="453"/>
      <point x="479" y="453" type="qcurve" smooth="yes"/>
      <point x="590" y="453"/>
      <point x="738" y="526"/>
      <point x="778" y="573" type="qcurve"/>
      <point x="759" y="389"/>
      <point x="689" y="201"/>
      <point x="585" y="135"/>
      <point x="512" y="135" type="qcurve" smooth="yes"/>
      <point x="451" y="135"/>
      <point x="381" y="188"/>
      <point x="352" y="266"/>
      <point x="352" y="303" type="qcurve"/>
      <point x="135" y="303" type="line"/>
      <point x="135" y="219"/>
      <point x="229" y="82"/>
      <point x="399" y="0"/>
    </contour>
    <contour>
      <point x="537" y="586" type="qcurve" smooth="yes"/>
      <point x="473" y="586"/>
      <point x="366" y="664"/>
      <point x="303" y="794"/>
      <point x="303" y="872" type="qcurve" smooth="yes"/>
      <point x="303" y="951"/>
      <point x="366" y="1080"/>
      <point x="473" y="1157"/>
      <point x="537" y="1157" type="qcurve" smooth="yes"/>
      <point x="603" y="1157"/>
      <point x="709" y="1080"/>
      <point x="772" y="951"/>
      <point x="772" y="872" type="qcurve" smooth="yes"/>
      <point x="772" y="794"/>
      <point x="709" y="664"/>
      <point x="603" y="586"/>
    </contour>
  </outline>
</glyph>
<glyph name="colon" format="2">
  <advance width="573"/>
  <unicode hex="003A"/>
  <outline>
    <contour>
      <point x="262" y="737" type="qcurve" smooth="yes"/>
      <point x="319" y="737"/>
      <point x="401" y="818"/>
      <point x="401" y="874" type="qcurve" smooth="yes"/>
      <point x="401" y="931"/>
      <point x="319" y="1012"/>
      <point x="262" y="1012" type="qcurve" smooth="yes"/>
      <point x="205" y="1012"/>
      <point x="125" y="931"/>
      <point x="125" y="874" type="qcurve" smooth="yes"/>
      <point x="125" y="818"/>
      <point x="205" y="737"/>
    </contour>
    <contour>
      <point x="262" y="-25" type="qcurve" smooth="yes"/>
      <point x="319" y="-25"/>
      <point x="401" y="56"/>
      <point x="401" y="113" type="qcurve" smooth="yes"/>
      <point x="401" y="169"/>
      <point x="319" y="250"/>
      <point x="262" y="250" type="qcurve" smooth="yes"/>
      <point x="205" y="250"/>
      <point x="125" y="169"/>
      <point x="125" y="113" type="qcurve" smooth="yes"/>
      <point x="125" y="56"/>
      <point x="205" y="-25"/>
    </contour>
  </outline>
</glyph>
<glyph name="semicolon" format="2">
  <advance width="573"/>
  <unicode hex="003B"/>
  <outline>
    <contour>
      <point x="66" y="-348" type="line"/>
      <point x="159" y="-340"/>
      <point x="322" y="-242"/>
      <point x="422" y="-82"/>
      <point x="422" y="20" type="qcurve" smooth="yes"/>
      <point x="422" y="119"/>
      <point x="340" y="250"/>
      <point x="252" y="250" type="qcurve" smooth="yes"/>
      <point x="197" y="250"/>
      <point x="125" y="162"/>
      <point x="125" y="109" type="qcurve" smooth="yes"/>
      <point x="125" y="67"/>
      <point x="158" y="19"/>
      <point x="162" y="14" type="qcurve"/>
      <point x="291" y="14" type="line"/>
      <point x="291" y="7" type="line" smooth="yes"/>
      <point x="291" y="-129"/>
      <point x="173" y="-250"/>
      <point x="66" y="-274" type="qcurve"/>
    </contour>
    <contour>
      <point x="262" y="737" type="qcurve" smooth="yes"/>
      <point x="319" y="737"/>
      <point x="399" y="818"/>
      <point x="399" y="874" type="qcurve" smooth="yes"/>
      <point x="399" y="931"/>
      <point x="321" y="1012"/>
      <point x="264" y="1012" type="qcurve" smooth="yes"/>
      <point x="207" y="1012"/>
      <point x="125" y="931"/>
      <point x="125" y="874" type="qcurve" smooth="yes"/>
      <point x="125" y="818"/>
      <point x="205" y="737"/>
    </contour>
  </outline>
</glyph>
<glyph name="question" format="2">
  <advance width="1200"/>
  <unicode hex="003F"/>
  <outline>
    <contour>
      <point x="561" y="410" type="line"/>
      <point x="561" y="410"/>
      <point x="553" y="450"/>
      <point x="553" y="461" type="qcurve" smooth="yes"/>
      <point x="553" y="519"/>
      <point x="609" y="621"/>
      <point x="692" y="719"/>
      <point x="775" y="825"/>
      <point x="831" y="948"/>
      <point x="831" y="1024" type="qcurve" smooth="yes"/>
      <point x="831" y="1103"/>
      <point x="752" y="1246"/>
      <point x="598" y="1337"/>
      <point x="487" y="1337" type="qcurve" smooth="yes"/>
      <point x="377" y="1337"/>
      <point x="239" y="1272"/>
      <point x="176" y="1181"/>
      <point x="176" y="1141" type="qcurve" smooth="yes"/>
      <point x="176" y="1118"/>
      <point x="203" y="1058"/>
      <point x="225" y="1038" type="qcurve"/>
      <point x="299" y="1038" type="line"/>
      <point x="310" y="1066"/>
      <point x="364" y="1120"/>
      <point x="424" y="1120" type="qcurve" smooth="yes"/>
      <point x="487" y="1120"/>
      <point x="557" y="1050"/>
      <point x="557" y="997" type="qcurve" smooth="yes"/>
      <point x="557" y="962"/>
      <point x="508" y="872"/>
      <point x="444" y="766"/>
      <point x="395" y="651"/>
      <point x="395" y="590" type="qcurve" smooth="yes"/>
      <point x="395" y="530"/>
      <point x="418" y="449"/>
      <point x="436" y="412" type="qcurve"/>
    </contour>
    <contour>
      <point x="494" y="0" type="qcurve" smooth="yes"/>
      <point x="559" y="0"/>
      <point x="649" y="92"/>
      <point x="649" y="158" type="qcurve" smooth="yes"/>
      <point x="649" y="223"/>
      <point x="559" y="313"/>
      <point x="494" y="313" type="qcurve" smooth="yes"/>
      <point x="428" y="313"/>
      <point x="336" y="223"/>
      <point x="336" y="158" type="qcurve" smooth="yes"/>
      <point x="336" y="92"/>
      <point x="428" y="0"/>
    </contour>
  </outline>
</glyph>
<glyph name="at" format="2">
  <advance width="1917"/>
  <unicode hex="0040"/>
  <outline>
    <contour>
      <point x="965" y="-313" type="qcurve" smooth="yes"/>
      <point x="1143" y="-313"/>
      <point x="1445" y="-206"/>
      <point x="1583" y="-133" type="qcurve"/>
      <point x="1554" y="-59" type="line"/>
      <point x="1461" y="-111"/>
      <point x="1193" y="-211"/>
      <point x="1014" y="-211" type="qcurve" smooth="yes"/>
      <point x="788" y="-211"/>
      <point x="467" y="-16"/>
      <point x="297" y="318"/>
      <point x="297" y="526" type="qcurve" smooth="yes"/>
      <point x="297" y="697"/>
      <point x="414" y="989"/>
      <point x="628" y="1205"/>
      <point x="921" y="1325"/>
      <point x="1096" y="1325" type="qcurve" smooth="yes"/>
      <point x="1204" y="1325"/>
      <point x="1409" y="1257"/>
      <point x="1572" y="1119"/>
      <point x="1669" y="906"/>
      <point x="1669" y="762" type="qcurve" smooth="yes"/>
      <point x="1669" y="640"/>
      <point x="1607" y="444"/>
      <point x="1509" y="305"/>
      <point x="1401" y="231"/>
      <point x="1356" y="231" type="qcurve" smooth="yes"/>
      <point x="1313" y="231"/>
      <point x="1271" y="283"/>
      <point x="1271" y="326" type="qcurve" smooth="yes"/>
      <point x="1271" y="355"/>
      <point x="1280" y="391" type="qcurve" smooth="yes"/>
      <point x="1280" y="391"/>
      <point x="1299" y="475"/>
      <point x="1329" y="607"/>
      <point x="1363" y="759"/>
      <point x="1394" y="897"/>
      <point x="1417" y="991"/>
      <point x="1419" y="999" type="qcurve"/>
      <point x="1305" y="999" type="line"/>
      <point x="1268" y="952" type="line"/>
      <point x="1223" y="977"/>
      <point x="1111" y="1008"/>
      <point x="1067" y="1008" type="qcurve" smooth="yes"/>
      <point x="970" y="1008"/>
      <point x="788" y="923"/>
      <point x="643" y="771"/>
      <point x="557" y="568"/>
      <point x="557" y="451" type="qcurve" smooth="yes"/>
      <point x="557" y="297"/>
      <point x="701" y="117"/>
      <point x="813" y="117" type="qcurve" smooth="yes"/>
      <point x="885" y="117"/>
      <point x="1031" y="205"/>
      <point x="1110" y="285" type="qcurve"/>
      <point x="1110" y="200"/>
      <point x="1185" y="115"/>
      <point x="1270" y="115" type="qcurve" smooth="yes"/>
      <point x="1347" y="115"/>
      <point x="1520" y="201"/>
      <point x="1673" y="366"/>
      <point x="1769" y="608"/>
      <point x="1769" y="764" type="qcurve" smooth="yes"/>
      <point x="1769" y="975"/>
      <point x="1588" y="1265"/>
      <point x="1272" y="1415"/>
      <point x="1069" y="1415" type="qcurve" smooth="yes"/>
      <point x="898" y="1415"/>
      <point x="570" y="1297"/>
      <point x="306" y="1063"/>
      <point x="150" y="717"/>
      <point x="150" y="489" type="qcurve" smooth="yes"/>
      <point x="150" y="303"/>
      <point x="280" y="6"/>
      <point x="506" y="-203"/>
      <point x="800" y="-313"/>
    </contour>
    <contour>
      <point x="905" y="248" type="qcurve" smooth="yes"/>
      <point x="829" y="248"/>
      <point x="745" y="359"/>
      <point x="745" y="469" type="qcurve" smooth="yes"/>
      <point x="745" y="594"/>
      <point x="825" y="800"/>
      <point x="974" y="922"/>
      <point x="1075" y="922" type="qcurve" smooth="yes"/>
      <point x="1110" y="922"/>
      <point x="1165" y="883"/>
      <point x="1197" y="831"/>
      <point x="1197" y="812" type="qcurve" smooth="yes"/>
      <point x="1197" y="807"/>
      <point x="1196" y="805" type="qcurve" smooth="yes"/>
      <point x="1114" y="381" type="line"/>
      <point x="1082" y="341"/>
      <point x="974" y="248"/>
    </contour>
  </outline>
</glyph>
<glyph name="B" format="2">
  <advance width="1239"/>
  <unicode hex="0042"/>
  <anchor x="620" y="0" name="bottom"/>
  <anchor x="620" y="1374" name="top"/>
  <outline>
    <contour>
      <point x="1159" y="406" type="qcurve" smooth="yes"/>
      <point x="1159" y="282"/>
      <point x="1059" y="123"/>
      <point x="900" y="34"/>
      <point x="720" y="0"/>
      <point x="639" y="0" type="qcurve" smooth="yes"/>
      <point x="66" y="0" type="line"/>
      <point x="66" y="88" type="line"/>
      <point x="174" y="96" type="line" smooth="yes"/>
      <point x="196" y="98"/>
      <point x="217" y="126"/>
      <point x="217" y="141" type="qcurve" smooth="yes"/>
      <point x="217" y="1233" type="line" smooth="yes"/>
      <point x="217" y="1248"/>
      <point x="196" y="1277"/>
      <point x="174" y="1278" type="qcurve" smooth="yes"/>
      <point x="66" y="1286" type="line"/>
      <point x="66" y="1374" type="line"/>
      <point x="614" y="1374" type="line" smooth="yes"/>
      <point x="859" y="1374"/>
      <point x="1075" y="1198"/>
      <point x="1075" y="1044" type="qcurve" smooth="yes"/>
      <point x="1075" y="942"/>
      <point x="978" y="814"/>
      <point x="841" y="745"/>
      <point x="780" y="729" type="qcurve"/>
      <point x="872" y="729"/>
      <point x="1046" y="668"/>
      <point x="1159" y="527"/>
    </contour>
    <contour>
      <point x="936" y="389" type="qcurve" smooth="yes"/>
      <point x="936" y="529"/>
      <point x="769" y="659"/>
      <point x="606" y="659" type="qcurve" smooth="yes"/>
      <point x="573" y="659"/>
      <point x="491" y="653"/>
      <point x="428" y="647"/>
      <point x="422" y="647" type="qcurve"/>
      <point x="422" y="106" type="line"/>
      <point x="422" y="106"/>
      <point x="469" y="103"/>
      <point x="530" y="100"/>
      <point x="549" y="100" type="qcurve" smooth="yes"/>
      <point x="764" y="100"/>
      <point x="936" y="244"/>
    </contour>
    <contour>
      <point x="854" y="1030" type="qcurve" smooth="yes"/>
      <point x="854" y="1150"/>
      <point x="697" y="1280"/>
      <point x="539" y="1280" type="qcurve" smooth="yes"/>
      <point x="507" y="1280"/>
      <point x="433" y="1274"/>
      <point x="422" y="1274" type="qcurve"/>
      <point x="422" y="756" type="line"/>
      <point x="422" y="756"/>
      <point x="479" y="754"/>
      <point x="496" y="754" type="qcurve" smooth="yes"/>
      <point x="696" y="754"/>
      <point x="854" y="898"/>
    </contour>
  </outline>
</glyph>
<glyph name="C" format="2">
  <advance width="1284"/>
  <unicode hex="0043"/>
  <anchor x="642" y="0" name="bottom"/>
  <anchor x="642" y="1374" name="top"/>
  <outline>
    <contour>
      <point x="1204" y="379" type="line"/>
      <point x="1204" y="47" type="line"/>
      <point x="1199" y="45"/>
      <point x="1082" y="5"/>
      <point x="900" y="-33"/>
      <point x="795" y="-33" type="qcurve" smooth="yes"/>
      <point x="623" y="-33"/>
      <point x="357" y="86"/>
      <point x="174" y="290"/>
      <point x="80" y="549"/>
      <point x="80" y="690" type="qcurve" smooth="yes"/>
      <point x="80" y="902"/>
      <point x="260" y="1225"/>
      <point x="583" y="1407"/>
      <point x="797" y="1407" type="qcurve" smooth="yes"/>
      <point x="897" y="1407"/>
      <point x="1080" y="1365"/>
      <point x="1204" y="1327" type="qcurve"/>
      <point x="1204" y="1006" type="line"/>
      <point x="1081" y="1006" type="line"/>
      <point x="1051" y="1192" type="line" smooth="yes"/>
      <point x="1047" y="1209"/>
      <point x="1025" y="1235"/>
      <point x="1016" y="1239" type="qcurve" smooth="yes"/>
      <point x="1008" y="1243" type="line" smooth="yes"/>
      <point x="982" y="1255"/>
      <point x="878" y="1292"/>
      <point x="807" y="1292" type="qcurve" smooth="yes"/>
      <point x="668" y="1292"/>
      <point x="445" y="1155"/>
      <point x="315" y="887"/>
      <point x="315" y="690" type="qcurve" smooth="yes"/>
      <point x="315" y="404"/>
      <point x="591" y="80"/>
      <point x="834" y="80" type="qcurve" smooth="yes"/>
      <point x="906" y="80"/>
      <point x="996" y="114"/>
      <point x="999" y="115" type="qcurve" smooth="yes"/>
      <point x="1031" y="127"/>
      <point x="1038" y="156" type="qcurve" smooth="yes"/>
      <point x="1085" y="379" type="line"/>
    </contour>
  </outline>
</glyph>
<glyph name="D" format="2">
  <advance width="1425"/>
  <unicode hex="0044"/>
  <anchor x="713" y="0" name="bottom"/>
  <anchor x="713" y="687" name="center"/>
  <anchor x="713" y="1374" name="top"/>
  <outline>
    <contour>
      <point x="1346" y="690" type="qcurve" smooth="yes"/>
      <point x="1346" y="556"/>
      <point x="1268" y="308"/>
      <point x="1099" y="113"/>
      <point x="828" y="0"/>
      <point x="635" y="0" type="qcurve" smooth="yes"/>
      <point x="66" y="0" type="line"/>
      <point x="66" y="88" type="line"/>
      <point x="174" y="96" type="line" smooth="yes"/>
      <point x="196" y="98"/>
      <point x="219" y="126"/>
      <point x="219" y="141" type="qcurve" smooth="yes"/>
      <point x="219" y="1233" type="line" smooth="yes"/>
      <point x="219" y="1248"/>
      <point x="196" y="1277"/>
      <point x="174" y="1278" type="qcurve" smooth="yes"/>
      <point x="66" y="1286" type="line"/>
      <point x="66" y="1374" type="line"/>
      <point x="594" y="1374" type="line" smooth="yes"/>
      <point x="809" y="1374"/>
      <point x="1149" y="1229"/>
      <point x="1346" y="927"/>
    </contour>
    <contour>
      <point x="1114" y="686" type="qcurve" smooth="yes"/>
      <point x="1114" y="901"/>
      <point x="983" y="1160"/>
      <point x="744" y="1276"/>
      <point x="582" y="1276" type="qcurve" smooth="yes"/>
      <point x="426" y="1276" type="line"/>
      <point x="426" y="98" type="line"/>
      <point x="592" y="100" type="line" smooth="yes"/>
      <point x="750" y="102"/>
      <point x="984" y="219"/>
      <point x="1114" y="475"/>
    </contour>
  </outline>
</glyph>
<glyph name="E" format="2">
  <advance width="1194"/>
  <unicode hex="0045"/>
  <anchor x="597" y="0" name="bottom"/>
  <anchor x="1128" y="0" name="ogonek"/>
  <anchor x="597" y="1374" name="top"/>
  <anchor x="20" y="1374" name="topleft"/>
  <outline>
    <contour>
      <point x="1128" y="0" type="line"/>
      <point x="66" y="0" type="line"/>
      <point x="66" y="88" type="line"/>
      <point x="172" y="96" type="line" smooth="yes"/>
      <point x="194" y="98"/>
      <point x="217" y="126"/>
      <point x="217" y="141" type="qcurve" smooth="yes"/>
      <point x="217" y="1233" type="line" smooth="yes"/>
      <point x="217" y="1248"/>
      <point x="194" y="1277"/>
      <point x="172" y="1278" type="qcurve" smooth="yes"/>
      <point x="66" y="1286" type="line"/>
      <point x="66" y="1374" type="line"/>
      <point x="1061" y="1374" type="line"/>
      <point x="1061" y="1069" type="line"/>
      <point x="938" y="1069" type="line"/>
      <point x="907" y="1237" type="line" smooth="yes"/>
      <point x="906" y="1252"/>
      <point x="884" y="1276"/>
      <point x="870" y="1276" type="qcurve" smooth="yes"/>
      <point x="426" y="1276" type="line"/>
      <point x="426" y="766" type="line"/>
      <point x="733" y="766" type="line" smooth="yes"/>
      <point x="747" y="766"/>
      <point x="770" y="790"/>
      <point x="770" y="801" type="qcurve" smooth="yes"/>
      <point x="791" y="942" type="line"/>
      <point x="895" y="942" type="line"/>
      <point x="895" y="485" type="line"/>
      <point x="791" y="485" type="line"/>
      <point x="770" y="627" type="line" smooth="yes"/>
      <point x="770" y="638"/>
      <point x="746" y="664"/>
      <point x="733" y="664" type="qcurve" smooth="yes"/>
      <point x="426" y="664" type="line"/>
      <point x="426" y="100" type="line"/>
      <point x="944" y="100" type="line" smooth="yes"/>
      <point x="957" y="100"/>
      <point x="980" y="129"/>
      <point x="981" y="139" type="qcurve" smooth="yes"/>
      <point x="1018" y="342" type="line"/>
      <point x="1128" y="342" type="line"/>
    </contour>
  </outline>
</glyph>
<glyph name="F" format="2">
  <advance width="1108"/>
  <unicode hex="0046"/>
  <anchor x="554" y="0" name="bottom"/>
  <anchor x="554" y="1374" name="top"/>
  <outline>
    <contour>
      <point x="1047" y="1049" type="line"/>
      <point x="926" y="1049" type="line"/>
      <point x="897" y="1237" type="line" smooth="yes"/>
      <point x="894" y="1252"/>
      <point x="876" y="1274"/>
      <point x="862" y="1274" type="qcurve" smooth="yes"/>
      <point x="426" y="1274" type="line"/>
      <point x="426" y="741" type="line"/>
      <point x="739" y="741" type="line" smooth="yes"/>
      <point x="753" y="741"/>
      <point x="775" y="768"/>
      <point x="776" y="778" type="qcurve" smooth="yes"/>
      <point x="795" y="922" type="line"/>
      <point x="897" y="922" type="line"/>
      <point x="897" y="461" type="line"/>
      <point x="795" y="461" type="line"/>
      <point x="776" y="604" type="line" smooth="yes"/>
      <point x="775" y="615"/>
      <point x="752" y="641"/>
      <point x="739" y="641" type="qcurve" smooth="yes"/>
      <point x="426" y="641" type="line"/>
      <point x="426" y="141" type="line" smooth="yes"/>
      <point x="426" y="126"/>
      <point x="447" y="98"/>
      <point x="469" y="96" type="qcurve" smooth="yes"/>
      <point x="606" y="88" type="line"/>
      <point x="606" y="0" type="line"/>
      <point x="68" y="0" type="line"/>
      <point x="68" y="88" type="line"/>
      <point x="176" y="96" type="line" smooth="yes"/>
      <point x="198" y="98"/>
      <point x="219" y="126"/>
      <point x="219" y="141" type="qcurve" smooth="yes"/>
      <point x="219" y="1233" type="line" smooth="yes"/>
      <point x="219" y="1248"/>
      <point x="198" y="1277"/>
      <point x="176" y="1278" type="qcurve" smooth="yes"/>
      <point x="51" y="1286" type="line"/>
      <point x="51" y="1374" type="line"/>
      <point x="1047" y="1374" type="line"/>
    </contour>
  </outline>
</glyph>
<glyph name="G" format="2">
  <advance width="1423"/>
  <unicode hex="0047"/>
  <anchor x="712" y="0" name="bottom"/>
  <anchor x="712" y="1374" name="top"/>
  <outline>
    <contour>
      <point x="1372" y="575" type="line"/>
      <point x="1268" y="565" type="line" smooth="yes"/>
      <point x="1246" y="564"/>
      <point x="1225" y="538"/>
      <point x="1225" y="522" type="qcurve" smooth="yes"/>
      <point x="1225" y="49" type="line"/>
      <point x="1225" y="49"/>
      <point x="1102" y="8"/>
      <point x="906" y="-33"/>
      <point x="795" y="-33" type="qcurve" smooth="yes"/>
      <point x="624" y="-33"/>
      <point x="358" y="85"/>
      <point x="175" y="288"/>
      <point x="80" y="548"/>
      <point x="80" y="690" type="qcurve" smooth="yes"/>
      <point x="80" y="905"/>
      <point x="259" y="1228"/>
      <point x="592" y="1407"/>
      <point x="821" y="1407" type="qcurve" smooth="yes"/>
      <point x="926" y="1407"/>
      <point x="1104" y="1369"/>
      <point x="1189" y="1346" type="qcurve" smooth="yes"/>
      <point x="1223" y="1337" type="line"/>
      <point x="1223" y="1006" type="line"/>
      <point x="1100" y="1006" type="line"/>
      <point x="1067" y="1190" type="line" smooth="yes"/>
      <point x="1064" y="1208"/>
      <point x="1040" y="1233"/>
      <point x="1026" y="1239" type="qcurve" smooth="yes"/>
      <point x="1022" y="1240"/>
      <point x="1014" y="1244" type="qcurve" smooth="yes"/>
      <point x="983" y="1258"/>
      <point x="878" y="1292"/>
      <point x="813" y="1292" type="qcurve" smooth="yes"/>
      <point x="666" y="1292"/>
      <point x="440" y="1155"/>
      <point x="313" y="891"/>
      <point x="313" y="700" type="qcurve" smooth="yes"/>
      <point x="313" y="405"/>
      <point x="598" y="82"/>
      <point x="838" y="82" type="qcurve" smooth="yes"/>
      <point x="906" y="82"/>
      <point x="1011" y="113"/>
      <point x="1018" y="113" type="qcurve"/>
      <point x="1018" y="522" type="line" smooth="yes"/>
      <point x="1018" y="538"/>
      <point x="997" y="564"/>
      <point x="975" y="565" type="qcurve" smooth="yes"/>
      <point x="838" y="575" type="line"/>
      <point x="838" y="664" type="line"/>
      <point x="1372" y="664" type="line"/>
    </contour>
  </outline>
</glyph>
<glyph name="H" format="2">
  <advance width="1522"/>
  <unicode hex="0048"/>
  <anchor x="761" y="0" name="bottom"/>
  <anchor x="761" y="687" name="center"/>
  <anchor x="761" y="1374" name="top"/>
  <anchor x="20" y="1374" name="topleft"/>
  <outline>
    <contour>
      <point x="1456" y="0" type="line"/>
      <point x="938" y="0" type="line"/>
      <point x="938" y="88" type="line"/>
      <point x="1055" y="96" type="line" smooth="yes"/>
      <point x="1076" y="98"/>
      <point x="1098" y="126"/>
      <point x="1098" y="141" type="qcurve" smooth="yes"/>
      <point x="1098" y="670" type="line"/>
      <point x="424" y="670" type="line"/>
      <point x="424" y="141" type="line" smooth="yes"/>
      <point x="424" y="126"/>
      <point x="445" y="98"/>
      <point x="467" y="96" type="qcurve" smooth="yes"/>
      <point x="584" y="88" type="line"/>
      <point x="584" y="0" type="line"/>
      <point x="66" y="0" type="line"/>
      <point x="66" y="88" type="line"/>
      <point x="172" y="96" type="line" smooth="yes"/>
      <point x="194" y="98"/>
      <point x="217" y="126"/>
      <point x="217" y="141" type="qcurve" smooth="yes"/>
      <point x="217" y="1233" type="line" smooth="yes"/>
      <point x="217" y="1248"/>
      <point x="194" y="1275"/>
      <point x="172" y="1276" type="qcurve" smooth="yes"/>
      <point x="66" y="1284" type="line"/>
      <point x="66" y="1374" type="line"/>
      <point x="584" y="1374" type="line"/>
      <point x="584" y="1284" type="line"/>
      <point x="467" y="1276" type="line" smooth="yes"/>
      <point x="445" y="1275"/>
      <point x="424" y="1248"/>
      <point x="424" y="1233" type="qcurve" smooth="yes"/>
      <point x="424" y="772" type="line"/>
      <point x="1098" y="772" type="line"/>
      <point x="1098" y="1233" type="line" smooth="yes"/>
      <point x="1098" y="1248"/>
      <point x="1076" y="1275"/>
      <point x="1055" y="1276" type="qcurve" smooth="yes"/>
      <point x="938" y="1284" type="line"/>
      <point x="938" y="1374" type="line"/>
      <point x="1456" y="1374" type="line"/>
      <point x="1456" y="1284" type="line"/>
      <point x="1350" y="1276" type="line" smooth="yes"/>
      <point x="1328" y="1275"/>
      <point x="1305" y="1248"/>
      <point x="1305" y="1233" type="qcurve" smooth="yes"/>
      <point x="1305" y="141" type="line" smooth="yes"/>
      <point x="1305" y="126"/>
      <point x="1328" y="98"/>
      <point x="1350" y="96" type="qcurve" smooth="yes"/>
      <point x="1456" y="88" type="line"/>
    </contour>
  </outline>
</glyph>
<glyph name="I" format="2">
  <advance width="676"/>
  <unicode hex="0049"/>
  <anchor x="338" y="0" name="bottom"/>
  <anchor x="608" y="0" name="ogonek"/>
  <anchor x="338" y="1374" name="top"/>
  <anchor x="20" y="1374" name="topleft"/>
  <outline>
    <contour>
      <point x="608" y="0" type="line"/>
      <point x="68" y="0" type="line"/>
      <point x="68" y="88" type="line"/>
      <point x="190" y="96" type="line" smooth="yes"/>
      <point x="212" y="98"/>
      <point x="233" y="126"/>
      <point x="233" y="141" type="qcurve" smooth="yes"/>
      <point x="233" y="1233" type="line" smooth="yes"/>
      <point x="233" y="1248"/>
      <point x="212" y="1275"/>
      <point x="190" y="1276" type="qcurve" smooth="yes"/>
      <point x="68" y="1284" type="line"/>
      <point x="68" y="1374" type="line"/>
      <point x="608" y="1374" type="line"/>
      <point x="608" y="1284" type="line"/>
      <point x="483" y="1276" type="line" smooth="yes"/>
      <point x="462" y="1275"/>
      <point x="440" y="1248"/>
      <point x="440" y="1233" type="qcurve" smooth="yes"/>
      <point x="440" y="141" type="line" smooth="yes"/>
      <point x="440" y="126"/>
      <point x="462" y="98"/>
      <point x="483" y="96" type="qcurve" smooth="yes"/>
      <point x="608" y="88" type="line"/>
    </contour>
  </outline>
</glyph>
<glyph name="J" format="2">
  <advance width="993"/>
  <unicode hex="004A"/>
  <anchor x="497" y="0" name="bottom"/>
  <anchor x="497" y="1374" name="top"/>
  <outline>
    <contour>
      <point x="940" y="1286" type="line"/>
      <point x="821" y="1278" type="line" smooth="yes"/>
      <point x="800" y="1277"/>
      <point x="778" y="1248"/>
      <point x="778" y="1233" type="qcurve" smooth="yes"/>
      <point x="778" y="518" type="line" smooth="yes"/>
      <point x="778" y="348"/>
      <point x="691" y="101"/>
      <point x="494" y="-33"/>
      <point x="328" y="-33" type="qcurve" smooth="yes"/>
      <point x="262" y="-33"/>
      <point x="139" y="-6"/>
      <point x="57" y="23"/>
      <point x="51" y="25" type="qcurve"/>
      <point x="51" y="375" type="line"/>
      <point x="174" y="375" type="line"/>
      <point x="219" y="125" type="line" smooth="yes"/>
      <point x="225" y="94"/>
      <point x="282" y="72"/>
      <point x="313" y="72" type="qcurve" smooth="yes"/>
      <point x="453" y="72"/>
      <point x="571" y="289"/>
      <point x="571" y="504" type="qcurve" smooth="yes"/>
      <point x="571" y="1233" type="line" smooth="yes"/>
      <point x="571" y="1248"/>
      <point x="550" y="1277"/>
      <point x="528" y="1278" type="qcurve" smooth="yes"/>
      <point x="399" y="1286" type="line"/>
      <point x="399" y="1374" type="line"/>
      <point x="940" y="1374" type="line"/>
    </contour>
  </outline>
</glyph>
<glyph name="K" format="2">
  <advance width="1307"/>
  <unicode hex="004B"/>
  <anchor x="654" y="0" name="bottom"/>
  <anchor x="654" y="1374" name="top"/>
  <outline>
    <contour>
      <point x="1307" y="0" type="line"/>
      <point x="948" y="0" type="line"/>
      <point x="948" y="63" type="line"/>
      <point x="567" y="610" type="line"/>
      <point x="424" y="610" type="line"/>
      <point x="424" y="141" type="line" smooth="yes"/>
      <point x="424" y="126"/>
      <point x="447" y="98"/>
      <point x="469" y="96" type="qcurve" smooth="yes"/>
      <point x="586" y="88" type="line"/>
      <point x="586" y="0" type="line"/>
      <point x="66" y="0" type="line"/>
      <point x="66" y="88" type="line"/>
      <point x="174" y="96" type="line" smooth="yes"/>
      <point x="196" y="98"/>
      <point x="217" y="126"/>
      <point x="217" y="141" type="qcurve" smooth="yes"/>
      <point x="217" y="1233" type="line" smooth="yes"/>
      <point x="217" y="1248"/>
      <point x="196" y="1277"/>
      <point x="174" y="1278" type="qcurve" smooth="yes"/>
      <point x="66" y="1286" type="line"/>
      <point x="66" y="1374" type="line"/>
      <point x="586" y="1374" type="line"/>
      <point x="586" y="1286" type="line"/>
      <point x="469" y="1278" type="line" smooth="yes"/>
      <point x="447" y="1277"/>
      <point x="424" y="1248"/>
      <point x="424" y="1233" type="qcurve" smooth="yes"/>
      <point x="424" y="696" type="line"/>
      <point x="498" y="696" type="line"/>
      <point x="944" y="1241" type="line" smooth="yes"/>
      <point x="948" y="1245"/>
      <point x="948" y="1252" type="qcurve" smooth="yes"/>
      <point x="948" y="1274"/>
      <point x="928" y="1276" type="qcurve" smooth="yes"/>
      <point x="823" y="1286" type="line"/>
      <point x="823" y="1374" type="line"/>
      <point x="1257" y="1374" type="line"/>
      <point x="1257" y="1286" type="line"/>
      <point x="1257" y="1286"/>
      <point x="1192" y="1279"/>
      <point x="1124" y="1271"/>
      <point x="1118" y="1270" type="qcurve" smooth="yes"/>
      <point x="700" y="770" type="line"/>
      <point x="1159" y="98" type="line"/>
      <point x="1307" y="88" type="line"/>
    </contour>
  </outline>
</glyph>
<glyph name="L" format="2">
  <advance width="1087"/>
  <unicode hex="004C"/>
  <anchor x="544" y="0" name="bottom"/>
  <anchor x="544" y="687" name="center"/>
  <anchor x="544" y="0" name="dot"/>
  <anchor x="544" y="1374" name="top"/>
  <anchor x="424" y="987" name="topright"/>
  <outline>
    <contour>
      <point x="1051" y="0" type="line"/>
      <point x="55" y="0" type="line"/>
      <point x="55" y="88" type="line"/>
      <point x="174" y="96" type="line" smooth="yes"/>
      <point x="196" y="98"/>
      <point x="217" y="126"/>
      <point x="217" y="141" type="qcurve" smooth="yes"/>
      <point x="217" y="1233" type="line" smooth="yes"/>
      <point x="217" y="1248"/>
      <point x="196" y="1277"/>
      <point x="174" y="1278" type="qcurve" smooth="yes"/>
      <point x="55" y="1286" type="line"/>
      <point x="55" y="1374" type="line"/>
      <point x="578" y="1374" type="line"/>
      <point x="578" y="1286" type="line"/>
      <point x="469" y="1278" type="line" smooth="yes"/>
      <point x="447" y="1277"/>
      <point x="424" y="1248"/>
      <point x="424" y="1233" type="qcurve" smooth="yes"/>
      <point x="424" y="100" type="line"/>
      <point x="854" y="100" type="line" smooth="yes"/>
      <point x="868" y="100"/>
      <point x="898" y="122"/>
      <point x="899" y="135" type="qcurve" smooth="yes"/>
      <point x="932" y="381" type="line"/>
      <point x="1051" y="381" type="line"/>
    </contour>
  </outline>
</glyph>
<glyph name="N" format="2">
  <advance width="1477"/>
  <unicode hex="004E"/>
  <anchor x="739" y="0" name="bottom"/>
  <anchor x="739" y="1374" name="top"/>
  <outline>
    <contour>
      <point x="1417" y="1286" type="line"/>
      <point x="1303" y="1278" type="line" smooth="yes"/>
      <point x="1281" y="1277"/>
      <point x="1260" y="1248"/>
      <point x="1260" y="1233" type="qcurve" smooth="yes"/>
      <point x="1260" y="0" type="line"/>
      <point x="1100" y="0" type="line"/>
      <point x="338" y="1147" type="line"/>
      <point x="338" y="141" type="line" smooth="yes"/>
      <point x="338" y="126"/>
      <point x="359" y="98"/>
      <point x="381" y="96" type="qcurve" smooth="yes"/>
      <point x="498" y="88" type="line"/>
      <point x="498" y="0" type="line"/>
      <point x="55" y="0" type="line"/>
      <point x="55" y="88" type="line"/>
      <point x="172" y="96" type="line" smooth="yes"/>
      <point x="194" y="98"/>
      <point x="217" y="126"/>
      <point x="217" y="141" type="qcurve" smooth="yes"/>
      <point x="217" y="1233" type="line" smooth="yes"/>
      <point x="217" y="1248"/>
      <point x="194" y="1277"/>
      <point x="172" y="1278" type="qcurve" smooth="yes"/>
      <point x="51" y="1286" type="line"/>
      <point x="51" y="1374" type="line"/>
      <point x="457" y="1374" type="line"/>
      <point x="457" y="1323" type="line"/>
      <point x="1139" y="293" type="line"/>
      <point x="1139" y="1233" type="line" smooth="yes"/>
      <point x="1139" y="1248"/>
      <point x="1117" y="1277"/>
      <point x="1096" y="1278" type="qcurve" smooth="yes"/>
      <point x="979" y="1286" type="line"/>
      <point x="979" y="1374" type="line"/>
      <point x="1417" y="1374" type="line"/>
    </contour>
  </outline>
</glyph>
<glyph name="P" format="2">
  <advance width="1186"/>
  <unicode hex="0050"/>
  <anchor x="593" y="0" name="bottom"/>
  <anchor x="593" y="1374" name="top"/>
  <outline>
    <contour>
      <point x="1106" y="961" type="qcurve" smooth="yes"/>
      <point x="1106" y="811"/>
      <point x="964" y="613"/>
      <point x="724" y="514"/>
      <point x="577" y="514" type="qcurve" smooth="yes"/>
      <point x="571" y="514" type="line" smooth="yes"/>
      <point x="531" y="514"/>
      <point x="434" y="521"/>
      <point x="426" y="522" type="qcurve"/>
      <point x="426" y="141" type="line" smooth="yes"/>
      <point x="426" y="126"/>
      <point x="447" y="98"/>
      <point x="469" y="96" type="qcurve" smooth="yes"/>
      <point x="604" y="88" type="line"/>
      <point x="604" y="0" type="line"/>
      <point x="66" y="0" type="line"/>
      <point x="66" y="88" type="line"/>
      <point x="174" y="96" type="line" smooth="yes"/>
      <point x="196" y="98"/>
      <point x="219" y="126"/>
      <point x="219" y="141" type="qcurve" smooth="yes"/>
      <point x="219" y="1233" type="line" smooth="yes"/>
      <point x="219" y="1248"/>
      <point x="196" y="1277"/>
      <point x="174" y="1278" type="qcurve" smooth="yes"/>
      <point x="51" y="1286" type="line"/>
      <point x="51" y="1374" type="line"/>
      <point x="541" y="1374" type="line" smooth="yes"/>
      <point x="831" y="1374"/>
      <point x="1106" y="1188"/>
    </contour>
    <contour>
      <point x="893" y="958" type="qcurve" smooth="yes"/>
      <point x="893" y="1107"/>
      <point x="726" y="1274"/>
      <point x="530" y="1274" type="qcurve" smooth="yes"/>
      <point x="502" y="1274"/>
      <point x="426" y="1272"/>
      <point x="426" y="1272" type="qcurve"/>
      <point x="426" y="627" type="line"/>
      <point x="431" y="627"/>
      <point x="512" y="616"/>
      <point x="541" y="616" type="qcurve" smooth="yes"/>
      <point x="547" y="616" type="line" smooth="yes"/>
      <point x="706" y="616"/>
      <point x="893" y="782"/>
    </contour>
  </outline>
</glyph>
<glyph name="Q" format="2">
  <advance width="1513"/>
  <unicode hex="0051"/>
  <anchor x="757" y="0" name="bottom"/>
  <anchor x="757" y="1374" name="top"/>
  <outline>
    <contour>
      <point x="1434" y="686" type="qcurve" smooth="yes"/>
      <point x="1434" y="502"/>
      <point x="1299" y="202"/>
      <point x="1046" y="6"/>
      <point x="868" y="-23" type="qcurve"/>
      <point x="870" y="-138"/>
      <point x="1010" y="-270"/>
      <point x="1151" y="-270" type="qcurve" smooth="yes"/>
      <point x="1222" y="-270"/>
      <point x="1326" y="-253"/>
      <point x="1344" y="-249" type="qcurve" smooth="yes"/>
      <point x="1345" y="-249"/>
      <point x="1347" y="-248"/>
      <point x="1348" y="-248" type="qcurve" smooth="yes"/>
      <point x="1348" y="-336" type="line" smooth="yes"/>
      <point x="1347" y="-336"/>
      <point x="1345" y="-337"/>
      <point x="1343" y="-337" type="qcurve" smooth="yes"/>
      <point x="1315" y="-343"/>
      <point x="1147" y="-371"/>
      <point x="1044" y="-371" type="qcurve" smooth="yes"/>
      <point x="828" y="-371"/>
      <point x="649" y="-185"/>
      <point x="649" y="-27" type="qcurve"/>
      <point x="486" y="-3"/>
      <point x="228" y="182"/>
      <point x="80" y="486"/>
      <point x="80" y="686" type="qcurve" smooth="yes"/>
      <point x="80" y="836"/>
      <point x="175" y="1098"/>
      <point x="352" y="1296"/>
      <point x="600" y="1407"/>
      <point x="754" y="1407" type="qcurve" smooth="yes"/>
      <point x="962" y="1407"/>
      <point x="1267" y="1215"/>
      <point x="1434" y="888"/>
    </contour>
    <contour>
      <point x="1192" y="686" type="qcurve" smooth="yes"/>
      <point x="1192" y="847"/>
      <point x="1099" y="1123"/>
      <point x="907" y="1292"/>
      <point x="756" y="1292" type="qcurve" smooth="yes"/>
      <point x="607" y="1292"/>
      <point x="413" y="1127"/>
      <point x="319" y="853"/>
      <point x="319" y="690" type="qcurve" smooth="yes"/>
      <point x="319" y="530"/>
      <point x="415" y="251"/>
      <point x="610" y="80"/>
      <point x="756" y="80" type="qcurve" smooth="yes"/>
      <point x="904" y="80"/>
      <point x="1097" y="249"/>
      <point x="1192" y="526"/>
    </contour>
  </outline>
</glyph>
<glyph name="R" format="2">
  <advance width="1329"/>
  <unicode hex="0052"/>
  <anchor x="665" y="0" name="bottom"/>
  <anchor x="665" y="1374" name="top"/>
  <outline>
    <contour>
      <point x="1329" y="-6" type="line"/>
      <point x="1316" y="-7"/>
      <point x="1240" y="-33"/>
      <point x="1194" y="-33" type="qcurve" smooth="yes"/>
      <point x="1089" y="-33"/>
      <point x="966" y="37"/>
      <point x="899" y="152"/>
      <point x="860" y="290"/>
      <point x="820" y="427"/>
      <point x="750" y="542"/>
      <point x="624" y="612"/>
      <point x="516" y="612" type="qcurve" smooth="yes"/>
      <point x="484" y="612"/>
      <point x="427" y="608"/>
      <point x="424" y="608" type="qcurve" smooth="yes"/>
      <point x="424" y="141" type="line" smooth="yes"/>
      <point x="424" y="126"/>
      <point x="445" y="98"/>
      <point x="467" y="96" type="qcurve" smooth="yes"/>
      <point x="575" y="88" type="line"/>
      <point x="575" y="0" type="line"/>
      <point x="66" y="0" type="line"/>
      <point x="66" y="88" type="line"/>
      <point x="172" y="96" type="line" smooth="yes"/>
      <point x="194" y="98"/>
      <point x="217" y="126"/>
      <point x="217" y="141" type="qcurve" smooth="yes"/>
      <point x="217" y="1233" type="line" smooth="yes"/>
      <point x="217" y="1248"/>
      <point x="194" y="1277"/>
      <point x="172" y="1278" type="qcurve" smooth="yes"/>
      <point x="66" y="1286" type="line"/>
      <point x="66" y="1374" type="line"/>
      <point x="600" y="1374" type="line" smooth="yes"/>
      <point x="833" y="1374"/>
      <point x="1102" y="1213"/>
      <point x="1102" y="1010" type="qcurve" smooth="yes"/>
      <point x="1102" y="903"/>
      <point x="1006" y="766"/>
      <point x="853" y="688"/>
      <point x="766" y="668" type="qcurve"/>
      <point x="861" y="645"/>
      <point x="968" y="560"/>
      <point x="1020" y="452"/>
      <point x="1046" y="336"/>
      <point x="1072" y="226"/>
      <point x="1125" y="138"/>
      <point x="1233" y="86"/>
      <point x="1329" y="86" type="qcurve"/>
    </contour>
    <contour>
      <point x="879" y="1001" type="qcurve" smooth="yes"/>
      <point x="879" y="1132"/>
      <point x="712" y="1274"/>
      <point x="518" y="1274" type="qcurve" smooth="yes"/>
      <point x="424" y="1274" type="line"/>
      <point x="424" y="713" type="line"/>
      <point x="429" y="713"/>
      <point x="502" y="711"/>
      <point x="526" y="711" type="qcurve" smooth="yes"/>
      <point x="697" y="711"/>
      <point x="879" y="837"/>
    </contour>
  </outline>
</glyph>
<glyph name="S" format="2">
  <advance width="1067"/>
  <unicode hex="0053"/>
  <anchor x="534" y="0" name="bottom"/>
  <anchor x="534" y="1374" name="top"/>
  <outline>
    <contour>
      <point x="987" y="385" type="qcurve" smooth="yes"/>
      <point x="987" y="282"/>
      <point x="876" y="90"/>
      <point x="637" y="-33"/>
      <point x="444" y="-33" type="qcurve" smooth="yes"/>
      <point x="334" y="-33"/>
      <point x="170" y="5"/>
      <point x="80" y="43"/>
      <point x="80" y="43" type="qcurve"/>
      <point x="80" y="406" type="line"/>
      <point x="209" y="406" type="line"/>
      <point x="236" y="174" type="line" smooth="yes"/>
      <point x="238" y="162"/>
      <point x="260" y="134"/>
      <point x="270" y="129" type="qcurve" smooth="yes"/>
      <point x="275" y="128"/>
      <point x="382" y="82"/>
      <point x="477" y="82" type="qcurve" smooth="yes"/>
      <point x="608" y="82"/>
      <point x="778" y="210"/>
      <point x="778" y="324" type="qcurve" smooth="yes"/>
      <point x="778" y="386"/>
      <point x="709" y="479"/>
      <point x="599" y="551"/>
      <point x="474" y="610"/>
      <point x="418" y="637" type="qcurve" smooth="yes"/>
      <point x="334" y="677"/>
      <point x="190" y="768"/>
      <point x="102" y="902"/>
      <point x="102" y="1006" type="qcurve" smooth="yes"/>
      <point x="102" y="1128"/>
      <point x="226" y="1308"/>
      <point x="440" y="1407"/>
      <point x="575" y="1407" type="qcurve" smooth="yes"/>
      <point x="685" y="1407"/>
      <point x="853" y="1364"/>
      <point x="918" y="1343" type="qcurve" smooth="yes"/>
      <point x="936" y="1337" type="line"/>
      <point x="936" y="1018" type="line"/>
      <point x="819" y="1018" type="line"/>
      <point x="788" y="1214" type="line" smooth="yes"/>
      <point x="786" y="1228"/>
      <point x="765" y="1241"/>
      <point x="756" y="1250" type="qcurve" smooth="yes"/>
      <point x="748" y="1256"/>
      <point x="665" y="1296"/>
      <point x="578" y="1296" type="qcurve" smooth="yes"/>
      <point x="455" y="1296"/>
      <point x="313" y="1159"/>
      <point x="313" y="1055" type="qcurve" smooth="yes"/>
      <point x="313" y="961"/>
      <point x="460" y="837"/>
      <point x="598" y="784" type="qcurve" smooth="yes"/>
      <point x="784" y="714"/>
      <point x="987" y="539"/>
    </contour>
  </outline>
</glyph>
<glyph name="T" format="2">
  <advance width="1227"/>
  <unicode hex="0054"/>
  <anchor x="614" y="0" name="bottom"/>
  <anchor x="614" y="687" name="center"/>
  <anchor x="614" y="1374" name="top"/>
  <outline>
    <contour>
      <point x="1194" y="1047" type="line"/>
      <point x="1073" y="1047" type="line"/>
      <point x="1044" y="1239" type="line" smooth="yes"/>
      <point x="1037" y="1274"/>
      <point x="1010" y="1274" type="qcurve" smooth="yes"/>
      <point x="717" y="1274" type="line"/>
      <point x="717" y="141" type="line" smooth="yes"/>
      <point x="717" y="126"/>
      <point x="738" y="98"/>
      <point x="760" y="96" type="qcurve" smooth="yes"/>
      <point x="891" y="88" type="line"/>
      <point x="891" y="0" type="line"/>
      <point x="336" y="0" type="line"/>
      <point x="336" y="88" type="line"/>
      <point x="467" y="96" type="line" smooth="yes"/>
      <point x="489" y="98"/>
      <point x="510" y="126"/>
      <point x="510" y="141" type="qcurve" smooth="yes"/>
      <point x="510" y="1274" type="line"/>
      <point x="215" y="1274" type="line" smooth="yes"/>
      <point x="185" y="1274"/>
      <point x="180" y="1239" type="qcurve" smooth="yes"/>
      <point x="152" y="1047" type="line"/>
      <point x="33" y="1047" type="line"/>
      <point x="33" y="1374" type="line"/>
      <point x="1194" y="1374" type="line"/>
    </contour>
  </outline>
</glyph>
<glyph name="V" format="2">
  <advance width="1364"/>
  <unicode hex="0056"/>
  <anchor x="682" y="0" name="bottom"/>
  <anchor x="682" y="1374" name="top"/>
  <outline>
    <contour>
      <point x="1343" y="1286" type="line"/>
      <point x="1225" y="1264" type="line"/>
      <point x="766" y="-33" type="line"/>
      <point x="610" y="-33" type="line"/>
      <point x="141" y="1266" type="line"/>
      <point x="20" y="1286" type="line"/>
      <point x="20" y="1374" type="line"/>
      <point x="510" y="1374" type="line"/>
      <point x="510" y="1286" type="line"/>
      <point x="389" y="1276" type="line" smooth="yes"/>
      <point x="380" y="1275"/>
      <point x="370" y="1255"/>
      <point x="370" y="1246" type="qcurve" smooth="yes"/>
      <point x="370" y="1241"/>
      <point x="371" y="1239" type="qcurve" smooth="yes"/>
      <point x="731" y="227" type="line"/>
      <point x="1077" y="1235" type="line" smooth="yes"/>
      <point x="1078" y="1237"/>
      <point x="1078" y="1242" type="qcurve" smooth="yes"/>
      <point x="1078" y="1253"/>
      <point x="1060" y="1275"/>
      <point x="1049" y="1276" type="qcurve" smooth="yes"/>
      <point x="936" y="1286" type="line"/>
      <point x="936" y="1374" type="line"/>
      <point x="1343" y="1374" type="line"/>
    </contour>
  </outline>
</glyph>
<glyph name="W" format="2">
  <advance width="1907"/>
  <unicode hex="0057"/>
  <anchor x="954" y="0" name="bottom"/>
  <anchor x="954" y="1374" name="top"/>
  <outline>
    <contour>
      <point x="1886" y="1286" type="line"/>
      <point x="1761" y="1262" type="line"/>
      <point x="1448" y="-33" type="line"/>
      <point x="1298" y="-33" type="line"/>
      <point x="956" y="1102" type="line"/>
      <point x="621" y="-33" type="line"/>
      <point x="473" y="-33" type="line"/>
      <point x="139" y="1262" type="line"/>
      <point x="20" y="1286" type="line"/>
      <point x="20" y="1374" type="line"/>
      <point x="489" y="1374" type="line"/>
      <point x="489" y="1286" type="line"/>
      <point x="367" y="1274" type="line" smooth="yes"/>
      <point x="344" y="1271"/>
      <point x="344" y="1244" type="qcurve" smooth="yes"/>
      <point x="344" y="1241"/>
      <point x="346" y="1233" type="qcurve" smooth="yes"/>
      <point x="590" y="309" type="line"/>
      <point x="911" y="1374" type="line"/>
      <point x="1069" y="1374" type="line"/>
      <point x="1399" y="276" type="line"/>
      <point x="1626" y="1233" type="line" smooth="yes"/>
      <point x="1627" y="1235"/>
      <point x="1627" y="1240" type="qcurve" smooth="yes"/>
      <point x="1627" y="1271"/>
      <point x="1597" y="1274" type="qcurve" smooth="yes"/>
      <point x="1468" y="1286" type="line"/>
      <point x="1468" y="1374" type="line"/>
      <point x="1886" y="1374" type="line"/>
    </contour>
  </outline>
</glyph>
<glyph name="X" format="2">
  <advance width="1298"/>
  <unicode hex="0058"/>
  <anchor x="649" y="0" name="bottom"/>
  <anchor x="649" y="1374" name="top"/>
  <outline>
    <contour>
      <point x="1278" y="0" type="line"/>
      <point x="752" y="0" type="line"/>
      <point x="752" y="88" type="line"/>
      <point x="870" y="100" type="line" smooth="yes"/>
      <point x="899" y="104"/>
      <point x="899" y="129" type="qcurve" smooth="yes"/>
      <point x="899" y="136"/>
      <point x="895" y="143" type="qcurve" smooth="yes"/>
      <point x="623" y="571" type="line"/>
      <point x="307" y="137" type="line" smooth="yes"/>
      <point x="302" y="129"/>
      <point x="302" y="121" type="qcurve" smooth="yes"/>
      <point x="302" y="101"/>
      <point x="332" y="98" type="qcurve" smooth="yes"/>
      <point x="455" y="88" type="line"/>
      <point x="455" y="0" type="line"/>
      <point x="20" y="0" type="line"/>
      <point x="20" y="88" type="line"/>
      <point x="143" y="113" type="line"/>
      <point x="555" y="678" type="line"/>
      <point x="182" y="1262" type="line"/>
      <point x="47" y="1286" type="line"/>
      <point x="47" y="1374" type="line"/>
      <point x="561" y="1374" type="line"/>
      <point x="561" y="1286" type="line"/>
      <point x="457" y="1276" type="line" smooth="yes"/>
      <point x="427" y="1275"/>
      <point x="427" y="1252" type="qcurve" smooth="yes"/>
      <point x="427" y="1243"/>
      <point x="432" y="1235" type="qcurve" smooth="yes"/>
      <point x="682" y="850" type="line"/>
      <point x="958" y="1229" type="line" smooth="yes"/>
      <point x="964" y="1237"/>
      <point x="964" y="1245" type="qcurve" smooth="yes"/>
      <point x="964" y="1270"/>
      <point x="936" y="1272" type="qcurve" smooth="yes"/>
      <point x="831" y="1286" type="line"/>
      <point x="831" y="1374" type="line"/>
      <point x="1260" y="1374" type="line"/>
      <point x="1260" y="1286" type="line"/>
      <point x="1128" y="1266" type="line"/>
      <point x="748" y="743" type="line"/>
      <point x="1151" y="113" type="line"/>
      <point x="1278" y="88" type="line"/>
    </contour>
  </outline>
</glyph>
<glyph name="Y" format="2">
  <advance width="1282"/>
  <unicode hex="0059"/>
  <anchor x="641" y="0" name="bottom"/>
  <anchor x="641" y="1374" name="top"/>
  <anchor x="20" y="1374" name="topleft"/>
  <outline>
    <contour>
      <point x="1262" y="1286" type="line"/>
      <point x="1151" y="1266" type="line"/>
      <point x="739" y="584" type="line"/>
      <point x="739" y="141" type="line" smooth="yes"/>
      <point x="739" y="126"/>
      <point x="761" y="98"/>
      <point x="782" y="96" type="qcurve" smooth="yes"/>
      <point x="913" y="88" type="line"/>
      <point x="913" y="0" type="line"/>
      <point x="360" y="0" type="line"/>
      <point x="360" y="88" type="line"/>
      <point x="487" y="96" type="line" smooth="yes"/>
      <point x="509" y="98"/>
      <point x="532" y="126"/>
      <point x="532" y="141" type="qcurve" smooth="yes"/>
      <point x="532" y="553" type="line"/>
      <point x="139" y="1262" type="line"/>
      <point x="20" y="1286" type="line"/>
      <point x="20" y="1374" type="line"/>
      <point x="506" y="1374" type="line"/>
      <point x="506" y="1286" type="line"/>
      <point x="403" y="1276" type="line" smooth="yes"/>
      <point x="375" y="1272"/>
      <point x="375" y="1252" type="qcurve" smooth="yes"/>
      <point x="375" y="1242"/>
      <point x="379" y="1235" type="qcurve" smooth="yes"/>
      <point x="668" y="700" type="line"/>
      <point x="985" y="1229" type="line" smooth="yes"/>
      <point x="989" y="1236"/>
      <point x="989" y="1243" type="qcurve" smooth="yes"/>
      <point x="989" y="1268"/>
      <point x="961" y="1272" type="qcurve" smooth="yes"/>
      <point x="846" y="1286" type="line"/>
      <point x="846" y="1374" type="line"/>
      <point x="1262" y="1374" type="line"/>
    </contour>
  </outline>
</glyph>
<glyph name="Z" format="2">
  <advance width="1178"/>
  <unicode hex="005A"/>
  <anchor x="589" y="0" name="bottom"/>
  <anchor x="589" y="687" name="center"/>
  <anchor x="589" y="1374" name="top"/>
  <outline>
    <contour>
      <point x="1098" y="0" type="line"/>
      <point x="80" y="0" type="line"/>
      <point x="80" y="90" type="line"/>
      <point x="842" y="1272" type="line"/>
      <point x="309" y="1272" type="line" smooth="yes"/>
      <point x="283" y="1272"/>
      <point x="274" y="1237" type="qcurve" smooth="yes"/>
      <point x="244" y="1047" type="line"/>
      <point x="123" y="1047" type="line"/>
      <point x="123" y="1374" type="line"/>
      <point x="1087" y="1374" type="line"/>
      <point x="1087" y="1280" type="line"/>
      <point x="324" y="104" type="line"/>
      <point x="907" y="104" type="line" smooth="yes"/>
      <point x="921" y="104"/>
      <point x="940" y="126"/>
      <point x="942" y="141" type="qcurve" smooth="yes"/>
      <point x="977" y="379" type="line"/>
      <point x="1098" y="379" type="line"/>
    </contour>
  </outline>
</glyph>
<glyph name="grave" format="2">
  <advance width="717"/>
  <unicode hex="0060"/>
  <outline>
    <contour>
      <point x="479" y="1128" type="line"/>
      <point x="596" y="1128" type="line"/>
      <point x="322" y="1446" type="line" smooth="yes"/>
      <point x="300" y="1472"/>
      <point x="257" y="1501"/>
      <point x="215" y="1501" type="qcurve" smooth="yes"/>
      <point x="162" y="1501"/>
      <point x="121" y="1440"/>
      <point x="121" y="1409" type="qcurve" smooth="yes"/>
      <point x="121" y="1358"/>
      <point x="168" y="1327" type="qcurve" smooth="yes"/>
    </contour>
  </outline>
</glyph>
<glyph name="b" format="2">
  <advance width="1137"/>
  <unicode hex="0062"/>
  <anchor x="569" y="0" name="bottom"/>
  <anchor x="569" y="1509" name="top"/>
  <outline>
    <contour>
      <point x="1067" y="541" type="qcurve" smooth="yes"/>
      <point x="1067" y="387"/>
      <point x="945" y="142"/>
      <point x="685" y="0"/>
      <point x="479" y="0" type="qcurve" smooth="yes"/>
      <point x="184" y="0" type="line"/>
      <point x="184" y="1362" type="line"/>
      <point x="29" y="1362" type="line"/>
      <point x="29" y="1430" type="line"/>
      <point x="293" y="1509" type="line"/>
      <point x="375" y="1509" type="line"/>
      <point x="375" y="936" type="line"/>
      <point x="410" y="953"/>
      <point x="567" y="1012"/>
      <point x="657" y="1012" type="qcurve" smooth="yes"/>
      <point x="792" y="1012"/>
      <point x="974" y="882"/>
      <point x="1067" y="667"/>
    </contour>
    <contour>
      <point x="858" y="500" type="qcurve" smooth="yes"/>
      <point x="858" y="694"/>
      <point x="694" y="891"/>
      <point x="545" y="891" type="qcurve" smooth="yes"/>
      <point x="511" y="891"/>
      <point x="406" y="869"/>
      <point x="375" y="858" type="qcurve"/>
      <point x="375" y="98" type="line"/>
      <point x="375" y="98"/>
      <point x="446" y="96"/>
      <point x="475" y="96" type="qcurve" smooth="yes"/>
      <point x="657" y="96"/>
      <point x="858" y="276"/>
    </contour>
  </outline>
</glyph>
<glyph name="c" format="2">
  <advance width="954"/>
  <unicode hex="0063"/>
  <anchor x="477" y="0" name="bottom"/>
  <anchor x="477" y="987" name="top"/>
  <outline>
    <contour>
      <point x="885" y="193" type="qcurve"/>
      <point x="885" y="76" type="line"/>
      <point x="816" y="39"/>
      <point x="643" y="-25"/>
      <point x="539" y="-25" type="qcurve" smooth="yes"/>
      <point x="396" y="-25"/>
      <point x="185" y="109"/>
      <point x="70" y="340"/>
      <point x="70" y="487" type="qcurve" smooth="yes"/>
      <point x="70" y="659"/>
      <point x="207" y="893"/>
      <point x="432" y="1012"/>
      <point x="563" y="1012" type="qcurve" smooth="yes"/>
      <point x="698" y="1012"/>
      <point x="881" y="907"/>
      <point x="881" y="807" type="qcurve" smooth="yes"/>
      <point x="881" y="747"/>
      <point x="806" y="686"/>
      <point x="760" y="686" type="qcurve" smooth="yes"/>
      <point x="726" y="686"/>
      <point x="676" y="709"/>
      <point x="657" y="721" type="qcurve"/>
      <point x="657" y="899" type="line"/>
      <point x="610" y="926"/>
      <point x="571" y="926" type="qcurve" smooth="yes"/>
      <point x="480" y="926"/>
      <point x="349" y="819"/>
      <point x="279" y="633"/>
      <point x="279" y="514" type="qcurve" smooth="yes"/>
      <point x="279" y="401"/>
      <point x="355" y="214"/>
      <point x="506" y="104"/>
      <point x="618" y="104" type="qcurve" smooth="yes"/>
      <point x="689" y="104"/>
      <point x="819" y="150"/>
    </contour>
  </outline>
</glyph>
<glyph name="d" format="2">
  <advance width="1155"/>
  <unicode hex="0064"/>
  <anchor x="578" y="0" name="bottom"/>
  <anchor x="578" y="494" name="center"/>
  <anchor x="578" y="1509" name="top"/>
  <anchor x="1102" y="987" name="topright"/>
  <outline>
    <contour>
      <point x="1102" y="0" type="line"/>
      <point x="780" y="0" type="line"/>
      <point x="780" y="109" type="line"/>
      <point x="710" y="55"/>
      <point x="552" y="-25"/>
      <point x="463" y="-25" type="qcurve" smooth="yes"/>
      <point x="360" y="-25"/>
      <point x="211" y="62"/>
      <point x="116" y="206"/>
      <point x="70" y="380"/>
      <point x="70" y="467" type="qcurve" smooth="yes"/>
      <point x="70" y="606"/>
      <point x="184" y="855"/>
      <point x="416" y="1012"/>
      <point x="592" y="1012" type="qcurve" smooth="yes"/>
      <point x="641" y="1012"/>
      <point x="756" y="993"/>
      <point x="780" y="987" type="qcurve"/>
      <point x="780" y="1362" type="line"/>
      <point x="625" y="1362" type="line"/>
      <point x="625" y="1430" type="line"/>
      <point x="889" y="1509" type="line"/>
      <point x="971" y="1509" type="line"/>
      <point x="971" y="131" type="line" smooth="yes"/>
      <point x="971" y="89"/>
      <point x="1014" y="86" type="qcurve" smooth="yes"/>
      <point x="1102" y="80" type="line"/>
    </contour>
    <contour>
      <point x="780" y="186" type="qcurve"/>
      <point x="780" y="883" type="line"/>
      <point x="754" y="892"/>
      <point x="651" y="913"/>
      <point x="606" y="913" type="qcurve" smooth="yes"/>
      <point x="454" y="913"/>
      <point x="272" y="688"/>
      <point x="272" y="502" type="qcurve" smooth="yes"/>
      <point x="272" y="335"/>
      <point x="428" y="115"/>
      <point x="569" y="115" type="qcurve" smooth="yes"/>
      <point x="631" y="115"/>
      <point x="740" y="162"/>
    </contour>
  </outline>
</glyph>
<glyph name="e" format="2">
  <advance width="1004"/>
  <unicode hex="0065"/>
  <anchor x="502" y="0" name="bottom"/>
  <anchor x="713" y="0" name="ogonek"/>
  <anchor x="502" y="987" name="top"/>
  <outline>
    <contour>
      <point x="934" y="102" type="line"/>
      <point x="848" y="49"/>
      <point x="649" y="-25"/>
      <point x="545" y="-25" type="qcurve" smooth="yes"/>
      <point x="421" y="-25"/>
      <point x="204" y="86"/>
      <point x="70" y="312"/>
      <point x="70" y="483" type="qcurve" smooth="yes"/>
      <point x="70" y="643"/>
      <point x="194" y="881"/>
      <point x="412" y="1012"/>
      <point x="551" y="1012" type="qcurve" smooth="yes"/>
      <point x="742" y="1012"/>
      <point x="934" y="775"/>
      <point x="934" y="592" type="qcurve" smooth="yes"/>
      <point x="934" y="582"/>
      <point x="934" y="549"/>
      <point x="932" y="535" type="qcurve"/>
      <point x="268" y="535" type="line"/>
      <point x="268" y="457"/>
      <point x="301" y="302"/>
      <point x="379" y="176"/>
      <point x="511" y="100"/>
      <point x="610" y="100" type="qcurve" smooth="yes"/>
      <point x="698" y="100"/>
      <point x="865" y="181"/>
      <point x="934" y="227" type="qcurve"/>
    </contour>
    <contour>
      <point x="729" y="627" type="line"/>
      <point x="729" y="672" type="line" smooth="yes"/>
      <point x="729" y="773"/>
      <point x="632" y="911"/>
      <point x="530" y="911" type="qcurve" smooth="yes"/>
      <point x="429" y="911"/>
      <point x="287" y="759"/>
      <point x="279" y="627" type="qcurve"/>
    </contour>
  </outline>
</glyph>
<glyph name="g" format="2">
  <advance width="1075"/>
  <unicode hex="0067"/>
  <anchor x="538" y="-446" name="bottom"/>
  <anchor x="538" y="987" name="top"/>
  <outline>
    <contour>
      <point x="1040" y="850" type="line"/>
      <point x="836" y="850" type="line"/>
      <point x="859" y="813"/>
      <point x="891" y="725"/>
      <point x="891" y="666" type="qcurve" smooth="yes"/>
      <point x="891" y="564"/>
      <point x="779" y="419"/>
      <point x="596" y="341"/>
      <point x="489" y="341" type="qcurve" smooth="yes"/>
      <point x="479" y="341"/>
      <point x="459" y="341"/>
      <point x="449" y="342" type="qcurve"/>
      <point x="436" y="321"/>
      <point x="427" y="273"/>
      <point x="427" y="252" type="qcurve" smooth="yes"/>
      <point x="427" y="233"/>
      <point x="431" y="207"/>
      <point x="432" y="205" type="qcurve" smooth="yes"/>
      <point x="461" y="202" type="line" smooth="yes"/>
      <point x="533" y="195"/>
      <point x="712" y="169"/>
      <point x="879" y="111"/>
      <point x="987" y="5"/>
      <point x="987" y="-82" type="qcurve" smooth="yes"/>
      <point x="987" y="-179"/>
      <point x="845" y="-356"/>
      <point x="604" y="-469"/>
      <point x="455" y="-469" type="qcurve" smooth="yes"/>
      <point x="272" y="-469"/>
      <point x="70" y="-302"/>
      <point x="70" y="-178" type="qcurve" smooth="yes"/>
      <point x="70" y="-89"/>
      <point x="176" y="50"/>
      <point x="287" y="70" type="qcurve"/>
      <point x="276" y="102"/>
      <point x="266" y="130"/>
      <point x="266" y="164" type="qcurve" smooth="yes"/>
      <point x="266" y="204"/>
      <point x="315" y="301"/>
      <point x="369" y="356" type="qcurve"/>
      <point x="267" y="379"/>
      <point x="115" y="540"/>
      <point x="115" y="664" type="qcurve" smooth="yes"/>
      <point x="115" y="825"/>
      <point x="342" y="1012"/>
      <point x="526" y="1012" type="qcurve" smooth="yes"/>
      <point x="599" y="1012"/>
      <point x="724" y="969"/>
      <point x="764" y="950" type="qcurve"/>
      <point x="1040" y="950" type="line"/>
    </contour>
    <contour>
      <point x="811" y="-137" type="qcurve" smooth="yes"/>
      <point x="811" y="-73"/>
      <point x="722" y="-3"/>
      <point x="590" y="31"/>
      <point x="456" y="46"/>
      <point x="410" y="55" type="qcurve"/>
      <point x="321" y="23"/>
      <point x="254" y="-87"/>
      <point x="254" y="-137" type="qcurve" smooth="yes"/>
      <point x="254" y="-186"/>
      <point x="311" y="-297"/>
      <point x="430" y="-375"/>
      <point x="522" y="-375" type="qcurve" smooth="yes"/>
      <point x="620" y="-375"/>
      <point x="748" y="-297"/>
      <point x="811" y="-186"/>
    </contour>
    <contour>
      <point x="696" y="678" type="qcurve" smooth="yes"/>
      <point x="696" y="743"/>
      <point x="652" y="857"/>
      <point x="568" y="928"/>
      <point x="506" y="928" type="qcurve" smooth="yes"/>
      <point x="420" y="928"/>
      <point x="311" y="795"/>
      <point x="311" y="676" type="qcurve" smooth="yes"/>
      <point x="311" y="573"/>
      <point x="409" y="426"/>
      <point x="506" y="426" type="qcurve" smooth="yes"/>
      <point x="598" y="426"/>
      <point x="696" y="574"/>
    </contour>
  </outline>
</glyph>
<glyph name="h" format="2">
  <advance width="1176"/>
  <unicode hex="0068"/>
  <anchor x="588" y="0" name="bottom"/>
  <anchor x="588" y="755" name="center"/>
  <anchor x="588" y="1509" name="top"/>
  <outline>
    <contour>
      <point x="1128" y="0" type="line"/>
      <point x="672" y="0" type="line"/>
      <point x="672" y="80" type="line"/>
      <point x="756" y="86" type="line" smooth="yes"/>
      <point x="774" y="88"/>
      <point x="801" y="112"/>
      <point x="801" y="131" type="qcurve" smooth="yes"/>
      <point x="801" y="659" type="line" smooth="yes"/>
      <point x="801" y="747"/>
      <point x="717" y="862"/>
      <point x="598" y="862" type="qcurve" smooth="yes"/>
      <point x="544" y="862"/>
      <point x="419" y="828"/>
      <point x="375" y="803" type="qcurve"/>
      <point x="375" y="131" type="line" smooth="yes"/>
      <point x="375" y="89"/>
      <point x="416" y="86" type="qcurve" smooth="yes"/>
      <point x="504" y="80" type="line"/>
      <point x="504" y="0" type="line"/>
      <point x="43" y="0" type="line"/>
      <point x="43" y="80" type="line"/>
      <point x="141" y="86" type="line" smooth="yes"/>
      <point x="184" y="89"/>
      <point x="184" y="131" type="qcurve" smooth="yes"/>
      <point x="184" y="1362" type="line"/>
      <point x="31" y="1362" type="line"/>
      <point x="31" y="1430" type="line"/>
      <point x="293" y="1509" type="line"/>
      <point x="375" y="1509" type="line"/>
      <point x="375" y="885" type="line"/>
      <point x="412" y="908"/>
      <point x="530" y="967"/>
      <point x="660" y="1012"/>
      <point x="713" y="1012" type="qcurve" smooth="yes"/>
      <point x="831" y="1012"/>
      <point x="991" y="860"/>
      <point x="991" y="702" type="qcurve" smooth="yes"/>
      <point x="991" y="131" type="line" smooth="yes"/>
      <point x="991" y="112"/>
      <point x="1018" y="88"/>
      <point x="1036" y="86" type="qcurve" smooth="yes"/>
      <point x="1128" y="80" type="line"/>
    </contour>
  </outline>
</glyph>
<glyph name="i" format="2">
  <advance width="621"/>
  <unicode hex="0069"/>
  <anchor x="311" y="0" name="bottom"/>
  <outline>
    <contour>
      <point x="551" y="0" type="line"/>
      <point x="70" y="0" type="line"/>
      <point x="70" y="80" type="line"/>
      <point x="170" y="86" type="line" smooth="yes"/>
      <point x="213" y="89"/>
      <point x="213" y="131" type="qcurve" smooth="yes"/>
      <point x="213" y="862" type="line"/>
      <point x="72" y="862" type="line"/>
      <point x="72" y="934" type="line"/>
      <point x="322" y="1012" type="line"/>
      <point x="403" y="1012" type="line"/>
      <point x="403" y="131" type="line" smooth="yes"/>
      <point x="403" y="112"/>
      <point x="428" y="88"/>
      <point x="446" y="86" type="qcurve" smooth="yes"/>
      <point x="551" y="80" type="line"/>
    </contour>
    <contour>
      <point x="446" y="1325" type="qcurve" smooth="yes"/>
      <point x="446" y="1273"/>
      <point x="374" y="1198"/>
      <point x="322" y="1198" type="qcurve" smooth="yes"/>
      <point x="270" y="1198"/>
      <point x="195" y="1273"/>
      <point x="195" y="1325" type="qcurve" smooth="yes"/>
      <point x="195" y="1378"/>
      <point x="270" y="1450"/>
      <point x="322" y="1450" type="qcurve" smooth="yes"/>
      <point x="374" y="1450"/>
      <point x="446" y="1378"/>
    </contour>
  </outline>
</glyph>
<glyph name="j" format="2">
  <advance width="598"/>
  <unicode hex="006A"/>
  <outline>
    <contour>
      <point x="414" y="131" type="line" smooth="yes"/>
      <point x="414" y="70"/>
      <point x="403" y="-80"/>
      <point x="368" y="-224"/>
      <point x="333" y="-279" type="qcurve" smooth="yes"/>
      <point x="271" y="-376"/>
      <point x="91" y="-469"/>
      <point x="-6" y="-469" type="qcurve" smooth="yes"/>
      <point x="-69" y="-469"/>
      <point x="-162" y="-414"/>
      <point x="-162" y="-356" type="qcurve" smooth="yes"/>
      <point x="-162" y="-304"/>
      <point x="-105" y="-248"/>
      <point x="-74" y="-238" type="qcurve"/>
      <point x="125" y="-375" type="line"/>
      <point x="182" y="-343"/>
      <point x="223" y="-161"/>
      <point x="223" y="-43" type="qcurve" smooth="yes"/>
      <point x="223" y="866" type="line"/>
      <point x="78" y="866" type="line"/>
      <point x="78" y="934" type="line"/>
      <point x="330" y="1012" type="line"/>
      <point x="414" y="1012" type="line"/>
    </contour>
    <contour>
      <point x="436" y="1325" type="qcurve" smooth="yes"/>
      <point x="436" y="1273"/>
      <point x="364" y="1198"/>
      <point x="311" y="1198" type="qcurve" smooth="yes"/>
      <point x="259" y="1198"/>
      <point x="184" y="1273"/>
      <point x="184" y="1325" type="qcurve" smooth="yes"/>
      <point x="184" y="1378"/>
      <point x="259" y="1450"/>
      <point x="311" y="1450" type="qcurve" smooth="yes"/>
      <point x="364" y="1450"/>
      <point x="436" y="1378"/>
    </contour>
  </outline>
</glyph>
<glyph name="k" format="2">
  <advance width="1094"/>
  <unicode hex="006B"/>
  <anchor x="547" y="0" name="bottom"/>
  <anchor x="547" y="1509" name="top"/>
  <outline>
    <contour>
      <point x="1073" y="0" type="line"/>
      <point x="745" y="0" type="line"/>
      <point x="745" y="80" type="line"/>
      <point x="489" y="465" type="line"/>
      <point x="375" y="465" type="line"/>
      <point x="375" y="131" type="line" smooth="yes"/>
      <point x="375" y="89"/>
      <point x="418" y="86" type="qcurve" smooth="yes"/>
      <point x="506" y="80" type="line"/>
      <point x="506" y="0" type="line"/>
      <point x="41" y="0" type="line"/>
      <point x="41" y="80" type="line"/>
      <point x="141" y="86" type="line" smooth="yes"/>
      <point x="184" y="89"/>
      <point x="184" y="131" type="qcurve" smooth="yes"/>
      <point x="184" y="1362" type="line"/>
      <point x="29" y="1362" type="line"/>
      <point x="29" y="1430" type="line"/>
      <point x="291" y="1509" type="line"/>
      <point x="375" y="1509" type="line"/>
      <point x="375" y="524" type="line"/>
      <point x="416" y="524" type="line"/>
      <point x="717" y="864" type="line" smooth="yes"/>
      <point x="721" y="869"/>
      <point x="721" y="877" type="qcurve" smooth="yes"/>
      <point x="721" y="897"/>
      <point x="700" y="899" type="qcurve" smooth="yes"/>
      <point x="616" y="907" type="line"/>
      <point x="616" y="987" type="line"/>
      <point x="1014" y="987" type="line"/>
      <point x="1014" y="907" type="line"/>
      <point x="883" y="893" type="line"/>
      <point x="612" y="604" type="line"/>
      <point x="965" y="92" type="line"/>
      <point x="1073" y="80" type="line"/>
    </contour>
  </outline>
</glyph>
<glyph name="l" format="2">
  <advance width="608"/>
  <unicode hex="006C"/>
  <anchor x="304" y="0" name="bottom"/>
  <anchor x="304" y="494" name="center"/>
  <anchor x="304" y="0" name="dot"/>
  <anchor x="304" y="987" name="top"/>
  <anchor x="399" y="987" name="topright"/>
  <outline>
    <contour>
      <point x="553" y="0" type="line"/>
      <point x="55" y="0" type="line"/>
      <point x="55" y="80" type="line"/>
      <point x="164" y="86" type="line" smooth="yes"/>
      <point x="178" y="86"/>
      <point x="209" y="116"/>
      <point x="209" y="129" type="qcurve" smooth="yes"/>
      <point x="209" y="1362" type="line"/>
      <point x="53" y="1362" type="line"/>
      <point x="53" y="1430" type="line"/>
      <point x="315" y="1509" type="line"/>
      <point x="399" y="1509" type="line"/>
      <point x="399" y="129" type="line" smooth="yes"/>
      <point x="399" y="116"/>
      <point x="429" y="86"/>
      <point x="442" y="86" type="qcurve" smooth="yes"/>
      <point x="553" y="80" type="line"/>
    </contour>
  </outline>
</glyph>
<glyph name="m" format="2">
  <advance width="1741"/>
  <unicode hex="006D"/>
  <anchor x="871" y="0" name="bottom"/>
  <anchor x="871" y="987" name="top"/>
  <outline>
    <contour>
      <point x="1696" y="0" type="line"/>
      <point x="1237" y="0" type="line"/>
      <point x="1237" y="80" type="line"/>
      <point x="1323" y="86" type="line" smooth="yes"/>
      <point x="1366" y="89"/>
      <point x="1366" y="131" type="qcurve" smooth="yes"/>
      <point x="1366" y="653" type="line" smooth="yes"/>
      <point x="1366" y="748"/>
      <point x="1287" y="862"/>
      <point x="1184" y="862" type="qcurve" smooth="yes"/>
      <point x="1133" y="862"/>
      <point x="1012" y="830"/>
      <point x="965" y="805" type="qcurve"/>
      <point x="965" y="131" type="line" smooth="yes"/>
      <point x="965" y="89"/>
      <point x="1008" y="86" type="qcurve" smooth="yes"/>
      <point x="1094" y="80" type="line"/>
      <point x="1094" y="0" type="line"/>
      <point x="645" y="0" type="line"/>
      <point x="645" y="80" type="line"/>
      <point x="731" y="86" type="line" smooth="yes"/>
      <point x="774" y="89"/>
      <point x="774" y="131" type="qcurve" smooth="yes"/>
      <point x="774" y="666" type="line" smooth="yes"/>
      <point x="774" y="753"/>
      <point x="692" y="862"/>
      <point x="594" y="862" type="qcurve" smooth="yes"/>
      <point x="536" y="862"/>
      <point x="410" y="823"/>
      <point x="375" y="803" type="qcurve"/>
      <point x="375" y="131" type="line" smooth="yes"/>
      <point x="375" y="89"/>
      <point x="418" y="86" type="qcurve" smooth="yes"/>
      <point x="504" y="80" type="line"/>
      <point x="504" y="0" type="line"/>
      <point x="41" y="0" type="line"/>
      <point x="41" y="80" type="line"/>
      <point x="141" y="86" type="line" smooth="yes"/>
      <point x="184" y="89"/>
      <point x="184" y="131" type="qcurve" smooth="yes"/>
      <point x="184" y="842" type="line"/>
      <point x="43" y="842" type="line"/>
      <point x="43" y="909" type="line"/>
      <point x="291" y="987" type="line"/>
      <point x="375" y="987" type="line"/>
      <point x="375" y="885" type="line"/>
      <point x="421" y="913"/>
      <point x="536" y="971"/>
      <point x="656" y="1012"/>
      <point x="709" y="1012" type="qcurve" smooth="yes"/>
      <point x="798" y="1012"/>
      <point x="908" y="921"/>
      <point x="934" y="870" type="qcurve"/>
      <point x="975" y="896"/>
      <point x="1101" y="963"/>
      <point x="1236" y="1012"/>
      <point x="1290" y="1012" type="qcurve" smooth="yes"/>
      <point x="1398" y="1012"/>
      <point x="1512" y="913"/>
      <point x="1554" y="768"/>
      <point x="1554" y="698" type="qcurve" smooth="yes"/>
      <point x="1554" y="131" type="line" smooth="yes"/>
      <point x="1554" y="112"/>
      <point x="1579" y="88"/>
      <point x="1597" y="86" type="qcurve" smooth="yes"/>
      <point x="1696" y="80" type="line"/>
    </contour>
  </outline>
</glyph>
<glyph name="n" format="2">
  <advance width="1161"/>
  <unicode hex="006E"/>
  <anchor x="581" y="0" name="bottom"/>
  <anchor x="581" y="987" name="top"/>
  <outline>
    <contour>
      <point x="1120" y="0" type="line"/>
      <point x="668" y="0" type="line"/>
      <point x="668" y="80" type="line"/>
      <point x="754" y="86" type="line" smooth="yes"/>
      <point x="772" y="88"/>
      <point x="797" y="112"/>
      <point x="797" y="131" type="qcurve" smooth="yes"/>
      <point x="797" y="664" type="line" smooth="yes"/>
      <point x="797" y="761"/>
      <point x="707" y="862"/>
      <point x="600" y="862" type="qcurve" smooth="yes"/>
      <point x="542" y="862"/>
      <point x="427" y="829"/>
      <point x="375" y="803" type="qcurve"/>
      <point x="375" y="131" type="line" smooth="yes"/>
      <point x="375" y="89"/>
      <point x="418" y="86" type="qcurve" smooth="yes"/>
      <point x="504" y="80" type="line"/>
      <point x="504" y="0" type="line"/>
      <point x="41" y="0" type="line"/>
      <point x="41" y="80" type="line"/>
      <point x="141" y="86" type="line" smooth="yes"/>
      <point x="184" y="89"/>
      <point x="184" y="131" type="qcurve" smooth="yes"/>
      <point x="184" y="842" type="line"/>
      <point x="41" y="842" type="line"/>
      <point x="41" y="909" type="line"/>
      <point x="291" y="987" type="line"/>
      <point x="375" y="987" type="line"/>
      <point x="375" y="885" type="line"/>
      <point x="461" y="934"/>
      <point x="642" y="1012"/>
      <point x="713" y="1012" type="qcurve" smooth="yes"/>
      <point x="847" y="1012"/>
      <point x="987" y="845"/>
      <point x="987" y="696" type="qcurve" smooth="yes"/>
      <point x="987" y="131" type="line" smooth="yes"/>
      <point x="987" y="112"/>
      <point x="1012" y="88"/>
      <point x="1030" y="86" type="qcurve" smooth="yes"/>
      <point x="1120" y="80" type="line"/>
    </contour>
  </outline>
</glyph>
<glyph name="o" format="2">
  <advance width="1114"/>
  <unicode hex="006F"/>
  <anchor x="557" y="0" name="bottom"/>
  <anchor x="557" y="494" name="center"/>
  <anchor x="721" y="0" name="ogonek"/>
  <anchor x="557" y="987" name="top"/>
  <anchor x="728" y="987" name="topright"/>
  <outline>
    <contour>
      <point x="1044" y="492" type="qcurve" smooth="yes"/>
      <point x="1044" y="347"/>
      <point x="924" y="112"/>
      <point x="705" y="-25"/>
      <point x="555" y="-25" type="qcurve" smooth="yes"/>
      <point x="406" y="-25"/>
      <point x="188" y="111"/>
      <point x="70" y="345"/>
      <point x="70" y="492" type="qcurve" smooth="yes"/>
      <point x="70" y="638"/>
      <point x="189" y="874"/>
      <point x="410" y="1012"/>
      <point x="561" y="1012" type="qcurve" smooth="yes"/>
      <point x="714" y="1012"/>
      <point x="930" y="872"/>
      <point x="1044" y="636"/>
    </contour>
    <contour>
      <point x="831" y="494" type="qcurve" smooth="yes"/>
      <point x="831" y="606"/>
      <point x="772" y="800"/>
      <point x="651" y="920"/>
      <point x="559" y="920" type="qcurve" smooth="yes"/>
      <point x="464" y="920"/>
      <point x="343" y="800"/>
      <point x="285" y="606"/>
      <point x="285" y="494" type="qcurve" smooth="yes"/>
      <point x="285" y="383"/>
      <point x="344" y="188"/>
      <point x="465" y="68"/>
      <point x="557" y="68" type="qcurve" smooth="yes"/>
      <point x="651" y="68"/>
      <point x="772" y="188"/>
      <point x="831" y="382"/>
    </contour>
  </outline>
</glyph>
<glyph name="p" format="2">
  <advance width="1145"/>
  <unicode hex="0070"/>
  <anchor x="573" y="0" name="bottom"/>
  <anchor x="573" y="987" name="top"/>
  <outline>
    <contour>
      <point x="1075" y="508" type="qcurve" smooth="yes"/>
      <point x="1075" y="347"/>
      <point x="951" y="107"/>
      <point x="719" y="-25"/>
      <point x="557" y="-25" type="qcurve" smooth="yes"/>
      <point x="520" y="-25"/>
      <point x="435" y="-15"/>
      <point x="375" y="-6"/>
      <point x="375" y="-6" type="qcurve"/>
      <point x="375" y="-311" type="line" smooth="yes"/>
      <point x="375" y="-330"/>
      <point x="401" y="-352"/>
      <point x="420" y="-354" type="qcurve" smooth="yes"/>
      <point x="541" y="-367" type="line"/>
      <point x="541" y="-446" type="line"/>
      <point x="43" y="-446" type="line"/>
      <point x="43" y="-367" type="line"/>
      <point x="141" y="-354" type="line" smooth="yes"/>
      <point x="184" y="-351"/>
      <point x="184" y="-311" type="qcurve" smooth="yes"/>
      <point x="184" y="842" type="line"/>
      <point x="43" y="842" type="line"/>
      <point x="43" y="909" type="line"/>
      <point x="295" y="987" type="line"/>
      <point x="375" y="987" type="line"/>
      <point x="375" y="885" type="line"/>
      <point x="375" y="885"/>
      <point x="426" y="923"/>
      <point x="513" y="974"/>
      <point x="624" y="1012"/>
      <point x="684" y="1012" type="qcurve" smooth="yes"/>
      <point x="790" y="1012"/>
      <point x="967" y="887"/>
      <point x="1075" y="661"/>
    </contour>
    <contour>
      <point x="870" y="479" type="qcurve" smooth="yes"/>
      <point x="870" y="585"/>
      <point x="805" y="761"/>
      <point x="678" y="868"/>
      <point x="584" y="868" type="qcurve" smooth="yes"/>
      <point x="533" y="868"/>
      <point x="437" y="838"/>
      <point x="375" y="807"/>
      <point x="375" y="807" type="qcurve"/>
      <point x="375" y="102" type="line"/>
      <point x="375" y="102"/>
      <point x="478" y="70"/>
      <point x="541" y="70" type="qcurve" smooth="yes"/>
      <point x="654" y="70"/>
      <point x="799" y="186"/>
      <point x="870" y="373"/>
    </contour>
  </outline>
</glyph>
<glyph name="q" format="2">
  <advance width="1124"/>
  <unicode hex="0071"/>
  <anchor x="562" y="0" name="bottom"/>
  <anchor x="562" y="987" name="top"/>
  <outline>
    <contour>
      <point x="1094" y="-446" type="line"/>
      <point x="598" y="-446" type="line"/>
      <point x="598" y="-369" type="line"/>
      <point x="719" y="-358" type="line" smooth="yes"/>
      <point x="737" y="-356"/>
      <point x="762" y="-334"/>
      <point x="762" y="-315" type="qcurve" smooth="yes"/>
      <point x="762" y="55" type="line"/>
      <point x="705" y="27"/>
      <point x="544" y="-25"/>
      <point x="475" y="-25" type="qcurve" smooth="yes"/>
      <point x="349" y="-25"/>
      <point x="168" y="109"/>
      <point x="70" y="333"/>
      <point x="70" y="469" type="qcurve" smooth="yes"/>
      <point x="70" y="720"/>
      <point x="382" y="1012"/>
      <point x="662" y="1012" type="qcurve" smooth="yes"/>
      <point x="718" y="1012"/>
      <point x="888" y="994"/>
      <point x="952" y="979" type="qcurve"/>
      <point x="952" y="-315" type="line" smooth="yes"/>
      <point x="952" y="-334"/>
      <point x="977" y="-355"/>
      <point x="995" y="-358" type="qcurve" smooth="yes"/>
      <point x="1094" y="-369" type="line"/>
    </contour>
    <contour>
      <point x="762" y="125" type="qcurve"/>
      <point x="762" y="897" type="line"/>
      <point x="734" y="903"/>
      <point x="662" y="918"/>
      <point x="621" y="918" type="qcurve" smooth="yes"/>
      <point x="453" y="918"/>
      <point x="276" y="690"/>
      <point x="276" y="502" type="qcurve" smooth="yes"/>
      <point x="276" y="397"/>
      <point x="339" y="211"/>
      <point x="476" y="96"/>
      <point x="586" y="96" type="qcurve" smooth="yes"/>
      <point x="624" y="96"/>
      <point x="728" y="115"/>
    </contour>
  </outline>
</glyph>
<glyph name="r" format="2">
  <advance width="801"/>
  <unicode hex="0072"/>
  <anchor x="401" y="0" name="bottom"/>
  <anchor x="401" y="987" name="top"/>
  <outline>
    <contour>
      <point x="780" y="778" type="line"/>
      <point x="700" y="778" type="line"/>
      <point x="681" y="801"/>
      <point x="628" y="834"/>
      <point x="590" y="834" type="qcurve" smooth="yes"/>
      <point x="541" y="834"/>
      <point x="438" y="766"/>
      <point x="385" y="707" type="qcurve"/>
      <point x="385" y="131" type="line" smooth="yes"/>
      <point x="385" y="88"/>
      <point x="428" y="86" type="qcurve" smooth="yes"/>
      <point x="563" y="80" type="line"/>
      <point x="563" y="0" type="line"/>
      <point x="51" y="0" type="line"/>
      <point x="51" y="78" type="line"/>
      <point x="152" y="86" type="line" smooth="yes"/>
      <point x="170" y="88"/>
      <point x="195" y="112"/>
      <point x="195" y="131" type="qcurve" smooth="yes"/>
      <point x="195" y="842" type="line"/>
      <point x="47" y="842" type="line"/>
      <point x="47" y="909" type="line"/>
      <point x="301" y="987" type="line"/>
      <point x="385" y="987" type="line"/>
      <point x="385" y="805" type="line"/>
      <point x="415" y="838"/>
      <point x="505" y="936"/>
      <point x="607" y="1012"/>
      <point x="655" y="1012" type="qcurve" smooth="yes"/>
      <point x="687" y="1012"/>
      <point x="761" y="992"/>
      <point x="780" y="981" type="qcurve"/>
    </contour>
  </outline>
</glyph>
<glyph name="s" format="2">
  <advance width="815"/>
  <unicode hex="0073"/>
  <anchor x="408" y="0" name="bottom"/>
  <anchor x="408" y="987" name="top"/>
  <outline>
    <contour>
      <point x="745" y="297" type="qcurve" smooth="yes"/>
      <point x="745" y="146"/>
      <point x="537" y="-25"/>
      <point x="354" y="-25" type="qcurve" smooth="yes"/>
      <point x="260" y="-25"/>
      <point x="101" y="14"/>
      <point x="70" y="27" type="qcurve"/>
      <point x="70" y="299" type="line"/>
      <point x="174" y="299" type="line"/>
      <point x="199" y="125" type="line"/>
      <point x="230" y="105"/>
      <point x="321" y="68"/>
      <point x="381" y="68" type="qcurve" smooth="yes"/>
      <point x="469" y="68"/>
      <point x="565" y="166"/>
      <point x="565" y="227" type="qcurve" smooth="yes"/>
      <point x="565" y="308"/>
      <point x="449" y="391"/>
      <point x="342" y="442" type="qcurve" smooth="yes"/>
      <point x="315" y="455" type="line" smooth="yes"/>
      <point x="203" y="508"/>
      <point x="84" y="623"/>
      <point x="84" y="715" type="qcurve" smooth="yes"/>
      <point x="84" y="852"/>
      <point x="276" y="1012"/>
      <point x="453" y="1012" type="qcurve" smooth="yes"/>
      <point x="543" y="1012"/>
      <point x="684" y="979"/>
      <point x="715" y="965" type="qcurve"/>
      <point x="715" y="723" type="line"/>
      <point x="608" y="723" type="line"/>
      <point x="592" y="866" type="line"/>
      <point x="570" y="883"/>
      <point x="484" y="913"/>
      <point x="436" y="913" type="qcurve" smooth="yes"/>
      <point x="352" y="913"/>
      <point x="270" y="836"/>
      <point x="270" y="776" type="qcurve" smooth="yes"/>
      <point x="270" y="707"/>
      <point x="369" y="626"/>
      <point x="499" y="567" type="qcurve" smooth="yes"/>
      <point x="606" y="518"/>
      <point x="745" y="397"/>
    </contour>
  </outline>
</glyph>
<glyph name="t" format="2">
  <advance width="696"/>
  <unicode hex="0074"/>
  <anchor x="348" y="0" name="bottom"/>
  <anchor x="348" y="494" name="center"/>
  <anchor x="348" y="987" name="top"/>
  <anchor x="682" y="987" name="topright"/>
  <outline>
    <contour>
      <point x="682" y="125" type="qcurve"/>
      <point x="682" y="43" type="line"/>
      <point x="682" y="43"/>
      <point x="605" y="9"/>
      <point x="480" y="-25"/>
      <point x="406" y="-25" type="qcurve" smooth="yes"/>
      <point x="291" y="-25"/>
      <point x="186" y="84"/>
      <point x="186" y="205" type="qcurve" smooth="yes"/>
      <point x="186" y="885" type="line"/>
      <point x="55" y="885" type="line"/>
      <point x="55" y="952" type="line"/>
      <point x="195" y="1018" type="line"/>
      <point x="287" y="1235" type="line"/>
      <point x="377" y="1235" type="line"/>
      <point x="377" y="987" type="line"/>
      <point x="666" y="987" type="line"/>
      <point x="666" y="885" type="line"/>
      <point x="377" y="885" type="line"/>
      <point x="377" y="313" type="line" smooth="yes"/>
      <point x="377" y="191"/>
      <point x="459" y="90"/>
      <point x="541" y="90" type="qcurve" smooth="yes"/>
      <point x="601" y="90"/>
      <point x="682" y="125"/>
    </contour>
  </outline>
</glyph>
<glyph name="u" format="2">
  <advance width="1165"/>
  <unicode hex="0075"/>
  <anchor x="583" y="0" name="bottom"/>
  <anchor x="1122" y="0" name="ogonek"/>
  <anchor x="583" y="987" name="top"/>
  <anchor x="987" y="987" name="topright"/>
  <outline>
    <contour>
      <point x="1122" y="0" type="line"/>
      <point x="797" y="0" type="line"/>
      <point x="797" y="117" type="line"/>
      <point x="762" y="90"/>
      <point x="654" y="24"/>
      <point x="530" y="-25"/>
      <point x="469" y="-25" type="qcurve" smooth="yes"/>
      <point x="337" y="-25"/>
      <point x="186" y="134"/>
      <point x="186" y="307" type="qcurve" smooth="yes"/>
      <point x="186" y="862" type="line"/>
      <point x="43" y="862" type="line"/>
      <point x="43" y="932" type="line"/>
      <point x="295" y="1012" type="line"/>
      <point x="377" y="1012" type="line"/>
      <point x="377" y="346" type="line" smooth="yes"/>
      <point x="377" y="237"/>
      <point x="466" y="115"/>
      <point x="575" y="115" type="qcurve" smooth="yes"/>
      <point x="638" y="115"/>
      <point x="760" y="158"/>
      <point x="797" y="176" type="qcurve"/>
      <point x="797" y="862" type="line"/>
      <point x="653" y="862" type="line"/>
      <point x="653" y="932" type="line"/>
      <point x="903" y="1012" type="line"/>
      <point x="987" y="1012" type="line"/>
      <point x="987" y="131" type="line" smooth="yes"/>
      <point x="987" y="112"/>
      <point x="1014" y="88"/>
      <point x="1032" y="86" type="qcurve" smooth="yes"/>
      <point x="1122" y="80" type="line"/>
    </contour>
  </outline>
</glyph>
<glyph name="v" format="2">
  <advance width="1083"/>
  <unicode hex="0076"/>
  <anchor x="542" y="0" name="bottom"/>
  <anchor x="542" y="987" name="top"/>
  <outline>
    <contour>
      <point x="1063" y="907" type="line"/>
      <point x="954" y="895" type="line"/>
      <point x="596" y="0" type="line"/>
      <point x="463" y="0" type="line"/>
      <point x="133" y="895" type="line"/>
      <point x="20" y="907" type="line"/>
      <point x="20" y="987" type="line"/>
      <point x="473" y="987" type="line"/>
      <point x="473" y="907" type="line"/>
      <point x="375" y="901" type="line" smooth="yes"/>
      <point x="342" y="898"/>
      <point x="342" y="868" type="qcurve" smooth="yes"/>
      <point x="342" y="864"/>
      <point x="344" y="856" type="qcurve" smooth="yes"/>
      <point x="573" y="215" type="line"/>
      <point x="825" y="856" type="line" smooth="yes"/>
      <point x="828" y="862"/>
      <point x="828" y="869" type="qcurve" smooth="yes"/>
      <point x="828" y="899"/>
      <point x="797" y="901" type="qcurve" smooth="yes"/>
      <point x="705" y="907" type="line"/>
      <point x="705" y="987" type="line"/>
      <point x="1063" y="987" type="line"/>
    </contour>
  </outline>
</glyph>
<glyph name="w" format="2">
  <advance width="1604"/>
  <unicode hex="0077"/>
  <anchor x="802" y="0" name="bottom"/>
  <anchor x="802" y="987" name="top"/>
  <outline>
    <contour>
      <point x="1583" y="907" type="line"/>
      <point x="1479" y="895" type="line"/>
      <point x="1198" y="0" type="line"/>
      <point x="1053" y="0" type="line"/>
      <point x="811" y="766" type="line"/>
      <point x="541" y="0" type="line"/>
      <point x="395" y="0" type="line"/>
      <point x="133" y="895" type="line"/>
      <point x="20" y="907" type="line"/>
      <point x="20" y="987" type="line"/>
      <point x="469" y="987" type="line"/>
      <point x="469" y="907" type="line"/>
      <point x="373" y="901" type="line" smooth="yes"/>
      <point x="341" y="898"/>
      <point x="341" y="867" type="qcurve" smooth="yes"/>
      <point x="341" y="860"/>
      <point x="342" y="856" type="qcurve" smooth="yes"/>
      <point x="512" y="219" type="line"/>
      <point x="776" y="987" type="line"/>
      <point x="922" y="987" type="line"/>
      <point x="1159" y="219" type="line"/>
      <point x="1348" y="856" type="line" smooth="yes"/>
      <point x="1349" y="859"/>
      <point x="1349" y="866" type="qcurve" smooth="yes"/>
      <point x="1349" y="879"/>
      <point x="1333" y="900"/>
      <point x="1319" y="901" type="qcurve" smooth="yes"/>
      <point x="1225" y="907" type="line"/>
      <point x="1225" y="987" type="line"/>
      <point x="1583" y="987" type="line"/>
    </contour>
  </outline>
</glyph>
<glyph name="z" format="2">
  <advance width="946"/>
  <unicode hex="007A"/>
  <anchor x="473" y="0" name="bottom"/>
  <anchor x="473" y="494" name="center"/>
  <anchor x="473" y="987" name="top"/>
  <outline>
    <contour>
      <point x="877" y="0" type="line"/>
      <point x="70" y="0" type="line"/>
      <point x="70" y="109" type="line"/>
      <point x="612" y="891" type="line"/>
      <point x="256" y="891" type="line" smooth="yes"/>
      <point x="241" y="891"/>
      <point x="218" y="862"/>
      <point x="215" y="848" type="qcurve" smooth="yes"/>
      <point x="195" y="696" type="line"/>
      <point x="90" y="696" type="line"/>
      <point x="90" y="987" type="line"/>
      <point x="848" y="987" type="line"/>
      <point x="848" y="903" type="line"/>
      <point x="287" y="98" type="line"/>
      <point x="700" y="98" type="line" smooth="yes"/>
      <point x="714" y="98"/>
      <point x="744" y="132"/>
      <point x="745" y="147" type="qcurve" smooth="yes"/>
      <point x="766" y="309" type="line"/>
      <point x="877" y="309" type="line"/>
    </contour>
  </outline>
</glyph>
<glyph name="braceleft" format="2">
  <advance width="999"/>
  <unicode hex="007B"/>
  <outline>
    <contour>
      <point x="858" y="-252" type="qcurve"/>
      <point x="858" y="-168" type="line"/>
      <point x="841" y="-168"/>
      <point x="760" y="-160"/>
      <point x="675" y="-134"/>
      <point x="649" y="-106" type="qcurve" smooth="yes"/>
      <point x="615" y="-70"/>
      <point x="600" y="52"/>
      <point x="600" y="120" type="qcurve" smooth="yes"/>
      <point x="600" y="197" type="line" smooth="yes"/>
      <point x="600" y="310"/>
      <point x="562" y="469"/>
      <point x="444" y="571"/>
      <point x="324" y="596" type="qcurve"/>
      <point x="444" y="622"/>
      <point x="562" y="721"/>
      <point x="600" y="879"/>
      <point x="600" y="993" type="qcurve" smooth="yes"/>
      <point x="600" y="1070" type="line" smooth="yes"/>
      <point x="600" y="1138"/>
      <point x="615" y="1260"/>
      <point x="649" y="1296" type="qcurve" smooth="yes"/>
      <point x="675" y="1324"/>
      <point x="760" y="1350"/>
      <point x="841" y="1358"/>
      <point x="858" y="1358" type="qcurve"/>
      <point x="858" y="1442" type="line"/>
      <point x="749" y="1442"/>
      <point x="552" y="1405"/>
      <point x="502" y="1352" type="qcurve" smooth="yes"/>
      <point x="444" y="1290"/>
      <point x="418" y="1133"/>
      <point x="418" y="1047" type="qcurve" smooth="yes"/>
      <point x="418" y="941" type="line" smooth="yes"/>
      <point x="418" y="817"/>
      <point x="373" y="688"/>
      <point x="246" y="641"/>
      <point x="123" y="641" type="qcurve"/>
      <point x="123" y="549" type="line"/>
      <point x="246" y="549"/>
      <point x="373" y="502"/>
      <point x="418" y="373"/>
      <point x="418" y="249" type="qcurve" smooth="yes"/>
      <point x="418" y="143" type="line" smooth="yes"/>
      <point x="418" y="58"/>
      <point x="444" y="-100"/>
      <point x="502" y="-162" type="qcurve" smooth="yes"/>
      <point x="552" y="-215"/>
      <point x="749" y="-252"/>
    </contour>
  </outline>
</glyph>
<glyph name="braceright" format="2">
  <advance width="999"/>
  <unicode hex="007D"/>
  <outline>
    <contour>
      <point x="141" y="-252" type="line"/>
      <point x="251" y="-252"/>
      <point x="447" y="-215"/>
      <point x="498" y="-162" type="qcurve" smooth="yes"/>
      <point x="557" y="-100"/>
      <point x="582" y="58"/>
      <point x="582" y="143" type="qcurve" smooth="yes"/>
      <point x="582" y="255" type="line" smooth="yes"/>
      <point x="582" y="378"/>
      <point x="629" y="505"/>
      <point x="756" y="549"/>
      <point x="877" y="549" type="qcurve"/>
      <point x="877" y="641" type="line"/>
      <point x="756" y="641"/>
      <point x="629" y="686"/>
      <point x="582" y="812"/>
      <point x="582" y="935" type="qcurve" smooth="yes"/>
      <point x="582" y="1047" type="line" smooth="yes"/>
      <point x="582" y="1133"/>
      <point x="557" y="1290"/>
      <point x="498" y="1352" type="qcurve" smooth="yes"/>
      <point x="447" y="1405"/>
      <point x="251" y="1442"/>
      <point x="141" y="1442" type="qcurve"/>
      <point x="141" y="1358" type="line"/>
      <point x="159" y="1358"/>
      <point x="239" y="1350"/>
      <point x="325" y="1324"/>
      <point x="350" y="1296" type="qcurve" smooth="yes"/>
      <point x="383" y="1261"/>
      <point x="400" y="1143"/>
      <point x="400" y="1076" type="qcurve" smooth="yes"/>
      <point x="400" y="1055"/>
      <point x="399" y="1013"/>
      <point x="399" y="993" type="qcurve" smooth="yes"/>
      <point x="399" y="879"/>
      <point x="438" y="720"/>
      <point x="556" y="622"/>
      <point x="676" y="596" type="qcurve"/>
      <point x="557" y="571"/>
      <point x="438" y="470"/>
      <point x="399" y="311"/>
      <point x="399" y="197" type="qcurve" smooth="yes"/>
      <point x="399" y="177"/>
      <point x="400" y="135"/>
      <point x="400" y="114" type="qcurve" smooth="yes"/>
      <point x="400" y="47"/>
      <point x="383" y="-71"/>
      <point x="350" y="-106" type="qcurve" smooth="yes"/>
      <point x="325" y="-134"/>
      <point x="239" y="-160"/>
      <point x="159" y="-168"/>
      <point x="141" y="-168" type="qcurve"/>
    </contour>
  </outline>
</glyph>
<glyph name="asciitilde" format="2">
  <advance width="1706"/>
  <unicode hex="007E"/>
  <outline>
    <contour>
      <point x="176" y="461" type="line"/>
      <point x="279" y="536"/>
      <point x="475" y="621"/>
      <point x="553" y="621" type="qcurve" smooth="yes"/>
      <point x="632" y="621"/>
      <point x="782" y="579"/>
      <point x="928" y="525"/>
      <point x="1072" y="483"/>
      <point x="1145" y="483" type="qcurve" smooth="yes"/>
      <point x="1233" y="483"/>
      <point x="1412" y="545"/>
      <point x="1530" y="627" type="qcurve"/>
      <point x="1530" y="760" type="line"/>
      <point x="1407" y="671"/>
      <point x="1221" y="602"/>
      <point x="1147" y="602" type="qcurve" smooth="yes"/>
      <point x="1080" y="602"/>
      <point x="938" y="643"/>
      <point x="790" y="698"/>
      <point x="640" y="739"/>
      <point x="565" y="739" type="qcurve" smooth="yes"/>
      <point x="483" y="739"/>
      <point x="286" y="672"/>
      <point x="176" y="594" type="qcurve"/>
    </contour>
  </outline>
</glyph>
<glyph name="exclamdown" format="2">
  <advance width="1106"/>
  <unicode hex="00A1"/>
  <outline>
    <contour>
      <point x="489" y="-230" type="qcurve" smooth="yes"/>
      <point x="556" y="-230"/>
      <point x="629" y="-119"/>
      <point x="629" y="-1" type="qcurve" smooth="yes"/>
      <point x="629" y="27"/>
      <point x="622" y="96"/>
      <point x="603" y="234"/>
      <point x="568" y="487"/>
      <point x="539" y="698" type="qcurve"/>
      <point x="442" y="698" type="line"/>
      <point x="412" y="484"/>
      <point x="377" y="229"/>
      <point x="359" y="93"/>
      <point x="354" y="26"/>
      <point x="354" y="1" type="qcurve" smooth="yes"/>
      <point x="354" y="-129"/>
      <point x="423" y="-230"/>
    </contour>
    <contour>
      <point x="489" y="794" type="qcurve" smooth="yes"/>
      <point x="554" y="794"/>
      <point x="645" y="886"/>
      <point x="645" y="952" type="qcurve" smooth="yes"/>
      <point x="645" y="1017"/>
      <point x="554" y="1107"/>
      <point x="489" y="1107" type="qcurve" smooth="yes"/>
      <point x="423" y="1107"/>
      <point x="332" y="1017"/>
      <point x="332" y="952" type="qcurve" smooth="yes"/>
      <point x="332" y="886"/>
      <point x="423" y="794"/>
    </contour>
  </outline>
</glyph>
<glyph name="cent" format="2">
  <advance width="1153"/>
  <unicode hex="00A2"/>
  <outline>
    <contour>
      <point x="604" y="-203" type="line"/>
      <point x="702" y="-203" type="line"/>
      <point x="702" y="0" type="line"/>
      <point x="847" y="0"/>
      <point x="993" y="43"/>
      <point x="997" y="47" type="qcurve"/>
      <point x="997" y="356" type="line"/>
      <point x="897" y="356" type="line"/>
      <point x="870" y="160" type="line" smooth="yes"/>
      <point x="867" y="153"/>
      <point x="855" y="132"/>
      <point x="846" y="127" type="qcurve" smooth="yes"/>
      <point x="846" y="127"/>
      <point x="767" y="100"/>
      <point x="702" y="98" type="qcurve"/>
      <point x="702" y="936" type="line"/>
      <point x="765" y="935"/>
      <point x="824" y="918"/>
      <point x="846" y="905" type="qcurve" smooth="yes"/>
      <point x="857" y="901"/>
      <point x="865" y="877"/>
      <point x="868" y="866" type="qcurve" smooth="yes"/>
      <point x="868" y="864"/>
      <point x="872" y="849"/>
      <point x="885" y="775"/>
      <point x="899" y="684" type="qcurve"/>
      <point x="997" y="684" type="line"/>
      <point x="997" y="985" type="line"/>
      <point x="918" y="1011"/>
      <point x="779" y="1036"/>
      <point x="702" y="1036" type="qcurve"/>
      <point x="702" y="1237" type="line"/>
      <point x="604" y="1237" type="line"/>
      <point x="604" y="1028" type="line"/>
      <point x="470" y="1010"/>
      <point x="268" y="870"/>
      <point x="156" y="652"/>
      <point x="156" y="516" type="qcurve" smooth="yes"/>
      <point x="156" y="377"/>
      <point x="264" y="157"/>
      <point x="465" y="20"/>
      <point x="604" y="4" type="qcurve"/>
    </contour>
    <contour>
      <point x="604" y="104" type="line"/>
      <point x="501" y="129"/>
      <point x="352" y="340"/>
      <point x="352" y="522" type="qcurve" smooth="yes"/>
      <point x="352" y="651"/>
      <point x="434" y="823"/>
      <point x="551" y="918"/>
      <point x="604" y="930" type="qcurve"/>
    </contour>
  </outline>
</glyph>
<glyph name="sterling" format="2">
  <advance width="1153"/>
  <unicode hex="00A3"/>
  <outline>
    <contour>
      <point x="88" y="0" type="line"/>
      <point x="1061" y="0" type="line"/>
      <point x="1061" y="168" type="line"/>
      <point x="455" y="168" type="line" smooth="yes"/>
      <point x="435" y="168"/>
      <point x="353" y="162"/>
      <point x="285" y="156"/>
      <point x="285" y="156" type="qcurve"/>
      <point x="375" y="214"/>
      <point x="469" y="354"/>
      <point x="502" y="543"/>
      <point x="502" y="674" type="qcurve"/>
      <point x="883" y="674" type="line"/>
      <point x="883" y="774" type="line"/>
      <point x="502" y="774" type="line"/>
      <point x="502" y="774"/>
      <point x="500" y="850"/>
      <point x="498" y="956"/>
      <point x="498" y="1001" type="qcurve" smooth="yes"/>
      <point x="498" y="1071"/>
      <point x="518" y="1214"/>
      <point x="574" y="1334"/>
      <point x="683" y="1407"/>
      <point x="772" y="1407" type="qcurve" smooth="yes"/>
      <point x="803" y="1407"/>
      <point x="864" y="1391"/>
      <point x="864" y="1391" type="qcurve"/>
      <point x="864" y="1186" type="line"/>
      <point x="864" y="1186"/>
      <point x="916" y="1176"/>
      <point x="938" y="1176" type="qcurve" smooth="yes"/>
      <point x="988" y="1176"/>
      <point x="1065" y="1242"/>
      <point x="1065" y="1292" type="qcurve" smooth="yes"/>
      <point x="1065" y="1351"/>
      <point x="1001" y="1434"/>
      <point x="900" y="1485"/>
      <point x="789" y="1509"/>
      <point x="741" y="1509" type="qcurve" smooth="yes"/>
      <point x="592" y="1509"/>
      <point x="398" y="1372"/>
      <point x="305" y="1141"/>
      <point x="305" y="999" type="qcurve" smooth="yes"/>
      <point x="305" y="976"/>
      <point x="306" y="901"/>
      <point x="306" y="826"/>
      <point x="307" y="774"/>
      <point x="307" y="774" type="qcurve"/>
      <point x="166" y="774" type="line"/>
      <point x="166" y="674" type="line"/>
      <point x="309" y="674" type="line"/>
      <point x="309" y="674"/>
      <point x="311" y="630"/>
      <point x="312" y="573"/>
      <point x="312" y="551" type="qcurve" smooth="yes"/>
      <point x="312" y="526"/>
      <point x="311" y="524" type="qcurve" smooth="yes"/>
      <point x="311" y="513" type="line" smooth="yes"/>
      <point x="311" y="353"/>
      <point x="212" y="157"/>
      <point x="88" y="125" type="qcurve"/>
    </contour>
  </outline>
</glyph>
<glyph name="currency" format="2">
  <advance width="1241"/>
  <unicode hex="00A4"/>
  <outline>
    <contour>
      <point x="160" y="348" type="line"/>
      <point x="367" y="555" type="line"/>
      <point x="475" y="469"/>
      <point x="623" y="469" type="qcurve" smooth="yes"/>
      <point x="695" y="469"/>
      <point x="825" y="515"/>
      <point x="877" y="555" type="qcurve"/>
      <point x="1083" y="348" type="line"/>
      <point x="1155" y="420" type="line"/>
      <point x="948" y="627" type="line"/>
      <point x="1038" y="737"/>
      <point x="1038" y="887" type="qcurve" smooth="yes"/>
      <point x="1038" y="1034"/>
      <point x="952" y="1141" type="qcurve"/>
      <point x="1155" y="1346" type="line"/>
      <point x="1083" y="1417" type="line"/>
      <point x="879" y="1214" type="line"/>
      <point x="825" y="1256"/>
      <point x="695" y="1303"/>
      <point x="623" y="1303" type="qcurve" smooth="yes"/>
      <point x="475" y="1303"/>
      <point x="362" y="1212" type="qcurve"/>
      <point x="160" y="1417" type="line"/>
      <point x="86" y="1346" type="line"/>
      <point x="291" y="1141" type="line"/>
      <point x="251" y="1089"/>
      <point x="205" y="959"/>
      <point x="205" y="887" type="qcurve" smooth="yes"/>
      <point x="205" y="815"/>
      <point x="254" y="682"/>
      <point x="295" y="629" type="qcurve"/>
      <point x="86" y="422" type="line"/>
    </contour>
    <contour>
      <point x="623" y="571" type="qcurve" smooth="yes"/>
      <point x="536" y="571"/>
      <point x="392" y="657"/>
      <point x="307" y="800"/>
      <point x="307" y="887" type="qcurve" smooth="yes"/>
      <point x="307" y="974"/>
      <point x="392" y="1116"/>
      <point x="536" y="1200"/>
      <point x="623" y="1200" type="qcurve" smooth="yes"/>
      <point x="710" y="1200"/>
      <point x="852" y="1116"/>
      <point x="936" y="974"/>
      <point x="936" y="887" type="qcurve" smooth="yes"/>
      <point x="936" y="800"/>
      <point x="852" y="657"/>
      <point x="710" y="571"/>
    </contour>
  </outline>
</glyph>
<glyph name="section" format="2">
  <advance width="1024"/>
  <unicode hex="00A7"/>
  <outline>
    <contour>
      <point x="485" y="-250" type="qcurve" smooth="yes"/>
      <point x="596" y="-250"/>
      <point x="768" y="-170"/>
      <point x="866" y="-29"/>
      <point x="866" y="63" type="qcurve" smooth="yes"/>
      <point x="866" y="162"/>
      <point x="744" y="293"/>
      <point x="655" y="334" type="qcurve"/>
      <point x="718" y="359"/>
      <point x="831" y="454"/>
      <point x="903" y="586"/>
      <point x="903" y="666" type="qcurve" smooth="yes"/>
      <point x="903" y="755"/>
      <point x="820" y="883"/>
      <point x="688" y="976"/>
      <point x="541" y="1049"/>
      <point x="409" y="1117"/>
      <point x="326" y="1195"/>
      <point x="326" y="1247" type="qcurve" smooth="yes"/>
      <point x="326" y="1321"/>
      <point x="439" y="1419"/>
      <point x="530" y="1419" type="qcurve" smooth="yes"/>
      <point x="592" y="1419"/>
      <point x="689" y="1378"/>
      <point x="723" y="1360" type="qcurve"/>
      <point x="743" y="1194" type="line"/>
      <point x="840" y="1194" type="line"/>
      <point x="840" y="1460" type="line"/>
      <point x="809" y="1474"/>
      <point x="644" y="1509"/>
      <point x="555" y="1509" type="qcurve" smooth="yes"/>
      <point x="356" y="1509"/>
      <point x="158" y="1348"/>
      <point x="158" y="1208" type="qcurve" smooth="yes"/>
      <point x="158" y="1117"/>
      <point x="271" y="993"/>
      <point x="362" y="946" type="qcurve"/>
      <point x="296" y="916"/>
      <point x="186" y="836"/>
      <point x="121" y="716"/>
      <point x="121" y="625" type="qcurve" smooth="yes"/>
      <point x="121" y="529"/>
      <point x="205" y="396"/>
      <point x="338" y="302"/>
      <point x="488" y="228"/>
      <point x="621" y="157"/>
      <point x="705" y="72"/>
      <point x="705" y="12" type="qcurve" smooth="yes"/>
      <point x="705" y="-64"/>
      <point x="584" y="-154"/>
      <point x="494" y="-154" type="qcurve" smooth="yes"/>
      <point x="449" y="-154"/>
      <point x="338" y="-125"/>
      <point x="301" y="-100" type="qcurve"/>
      <point x="294" y="-46"/>
      <point x="286" y="5"/>
      <point x="282" y="30"/>
      <point x="277" y="56"/>
      <point x="272" y="84" type="qcurve"/>
      <point x="170" y="84" type="line"/>
      <point x="170" y="-184" type="line"/>
      <point x="208" y="-201"/>
      <point x="379" y="-250"/>
    </contour>
    <contour>
      <point x="571" y="375" type="qcurve"/>
      <point x="421" y="446"/>
      <point x="276" y="578"/>
      <point x="276" y="672" type="qcurve" smooth="yes"/>
      <point x="276" y="740"/>
      <point x="367" y="871"/>
      <point x="461" y="903" type="qcurve"/>
      <point x="595" y="848"/>
      <point x="743" y="706"/>
      <point x="743" y="614" type="qcurve" smooth="yes"/>
      <point x="743" y="561"/>
      <point x="682" y="463"/>
      <point x="601" y="391"/>
    </contour>
  </outline>
</glyph>
<glyph name="dieresis" format="2">
  <advance width="647"/>
  <unicode hex="00A8"/>
  <outline>
    <contour>
      <point x="537" y="1198" type="qcurve" smooth="yes"/>
      <point x="583" y="1198"/>
      <point x="647" y="1267"/>
      <point x="647" y="1313" type="qcurve" smooth="yes"/>
      <point x="647" y="1359"/>
      <point x="583" y="1425"/>
      <point x="537" y="1425" type="qcurve" smooth="yes"/>
      <point x="494" y="1425"/>
      <point x="424" y="1356"/>
      <point x="424" y="1313" type="qcurve" smooth="yes"/>
      <point x="424" y="1267"/>
      <point x="491" y="1198"/>
    </contour>
    <contour>
      <point x="111" y="1198" type="qcurve" smooth="yes"/>
      <point x="157" y="1198"/>
      <point x="223" y="1267"/>
      <point x="223" y="1313" type="qcurve" smooth="yes"/>
      <point x="223" y="1359"/>
      <point x="157" y="1425"/>
      <point x="111" y="1425" type="qcurve" smooth="yes"/>
      <point x="66" y="1425"/>
      <point x="0" y="1355"/>
      <point x="0" y="1311" type="qcurve" smooth="yes"/>
      <point x="0" y="1266"/>
      <point x="66" y="1198"/>
    </contour>
  </outline>
</glyph>
<glyph name="copyright" format="2">
  <advance width="1778"/>
  <unicode hex="00A9"/>
  <outline>
    <contour>
      <point x="889" y="-29" type="qcurve" smooth="yes"/>
      <point x="1048" y="-29"/>
      <point x="1326" y="90"/>
      <point x="1536" y="302"/>
      <point x="1655" y="580"/>
      <point x="1655" y="739" type="qcurve" smooth="yes"/>
      <point x="1655" y="898"/>
      <point x="1536" y="1176"/>
      <point x="1326" y="1388"/>
      <point x="1048" y="1507"/>
      <point x="889" y="1507" type="qcurve" smooth="yes"/>
      <point x="730" y="1507"/>
      <point x="452" y="1388"/>
      <point x="242" y="1176"/>
      <point x="123" y="898"/>
      <point x="123" y="739" type="qcurve" smooth="yes"/>
      <point x="123" y="580"/>
      <point x="242" y="302"/>
      <point x="452" y="90"/>
      <point x="730" y="-29"/>
    </contour>
    <contour>
      <point x="895" y="256" type="qcurve" smooth="yes"/>
      <point x="1028" y="256"/>
      <point x="1196" y="347"/>
      <point x="1280" y="500"/>
      <point x="1288" y="592" type="qcurve"/>
      <point x="1124" y="592" type="line"/>
      <point x="1120" y="551"/>
      <point x="1076" y="453"/>
      <point x="979" y="383"/>
      <point x="897" y="383" type="qcurve" smooth="yes"/>
      <point x="779" y="383"/>
      <point x="629" y="537"/>
      <point x="629" y="735" type="qcurve" smooth="yes"/>
      <point x="629" y="867"/>
      <point x="697" y="1034"/>
      <point x="806" y="1112"/>
      <point x="866" y="1112" type="qcurve" smooth="yes"/>
      <point x="997" y="1112"/>
      <point x="1116" y="1005"/>
      <point x="1116" y="911" type="qcurve"/>
      <point x="1280" y="911" type="line"/>
      <point x="1280" y="964"/>
      <point x="1246" y="1074"/>
      <point x="1159" y="1166"/>
      <point x="1002" y="1223"/>
      <point x="879" y="1223" type="qcurve" smooth="yes"/>
      <point x="727" y="1223"/>
      <point x="543" y="1099"/>
      <point x="461" y="880"/>
      <point x="461" y="735" type="qcurve" smooth="yes"/>
      <point x="461" y="591"/>
      <point x="535" y="405"/>
      <point x="660" y="299"/>
      <point x="814" y="256"/>
    </contour>
    <contour>
      <point x="889" y="74" type="qcurve" smooth="yes"/>
      <point x="751" y="74"/>
      <point x="511" y="177"/>
      <point x="328" y="360"/>
      <point x="225" y="601"/>
      <point x="225" y="739" type="qcurve" smooth="yes"/>
      <point x="225" y="877"/>
      <point x="328" y="1118"/>
      <point x="511" y="1301"/>
      <point x="751" y="1405"/>
      <point x="889" y="1405" type="qcurve" smooth="yes"/>
      <point x="1026" y="1405"/>
      <point x="1267" y="1301"/>
      <point x="1449" y="1118"/>
      <point x="1552" y="877"/>
      <point x="1552" y="739" type="qcurve" smooth="yes"/>
      <point x="1552" y="601"/>
      <point x="1449" y="360"/>
      <point x="1267" y="177"/>
      <point x="1026" y="74"/>
    </contour>
  </outline>
</glyph>
<glyph name="ordfeminine" format="2">
  <advance width="698"/>
  <unicode hex="00AA"/>
  <outline>
    <contour>
      <point x="227" y="770" type="qcurve" smooth="yes"/>
      <point x="280" y="770"/>
      <point x="383" y="813"/>
      <point x="451" y="856"/>
      <point x="451" y="856" type="qcurve"/>
      <point x="469" y="784" type="line"/>
      <point x="666" y="784" type="line"/>
      <point x="666" y="831" type="line"/>
      <point x="600" y="836" type="line" smooth="yes"/>
      <point x="573" y="840"/>
      <point x="573" y="862" type="qcurve" smooth="yes"/>
      <point x="573" y="1206" type="line" smooth="yes"/>
      <point x="573" y="1288"/>
      <point x="487" y="1391"/>
      <point x="362" y="1391" type="qcurve" smooth="yes"/>
      <point x="297" y="1391"/>
      <point x="169" y="1361"/>
      <point x="86" y="1297"/>
      <point x="86" y="1245" type="qcurve" smooth="yes"/>
      <point x="86" y="1222"/>
      <point x="117" y="1210"/>
      <point x="135" y="1210" type="qcurve" smooth="yes"/>
      <point x="231" y="1210" type="line"/>
      <point x="231" y="1317" type="line"/>
      <point x="242" y="1320"/>
      <point x="293" y="1333"/>
      <point x="328" y="1333" type="qcurve" smooth="yes"/>
      <point x="451" y="1333"/>
      <point x="451" y="1212" type="qcurve" smooth="yes"/>
      <point x="451" y="1159" type="line"/>
      <point x="319" y="1133"/>
      <point x="161" y="1082"/>
      <point x="81" y="1029"/>
      <point x="55" y="970"/>
      <point x="55" y="936" type="qcurve" smooth="yes"/>
      <point x="55" y="857"/>
      <point x="157" y="770"/>
    </contour>
    <contour>
      <point x="63" y="623" type="line"/>
      <point x="659" y="623" type="line"/>
      <point x="659" y="684" type="line"/>
      <point x="63" y="684" type="line"/>
    </contour>
    <contour>
      <point x="287" y="842" type="qcurve" smooth="yes"/>
      <point x="239" y="842"/>
      <point x="186" y="906"/>
      <point x="186" y="944" type="qcurve" smooth="yes"/>
      <point x="186" y="974"/>
      <point x="218" y="1030"/>
      <point x="331" y="1085"/>
      <point x="451" y="1112" type="qcurve"/>
      <point x="451" y="899" type="line"/>
      <point x="451" y="899"/>
      <point x="399" y="870"/>
      <point x="323" y="842"/>
    </contour>
  </outline>
</glyph>
<glyph name="registered" format="2">
  <advance width="1714"/>
  <unicode hex="00AE"/>
  <outline>
    <contour>
      <point x="854" y="-74" type="qcurve" smooth="yes"/>
      <point x="1018" y="-74"/>
      <point x="1305" y="49"/>
      <point x="1522" y="267"/>
      <point x="1645" y="554"/>
      <point x="1645" y="717" type="qcurve" smooth="yes"/>
      <point x="1645" y="881"/>
      <point x="1521" y="1168"/>
      <point x="1304" y="1386"/>
      <point x="1019" y="1509"/>
      <point x="858" y="1509" type="qcurve" smooth="yes"/>
      <point x="695" y="1509"/>
      <point x="409" y="1386"/>
      <point x="192" y="1167"/>
      <point x="70" y="881"/>
      <point x="70" y="717" type="qcurve" smooth="yes"/>
      <point x="70" y="554"/>
      <point x="193" y="267"/>
      <point x="409" y="49"/>
      <point x="693" y="-74"/>
    </contour>
    <contour>
      <point x="856" y="12" type="qcurve" smooth="yes"/>
      <point x="711" y="12"/>
      <point x="458" y="122"/>
      <point x="266" y="316"/>
      <point x="158" y="569"/>
      <point x="158" y="713" type="qcurve" smooth="yes"/>
      <point x="158" y="863"/>
      <point x="268" y="1121"/>
      <point x="461" y="1315"/>
      <point x="714" y="1423"/>
      <point x="858" y="1423" type="qcurve" smooth="yes"/>
      <point x="1002" y="1423"/>
      <point x="1255" y="1314"/>
      <point x="1447" y="1120"/>
      <point x="1556" y="864"/>
      <point x="1556" y="717" type="qcurve" smooth="yes"/>
      <point x="1556" y="573"/>
      <point x="1447" y="318"/>
      <point x="1255" y="123"/>
      <point x="1001" y="12"/>
    </contour>
    <contour>
      <point x="1247" y="281" type="qcurve" smooth="yes"/>
      <point x="1279" y="281"/>
      <point x="1357" y="290"/>
      <point x="1366" y="291" type="qcurve"/>
      <point x="1366" y="346" type="line"/>
      <point x="1277" y="346"/>
      <point x="1187" y="391"/>
      <point x="1151" y="466"/>
      <point x="1133" y="553"/>
      <point x="1102" y="640"/>
      <point x="1024" y="709"/>
      <point x="942" y="727" type="qcurve"/>
      <point x="1005" y="741"/>
      <point x="1114" y="792"/>
      <point x="1182" y="881"/>
      <point x="1182" y="950" type="qcurve" smooth="yes"/>
      <point x="1182" y="1082"/>
      <point x="991" y="1188"/>
      <point x="823" y="1188" type="qcurve" smooth="yes"/>
      <point x="442" y="1188" type="line"/>
      <point x="442" y="1130" type="line"/>
      <point x="520" y="1124" type="line" smooth="yes"/>
      <point x="536" y="1123"/>
      <point x="551" y="1105"/>
      <point x="551" y="1096" type="qcurve" smooth="yes"/>
      <point x="551" y="383" type="line" smooth="yes"/>
      <point x="551" y="374"/>
      <point x="536" y="356"/>
      <point x="520" y="354" type="qcurve" smooth="yes"/>
      <point x="442" y="348" type="line"/>
      <point x="442" y="291" type="line"/>
      <point x="805" y="291" type="line"/>
      <point x="805" y="348" type="line"/>
      <point x="727" y="354" type="line" smooth="yes"/>
      <point x="712" y="356"/>
      <point x="696" y="374"/>
      <point x="696" y="383" type="qcurve" smooth="yes"/>
      <point x="696" y="688" type="line" smooth="yes"/>
      <point x="699" y="688"/>
      <point x="741" y="690"/>
      <point x="764" y="690" type="qcurve" smooth="yes"/>
      <point x="855" y="690"/>
      <point x="948" y="631"/>
      <point x="992" y="538"/>
      <point x="1019" y="433"/>
      <point x="1063" y="340"/>
      <point x="1157" y="281"/>
    </contour>
    <contour>
      <point x="772" y="754" type="qcurve" smooth="yes"/>
      <point x="756" y="754"/>
      <point x="699" y="756"/>
      <point x="696" y="756" type="qcurve" smooth="yes"/>
      <point x="696" y="1124" type="line"/>
      <point x="766" y="1124" type="line" smooth="yes"/>
      <point x="904" y="1124"/>
      <point x="1022" y="1029"/>
      <point x="1022" y="944" type="qcurve" smooth="yes"/>
      <point x="1022" y="837"/>
      <point x="894" y="754"/>
    </contour>
  </outline>
</glyph>
<glyph name="degree" format="2">
  <advance width="655"/>
  <unicode hex="00B0"/>
  <outline>
    <contour>
      <point x="328" y="1001" type="qcurve" smooth="yes"/>
      <point x="397" y="1001"/>
      <point x="509" y="1068"/>
      <point x="575" y="1181"/>
      <point x="575" y="1249" type="qcurve" smooth="yes"/>
      <point x="575" y="1318"/>
      <point x="509" y="1430"/>
      <point x="397" y="1497"/>
      <point x="328" y="1497" type="qcurve" smooth="yes"/>
      <point x="259" y="1497"/>
      <point x="146" y="1430"/>
      <point x="80" y="1318"/>
      <point x="80" y="1249" type="qcurve" smooth="yes"/>
      <point x="80" y="1181"/>
      <point x="146" y="1068"/>
      <point x="259" y="1001"/>
    </contour>
    <contour>
      <point x="328" y="1122" type="qcurve" smooth="yes"/>
      <point x="276" y="1122"/>
      <point x="201" y="1197"/>
      <point x="201" y="1249" type="qcurve" smooth="yes"/>
      <point x="201" y="1302"/>
      <point x="276" y="1376"/>
      <point x="328" y="1376" type="qcurve" smooth="yes"/>
      <point x="380" y="1376"/>
      <point x="455" y="1302"/>
      <point x="455" y="1249" type="qcurve" smooth="yes"/>
      <point x="455" y="1197"/>
      <point x="380" y="1122"/>
    </contour>
  </outline>
</glyph>
<glyph name="twosuperior" format="2">
  <advance width="829"/>
  <unicode hex="00B2"/>
  <outline>
    <contour>
      <point x="66" y="614" type="line"/>
      <point x="709" y="614" type="line"/>
      <point x="709" y="741" type="line"/>
      <point x="227" y="741" type="line"/>
      <point x="377" y="827"/>
      <point x="601" y="981"/>
      <point x="725" y="1139"/>
      <point x="725" y="1231" type="qcurve" smooth="yes"/>
      <point x="725" y="1335"/>
      <point x="567" y="1460"/>
      <point x="420" y="1460" type="qcurve" smooth="yes"/>
      <point x="100" y="1460"/>
      <point x="82" y="1206" type="qcurve"/>
      <point x="246" y="1206" type="line"/>
      <point x="252" y="1257"/>
      <point x="326" y="1358"/>
      <point x="414" y="1358" type="qcurve" smooth="yes"/>
      <point x="473" y="1358"/>
      <point x="537" y="1316"/>
      <point x="561" y="1256"/>
      <point x="561" y="1229" type="qcurve" smooth="yes"/>
      <point x="561" y="1174"/>
      <point x="474" y="1044"/>
      <point x="259" y="863"/>
      <point x="66" y="731" type="qcurve"/>
    </contour>
  </outline>
</glyph>
<glyph name="threesuperior" format="2">
  <advance width="829"/>
  <unicode hex="00B3"/>
  <outline>
    <contour>
      <point x="381" y="614" type="qcurve" smooth="yes"/>
      <point x="502" y="614"/>
      <point x="654" y="688"/>
      <point x="725" y="802"/>
      <point x="725" y="862" type="qcurve" smooth="yes"/>
      <point x="725" y="922"/>
      <point x="665" y="1001"/>
      <point x="578" y="1048"/>
      <point x="537" y="1057" type="qcurve"/>
      <point x="578" y="1070"/>
      <point x="657" y="1108"/>
      <point x="709" y="1178"/>
      <point x="709" y="1237" type="qcurve" smooth="yes"/>
      <point x="709" y="1347"/>
      <point x="529" y="1460"/>
      <point x="401" y="1460" type="qcurve" smooth="yes"/>
      <point x="275" y="1460"/>
      <point x="98" y="1353"/>
      <point x="92" y="1245" type="qcurve"/>
      <point x="258" y="1245" type="line"/>
      <point x="264" y="1366"/>
      <point x="410" y="1366" type="qcurve" smooth="yes"/>
      <point x="487" y="1366"/>
      <point x="543" y="1283"/>
      <point x="543" y="1237" type="qcurve" smooth="yes"/>
      <point x="543" y="1207"/>
      <point x="518" y="1141"/>
      <point x="421" y="1096"/>
      <point x="313" y="1096" type="qcurve"/>
      <point x="313" y="1006" type="line"/>
      <point x="397" y="1006" type="line" smooth="yes"/>
      <point x="463" y="1006"/>
      <point x="534" y="948"/>
      <point x="561" y="878"/>
      <point x="561" y="860" type="qcurve" smooth="yes"/>
      <point x="561" y="794"/>
      <point x="457" y="717"/>
      <point x="389" y="717" type="qcurve" smooth="yes"/>
      <point x="322" y="717"/>
      <point x="240" y="791"/>
      <point x="238" y="846" type="qcurve"/>
      <point x="74" y="846" type="line"/>
      <point x="74" y="795"/>
      <point x="127" y="687"/>
      <point x="260" y="614"/>
    </contour>
  </outline>
</glyph>
<glyph name="acute" format="2">
  <advance width="719"/>
  <unicode hex="00B4"/>
  <outline>
    <contour>
      <point x="122" y="1128" type="line"/>
      <point x="236" y="1128" type="line"/>
      <point x="550" y="1327" type="line" smooth="yes"/>
      <point x="597" y="1356"/>
      <point x="597" y="1409" type="qcurve" smooth="yes"/>
      <point x="597" y="1440"/>
      <point x="556" y="1501"/>
      <point x="503" y="1501" type="qcurve" smooth="yes"/>
      <point x="461" y="1501"/>
      <point x="415" y="1472"/>
      <point x="392" y="1446" type="qcurve" smooth="yes"/>
    </contour>
  </outline>
</glyph>
<glyph name="mu" format="2">
  <advance width="1120"/>
  <unicode hex="00B5"/>
  <outline>
    <contour>
      <point x="209" y="-455" type="qcurve" smooth="yes"/>
      <point x="247" y="-455"/>
      <point x="307" y="-389"/>
      <point x="307" y="-338" type="qcurve" smooth="yes"/>
      <point x="307" y="-296"/>
      <point x="283" y="-181"/>
      <point x="258" y="-49"/>
      <point x="258" y="16" type="qcurve" smooth="yes"/>
      <point x="258" y="66" type="line"/>
      <point x="284" y="23"/>
      <point x="358" y="-15"/>
      <point x="425" y="-25"/>
      <point x="440" y="-25" type="qcurve" smooth="yes"/>
      <point x="522" y="-25"/>
      <point x="658" y="73"/>
      <point x="745" y="174" type="qcurve"/>
      <point x="761" y="59"/>
      <point x="865" y="-25"/>
      <point x="926" y="-25" type="qcurve" smooth="yes"/>
      <point x="1006" y="-25"/>
      <point x="1123" y="89"/>
      <point x="1133" y="221" type="qcurve"/>
      <point x="1092" y="221" type="line"/>
      <point x="1076" y="146"/>
      <point x="1038" y="92"/>
      <point x="1006" y="92" type="qcurve" smooth="yes"/>
      <point x="987" y="92"/>
      <point x="955" y="109"/>
      <point x="936" y="189"/>
      <point x="936" y="281" type="qcurve" smooth="yes"/>
      <point x="936" y="987" type="line"/>
      <point x="745" y="987" type="line"/>
      <point x="745" y="246" type="line"/>
      <point x="684" y="177"/>
      <point x="582" y="104"/>
      <point x="522" y="104" type="qcurve" smooth="yes"/>
      <point x="473" y="104"/>
      <point x="406" y="163"/>
      <point x="393" y="201" type="qcurve" smooth="yes"/>
      <point x="375" y="257"/>
      <point x="375" y="403" type="qcurve" smooth="yes"/>
      <point x="375" y="987" type="line"/>
      <point x="184" y="987" type="line"/>
      <point x="184" y="207" type="line" smooth="yes"/>
      <point x="184" y="60"/>
      <point x="164" y="-115"/>
      <point x="139" y="-218"/>
      <point x="119" y="-294"/>
      <point x="119" y="-342" type="qcurve" smooth="yes"/>
      <point x="119" y="-391"/>
      <point x="174" y="-455"/>
    </contour>
  </outline>
</glyph>
<glyph name="paragraph" format="2">
  <advance width="1147"/>
  <unicode hex="00B6"/>
  <outline>
    <contour>
      <point x="512" y="0" type="line"/>
      <point x="614" y="0" type="line"/>
      <point x="614" y="1399" type="line"/>
      <point x="799" y="1399" type="line"/>
      <point x="799" y="0" type="line"/>
      <point x="901" y="0" type="line"/>
      <point x="901" y="1399" type="line"/>
      <point x="1024" y="1399" type="line"/>
      <point x="1024" y="1479" type="line"/>
      <point x="512" y="1479" type="line" smooth="yes"/>
      <point x="453" y="1479"/>
      <point x="318" y="1446"/>
      <point x="199" y="1367"/>
      <point x="123" y="1234"/>
      <point x="123" y="1133" type="qcurve" smooth="yes"/>
      <point x="123" y="1032"/>
      <point x="199" y="897"/>
      <point x="318" y="817"/>
      <point x="453" y="782"/>
      <point x="512" y="782" type="qcurve"/>
    </contour>
  </outline>
</glyph>
<glyph name="periodcentered" format="2">
  <advance width="575"/>
  <unicode hex="00B7"/>
  <outline>
    <contour>
      <point x="287" y="549" type="qcurve" smooth="yes"/>
      <point x="343" y="549"/>
      <point x="426" y="628"/>
      <point x="426" y="686" type="qcurve" smooth="yes"/>
      <point x="426" y="743"/>
      <point x="343" y="825"/>
      <point x="287" y="825" type="qcurve" smooth="yes"/>
      <point x="230" y="825"/>
      <point x="150" y="743"/>
      <point x="150" y="686" type="qcurve" smooth="yes"/>
      <point x="150" y="629"/>
      <point x="230" y="549"/>
    </contour>
  </outline>
</glyph>
<glyph name="onesuperior" format="2">
  <advance width="829"/>
  <unicode hex="00B9"/>
  <outline>
    <contour>
      <point x="395" y="614" type="line"/>
      <point x="551" y="614" type="line"/>
      <point x="551" y="1436" type="line"/>
      <point x="389" y="1436" type="line"/>
      <point x="378" y="1422"/>
      <point x="302" y="1365"/>
      <point x="210" y="1312"/>
      <point x="176" y="1300" type="qcurve"/>
      <point x="176" y="1174" type="line"/>
      <point x="221" y="1185"/>
      <point x="355" y="1241"/>
      <point x="395" y="1272" type="qcurve"/>
    </contour>
  </outline>
</glyph>
<glyph name="ordmasculine" format="2">
  <advance width="733"/>
  <unicode hex="00BA"/>
  <outline>
    <contour>
      <point x="367" y="770" type="qcurve" smooth="yes"/>
      <point x="513" y="770"/>
      <point x="684" y="949"/>
      <point x="684" y="1079" type="qcurve" smooth="yes"/>
      <point x="684" y="1165"/>
      <point x="610" y="1307"/>
      <point x="470" y="1391"/>
      <point x="371" y="1391" type="qcurve" smooth="yes"/>
      <point x="222" y="1391"/>
      <point x="49" y="1211"/>
      <point x="49" y="1079" type="qcurve" smooth="yes"/>
      <point x="49" y="946"/>
      <point x="221" y="770"/>
    </contour>
    <contour>
      <point x="55" y="623" type="line"/>
      <point x="680" y="623" type="line"/>
      <point x="680" y="684" type="line"/>
      <point x="55" y="684" type="line"/>
    </contour>
    <contour>
      <point x="367" y="825" type="qcurve" smooth="yes"/>
      <point x="308" y="825"/>
      <point x="229" y="897"/>
      <point x="190" y="1013"/>
      <point x="190" y="1079" type="qcurve" smooth="yes"/>
      <point x="190" y="1180"/>
      <point x="277" y="1335"/>
      <point x="369" y="1335" type="qcurve" smooth="yes"/>
      <point x="459" y="1335"/>
      <point x="547" y="1180"/>
      <point x="547" y="1079" type="qcurve" smooth="yes"/>
      <point x="547" y="979"/>
      <point x="459" y="825"/>
    </contour>
  </outline>
</glyph>
<glyph name="onehalf" format="2">
  <advance width="1792"/>
  <unicode hex="00BD"/>
  <outline>
    <contour>
      <point x="360" y="0" type="line"/>
      <point x="489" y="0" type="line"/>
      <point x="1399" y="1430" type="line"/>
      <point x="1270" y="1430" type="line"/>
    </contour>
    <contour>
      <point x="137" y="604" type="line"/>
      <point x="588" y="604" type="line"/>
      <point x="588" y="659" type="line"/>
      <point x="463" y="664" type="line" smooth="yes"/>
      <point x="432" y="668"/>
      <point x="432" y="690" type="qcurve" smooth="yes"/>
      <point x="432" y="1444" type="line"/>
      <point x="383" y="1444" type="line"/>
      <point x="94" y="1362" type="line"/>
      <point x="94" y="1307" type="line"/>
      <point x="301" y="1339" type="line"/>
      <point x="301" y="690" type="line" smooth="yes"/>
      <point x="301" y="667"/>
      <point x="272" y="664" type="qcurve" smooth="yes"/>
      <point x="137" y="659" type="line"/>
    </contour>
    <contour>
      <point x="1075" y="0" type="line"/>
      <point x="1700" y="0" type="line"/>
      <point x="1700" y="211" type="line"/>
      <point x="1632" y="211" type="line"/>
      <point x="1610" y="104" type="line"/>
      <point x="1217" y="104" type="line"/>
      <point x="1337" y="192"/>
      <point x="1543" y="354"/>
      <point x="1669" y="517"/>
      <point x="1669" y="604" type="qcurve" smooth="yes"/>
      <point x="1669" y="712"/>
      <point x="1518" y="840"/>
      <point x="1389" y="840" type="qcurve" smooth="yes"/>
      <point x="1311" y="840"/>
      <point x="1180" y="794"/>
      <point x="1100" y="714"/>
      <point x="1100" y="662" type="qcurve" smooth="yes"/>
      <point x="1100" y="625"/>
      <point x="1149" y="590"/>
      <point x="1180" y="590" type="qcurve" smooth="yes"/>
      <point x="1211" y="590"/>
      <point x="1245" y="610"/>
      <point x="1245" y="610" type="qcurve"/>
      <point x="1245" y="745" type="line" smooth="yes"/>
      <point x="1246" y="745"/>
      <point x="1248" y="747"/>
      <point x="1248" y="747" type="qcurve" smooth="yes"/>
      <point x="1257" y="752"/>
      <point x="1312" y="772"/>
      <point x="1354" y="772" type="qcurve" smooth="yes"/>
      <point x="1431" y="772"/>
      <point x="1528" y="683"/>
      <point x="1528" y="594" type="qcurve" smooth="yes"/>
      <point x="1528" y="511"/>
      <point x="1422" y="361"/>
      <point x="1230" y="200"/>
      <point x="1102" y="102" type="qcurve" smooth="yes"/>
      <point x="1075" y="82" type="line"/>
    </contour>
  </outline>
</glyph>
<glyph name="threequarters" format="2">
  <advance width="1792"/>
  <unicode hex="00BE"/>
  <outline>
    <contour>
      <point x="397" y="0" type="line"/>
      <point x="526" y="0" type="line"/>
      <point x="1436" y="1430" type="line"/>
      <point x="1307" y="1430" type="line"/>
    </contour>
    <contour>
      <point x="346" y="594" type="qcurve" smooth="yes"/>
      <point x="443" y="594"/>
      <point x="596" y="656"/>
      <point x="686" y="769"/>
      <point x="686" y="844" type="qcurve" smooth="yes"/>
      <point x="686" y="912"/>
      <point x="614" y="997"/>
      <point x="505" y="1038"/>
      <point x="449" y="1040" type="qcurve"/>
      <point x="547" y="1066"/>
      <point x="653" y="1168"/>
      <point x="653" y="1237" type="qcurve" smooth="yes"/>
      <point x="653" y="1335"/>
      <point x="501" y="1446"/>
      <point x="385" y="1446" type="qcurve" smooth="yes"/>
      <point x="265" y="1446"/>
      <point x="98" y="1351"/>
      <point x="98" y="1280" type="qcurve" smooth="yes"/>
      <point x="98" y="1240"/>
      <point x="153" y="1210"/>
      <point x="176" y="1210" type="qcurve" smooth="yes"/>
      <point x="201" y="1210"/>
      <point x="232" y="1226"/>
      <point x="236" y="1227" type="qcurve"/>
      <point x="236" y="1350" type="line"/>
      <point x="236" y="1350"/>
      <point x="297" y="1378"/>
      <point x="350" y="1378" type="qcurve" smooth="yes"/>
      <point x="418" y="1378"/>
      <point x="518" y="1300"/>
      <point x="518" y="1223" type="qcurve" smooth="yes"/>
      <point x="518" y="1141"/>
      <point x="402" y="1067"/>
      <point x="317" y="1067" type="qcurve" smooth="yes"/>
      <point x="283" y="1067" type="line"/>
      <point x="283" y="991" type="line"/>
      <point x="283" y="991"/>
      <point x="323" y="995"/>
      <point x="358" y="995" type="qcurve" smooth="yes"/>
      <point x="402" y="995"/>
      <point x="491" y="969"/>
      <point x="551" y="904"/>
      <point x="551" y="844" type="qcurve" smooth="yes"/>
      <point x="551" y="770"/>
      <point x="442" y="655"/>
      <point x="350" y="655" type="qcurve" smooth="yes"/>
      <point x="318" y="655"/>
      <point x="268" y="669"/>
      <point x="242" y="682" type="qcurve"/>
      <point x="201" y="791" type="line"/>
      <point x="193" y="796"/>
      <point x="164" y="801"/>
      <point x="156" y="801" type="qcurve" smooth="yes"/>
      <point x="116" y="801"/>
      <point x="78" y="756"/>
      <point x="78" y="731" type="qcurve" smooth="yes"/>
      <point x="78" y="687"/>
      <point x="211" y="594"/>
    </contour>
    <contour>
      <point x="1450" y="-43" type="line"/>
      <point x="1565" y="-43" type="line"/>
      <point x="1565" y="233" type="line"/>
      <point x="1716" y="233" type="line"/>
      <point x="1716" y="317" type="line"/>
      <point x="1565" y="317" type="line"/>
      <point x="1565" y="831" type="line"/>
      <point x="1475" y="831" type="line"/>
      <point x="1024" y="319" type="line"/>
      <point x="1024" y="233" type="line"/>
      <point x="1450" y="233" type="line"/>
    </contour>
    <contour>
      <point x="1130" y="317" type="line"/>
      <point x="1450" y="688" type="line"/>
      <point x="1450" y="317" type="line"/>
    </contour>
  </outline>
</glyph>
<glyph name="questiondown" format="2">
  <advance width="995"/>
  <unicode hex="00BF"/>
  <outline>
    <contour>
      <point x="567" y="-230" type="qcurve" smooth="yes"/>
      <point x="679" y="-230"/>
      <point x="823" y="-169"/>
      <point x="893" y="-77"/>
      <point x="893" y="-29" type="qcurve" smooth="yes"/>
      <point x="893" y="30"/>
      <point x="816" y="84"/>
      <point x="760" y="84" type="qcurve" smooth="yes"/>
      <point x="757" y="84"/>
      <point x="725" y="80"/>
      <point x="725" y="80" type="qcurve"/>
      <point x="641" y="-127" type="line"/>
      <point x="502" y="-127"/>
      <point x="348" y="11"/>
      <point x="348" y="153" type="qcurve" smooth="yes"/>
      <point x="348" y="255"/>
      <point x="443" y="400"/>
      <point x="581" y="493"/>
      <point x="645" y="514" type="qcurve"/>
      <point x="645" y="811" type="line"/>
      <point x="530" y="811" type="line"/>
      <point x="530" y="581" type="line"/>
      <point x="471" y="555"/>
      <point x="336" y="483"/>
      <point x="217" y="379"/>
      <point x="141" y="235"/>
      <point x="141" y="137" type="qcurve" smooth="yes"/>
      <point x="141" y="25"/>
      <point x="254" y="-139"/>
      <point x="447" y="-230"/>
    </contour>
    <contour>
      <point x="586" y="950" type="qcurve" smooth="yes"/>
      <point x="638" y="950"/>
      <point x="711" y="1023"/>
      <point x="711" y="1075" type="qcurve" smooth="yes"/>
      <point x="711" y="1128"/>
      <point x="638" y="1202"/>
      <point x="586" y="1202" type="qcurve" smooth="yes"/>
      <point x="534" y="1202"/>
      <point x="459" y="1130"/>
      <point x="459" y="1077" type="qcurve" smooth="yes"/>
      <point x="459" y="1025"/>
      <point x="532" y="950"/>
    </contour>
  </outline>
</glyph>
<glyph name="Agrave" format="2">
  <advance width="1380"/>
  <unicode hex="00C0"/>
  <outline>
    <contour>
      <point x="10" y="0" type="line"/>
      <point x="422" y="0" type="line"/>
      <point x="422" y="88" type="line"/>
      <point x="301" y="98" type="line" smooth="yes"/>
      <point x="292" y="98"/>
      <point x="271" y="121"/>
      <point x="271" y="133" type="qcurve" smooth="yes"/>
      <point x="271" y="137"/>
      <point x="272" y="139" type="qcurve" smooth="yes"/>
      <point x="408" y="508" type="line"/>
      <point x="881" y="508" type="line"/>
      <point x="1022" y="133" type="line" smooth="yes"/>
      <point x="1023" y="132"/>
      <point x="1023" y="128" type="qcurve" smooth="yes"/>
      <point x="1023" y="119"/>
      <point x="1009" y="98"/>
      <point x="1001" y="98" type="qcurve" smooth="yes"/>
      <point x="883" y="88" type="line"/>
      <point x="883" y="0" type="line"/>
      <point x="1370" y="0" type="line"/>
      <point x="1370" y="88" type="line"/>
      <point x="1278" y="104" type="line" smooth="yes"/>
      <point x="1255" y="108"/>
      <point x="1243" y="122"/>
      <point x="1235" y="143" type="qcurve" smooth="yes"/>
      <point x="760" y="1407" type="line"/>
      <point x="606" y="1407" type="line"/>
      <point x="129" y="113" type="line"/>
      <point x="10" y="88" type="line"/>
    </contour>
    <contour>
      <point x="444" y="606" type="line"/>
      <point x="643" y="1143" type="line"/>
      <point x="844" y="606" type="line"/>
    </contour>
    <contour>
      <point x="664" y="1524" type="line"/>
      <point x="778" y="1524" type="line"/>
      <point x="506" y="1841" type="line" smooth="yes"/>
      <point x="484" y="1867"/>
      <point x="441" y="1896"/>
      <point x="399" y="1896" type="qcurve" smooth="yes"/>
      <point x="346" y="1896"/>
      <point x="303" y="1835"/>
      <point x="303" y="1804" type="qcurve" smooth="yes"/>
      <point x="303" y="1776"/>
      <point x="331" y="1736"/>
      <point x="352" y="1722" type="qcurve" smooth="yes"/>
    </contour>
  </outline>
</glyph>
<glyph name="Aacute" format="2">
  <advance width="1380"/>
  <unicode hex="00C1"/>
  <outline>
    <contour>
      <point x="10" y="0" type="line"/>
      <point x="422" y="0" type="line"/>
      <point x="422" y="88" type="line"/>
      <point x="301" y="98" type="line" smooth="yes"/>
      <point x="292" y="98"/>
      <point x="271" y="121"/>
      <point x="271" y="133" type="qcurve" smooth="yes"/>
      <point x="271" y="137"/>
      <point x="272" y="139" type="qcurve" smooth="yes"/>
      <point x="408" y="508" type="line"/>
      <point x="881" y="508" type="line"/>
      <point x="1022" y="133" type="line" smooth="yes"/>
      <point x="1023" y="132"/>
      <point x="1023" y="128" type="qcurve" smooth="yes"/>
      <point x="1023" y="119"/>
      <point x="1009" y="98"/>
      <point x="1001" y="98" type="qcurve" smooth="yes"/>
      <point x="883" y="88" type="line"/>
      <point x="883" y="0" type="line"/>
      <point x="1370" y="0" type="line"/>
      <point x="1370" y="88" type="line"/>
      <point x="1278" y="104" type="line" smooth="yes"/>
      <point x="1255" y="108"/>
      <point x="1243" y="122"/>
      <point x="1235" y="143" type="qcurve" smooth="yes"/>
      <point x="760" y="1407" type="line"/>
      <point x="606" y="1407" type="line"/>
      <point x="129" y="113" type="line"/>
      <point x="10" y="88" type="line"/>
    </contour>
    <contour>
      <point x="444" y="606" type="line"/>
      <point x="643" y="1143" type="line"/>
      <point x="844" y="606" type="line"/>
    </contour>
    <contour>
      <point x="555" y="1524" type="line"/>
      <point x="672" y="1524" type="line"/>
      <point x="981" y="1722" type="line" smooth="yes"/>
      <point x="1028" y="1753"/>
      <point x="1028" y="1804" type="qcurve" smooth="yes"/>
      <point x="1028" y="1835"/>
      <point x="990" y="1896"/>
      <point x="936" y="1896" type="qcurve" smooth="yes"/>
      <point x="895" y="1896"/>
      <point x="849" y="1867"/>
      <point x="827" y="1841" type="qcurve" smooth="yes"/>
    </contour>
  </outline>
</glyph>
<glyph name="Atilde" format="2">
  <advance width="1380"/>
  <unicode hex="00C3"/>
  <outline>
    <contour>
      <point x="10" y="0" type="line"/>
      <point x="422" y="0" type="line"/>
      <point x="422" y="88" type="line"/>
      <point x="301" y="98" type="line" smooth="yes"/>
      <point x="292" y="98"/>
      <point x="271" y="121"/>
      <point x="271" y="133" type="qcurve" smooth="yes"/>
      <point x="271" y="137"/>
      <point x="272" y="139" type="qcurve" smooth="yes"/>
      <point x="408" y="508" type="line"/>
      <point x="881" y="508" type="line"/>
      <point x="1022" y="133" type="line" smooth="yes"/>
      <point x="1023" y="132"/>
      <point x="1023" y="128" type="qcurve" smooth="yes"/>
      <point x="1023" y="119"/>
      <point x="1009" y="98"/>
      <point x="1001" y="98" type="qcurve" smooth="yes"/>
      <point x="883" y="88" type="line"/>
      <point x="883" y="0" type="line"/>
      <point x="1370" y="0" type="line"/>
      <point x="1370" y="88" type="line"/>
      <point x="1278" y="104" type="line" smooth="yes"/>
      <point x="1255" y="108"/>
      <point x="1243" y="122"/>
      <point x="1235" y="143" type="qcurve" smooth="yes"/>
      <point x="760" y="1407" type="line"/>
      <point x="606" y="1407" type="line"/>
      <point x="129" y="113" type="line"/>
      <point x="10" y="88" type="line"/>
    </contour>
    <contour>
      <point x="444" y="606" type="line"/>
      <point x="643" y="1143" type="line"/>
      <point x="844" y="606" type="line"/>
    </contour>
    <contour>
      <point x="317" y="1587" type="qcurve"/>
      <point x="399" y="1587" type="line"/>
      <point x="404" y="1624"/>
      <point x="467" y="1686"/>
      <point x="508" y="1686" type="qcurve" smooth="yes"/>
      <point x="575" y="1686"/>
      <point x="660" y="1636"/>
      <point x="737" y="1587"/>
      <point x="791" y="1587" type="qcurve" smooth="yes"/>
      <point x="891" y="1587"/>
      <point x="1005" y="1722"/>
      <point x="1028" y="1812" type="qcurve"/>
      <point x="946" y="1812" type="line"/>
      <point x="942" y="1775"/>
      <point x="881" y="1714"/>
      <point x="840" y="1714" type="qcurve" smooth="yes"/>
      <point x="774" y="1714"/>
      <point x="688" y="1763"/>
      <point x="610" y="1812"/>
      <point x="555" y="1812" type="qcurve" smooth="yes"/>
      <point x="455" y="1812"/>
      <point x="340" y="1678"/>
    </contour>
  </outline>
</glyph>
<glyph name="Adieresis" format="2">
  <advance width="1380"/>
  <unicode hex="00C4"/>
  <outline>
    <contour>
      <point x="10" y="0" type="line"/>
      <point x="422" y="0" type="line"/>
      <point x="422" y="88" type="line"/>
      <point x="301" y="98" type="line" smooth="yes"/>
      <point x="292" y="98"/>
      <point x="271" y="121"/>
      <point x="271" y="133" type="qcurve" smooth="yes"/>
      <point x="271" y="137"/>
      <point x="272" y="139" type="qcurve" smooth="yes"/>
      <point x="408" y="508" type="line"/>
      <point x="881" y="508" type="line"/>
      <point x="1022" y="133" type="line" smooth="yes"/>
      <point x="1023" y="132"/>
      <point x="1023" y="128" type="qcurve" smooth="yes"/>
      <point x="1023" y="119"/>
      <point x="1009" y="98"/>
      <point x="1001" y="98" type="qcurve" smooth="yes"/>
      <point x="883" y="88" type="line"/>
      <point x="883" y="0" type="line"/>
      <point x="1370" y="0" type="line"/>
      <point x="1370" y="88" type="line"/>
      <point x="1278" y="104" type="line" smooth="yes"/>
      <point x="1255" y="108"/>
      <point x="1243" y="122"/>
      <point x="1235" y="143" type="qcurve" smooth="yes"/>
      <point x="760" y="1407" type="line"/>
      <point x="606" y="1407" type="line"/>
      <point x="129" y="113" type="line"/>
      <point x="10" y="88" type="line"/>
    </contour>
    <contour>
      <point x="444" y="606" type="line"/>
      <point x="643" y="1143" type="line"/>
      <point x="844" y="606" type="line"/>
    </contour>
    <contour>
      <point x="457" y="1587" type="qcurve" smooth="yes"/>
      <point x="503" y="1587"/>
      <point x="569" y="1656"/>
      <point x="569" y="1702" type="qcurve" smooth="yes"/>
      <point x="569" y="1748"/>
      <point x="503" y="1815"/>
      <point x="457" y="1815" type="qcurve" smooth="yes"/>
      <point x="412" y="1815"/>
      <point x="344" y="1744"/>
      <point x="344" y="1700" type="qcurve" smooth="yes"/>
      <point x="344" y="1655"/>
      <point x="412" y="1587"/>
    </contour>
    <contour>
      <point x="881" y="1587" type="qcurve" smooth="yes"/>
      <point x="927" y="1587"/>
      <point x="993" y="1656"/>
      <point x="993" y="1702" type="qcurve" smooth="yes"/>
      <point x="993" y="1748"/>
      <point x="927" y="1815"/>
      <point x="881" y="1815" type="qcurve" smooth="yes"/>
      <point x="838" y="1815"/>
      <point x="768" y="1745"/>
      <point x="768" y="1702" type="qcurve" smooth="yes"/>
      <point x="768" y="1656"/>
      <point x="835" y="1587"/>
    </contour>
  </outline>
</glyph>
<glyph name="AE" format="2">
  <advance width="1911"/>
  <unicode hex="00C6"/>
  <anchor x="956" y="0" name="bottom"/>
  <anchor x="956" y="1374" name="top"/>
  <outline>
    <contour>
      <point x="1845" y="0" type="line"/>
      <point x="831" y="0" type="line"/>
      <point x="831" y="88" type="line"/>
      <point x="932" y="96" type="line" smooth="yes"/>
      <point x="954" y="98"/>
      <point x="985" y="128"/>
      <point x="985" y="141" type="qcurve" smooth="yes"/>
      <point x="985" y="512" type="line"/>
      <point x="512" y="512" type="line"/>
      <point x="283" y="141" type="line" smooth="yes"/>
      <point x="276" y="131"/>
      <point x="276" y="121" type="qcurve" smooth="yes"/>
      <point x="276" y="100"/>
      <point x="297" y="98" type="qcurve" smooth="yes"/>
      <point x="414" y="88" type="line"/>
      <point x="414" y="0" type="line"/>
      <point x="10" y="0" type="line"/>
      <point x="10" y="88" type="line"/>
      <point x="119" y="104" type="line"/>
      <point x="815" y="1235" type="line" smooth="yes"/>
      <point x="818" y="1241"/>
      <point x="818" y="1247" type="qcurve" smooth="yes"/>
      <point x="818" y="1259"/>
      <point x="797" y="1277"/>
      <point x="786" y="1278" type="qcurve" smooth="yes"/>
      <point x="686" y="1288" type="line"/>
      <point x="686" y="1374" type="line"/>
      <point x="1772" y="1374" type="line"/>
      <point x="1772" y="1069" type="line"/>
      <point x="1653" y="1069" type="line"/>
      <point x="1624" y="1237" type="line" smooth="yes"/>
      <point x="1621" y="1252"/>
      <point x="1603" y="1276"/>
      <point x="1589" y="1276" type="qcurve" smooth="yes"/>
      <point x="1192" y="1276" type="line"/>
      <point x="1192" y="764" type="line"/>
      <point x="1450" y="764" type="line" smooth="yes"/>
      <point x="1464" y="764"/>
      <point x="1486" y="790"/>
      <point x="1487" y="801" type="qcurve" smooth="yes"/>
      <point x="1505" y="942" type="line"/>
      <point x="1606" y="942" type="line"/>
      <point x="1606" y="485" type="line"/>
      <point x="1505" y="485" type="line"/>
      <point x="1487" y="629" type="line" smooth="yes"/>
      <point x="1486" y="640"/>
      <point x="1462" y="664"/>
      <point x="1450" y="664" type="qcurve" smooth="yes"/>
      <point x="1192" y="664" type="line"/>
      <point x="1192" y="100" type="line"/>
      <point x="1661" y="100" type="line" smooth="yes"/>
      <point x="1673" y="100"/>
      <point x="1697" y="129"/>
      <point x="1698" y="139" type="qcurve" smooth="yes"/>
      <point x="1729" y="342" type="line"/>
      <point x="1845" y="342" type="line"/>
    </contour>
    <contour>
      <point x="985" y="612" type="line"/>
      <point x="985" y="1280" type="line"/>
      <point x="569" y="612" type="line"/>
    </contour>
  </outline>
</glyph>
<glyph name="Ccedilla" format="2">
  <advance width="1284"/>
  <unicode hex="00C7"/>
  <outline>
    <contour>
      <point x="768" y="-461" type="qcurve" smooth="yes"/>
      <point x="871" y="-461"/>
      <point x="1008" y="-361"/>
      <point x="1008" y="-266" type="qcurve" smooth="yes"/>
      <point x="1008" y="-188"/>
      <point x="920" y="-121"/>
      <point x="858" y="-121" type="qcurve" smooth="yes"/>
      <point x="842" y="-121"/>
      <point x="822" y="-127"/>
      <point x="811" y="-129" type="qcurve"/>
      <point x="811" y="-33" type="line"/>
      <point x="913" y="-32"/>
      <point x="1088" y="6"/>
      <point x="1199" y="45"/>
      <point x="1204" y="47" type="qcurve"/>
      <point x="1204" y="379" type="line"/>
      <point x="1085" y="379" type="line"/>
      <point x="1038" y="156" type="line" smooth="yes"/>
      <point x="1031" y="127"/>
      <point x="999" y="115" type="qcurve" smooth="yes"/>
      <point x="996" y="114"/>
      <point x="906" y="80"/>
      <point x="834" y="80" type="qcurve" smooth="yes"/>
      <point x="672" y="80"/>
      <point x="440" y="229"/>
      <point x="315" y="506"/>
      <point x="315" y="696" type="qcurve" smooth="yes"/>
      <point x="315" y="893"/>
      <point x="445" y="1158"/>
      <point x="668" y="1292"/>
      <point x="807" y="1292" type="qcurve" smooth="yes"/>
      <point x="878" y="1292"/>
      <point x="982" y="1255"/>
      <point x="1008" y="1243" type="qcurve" smooth="yes"/>
      <point x="1016" y="1239" type="line" smooth="yes"/>
      <point x="1025" y="1235"/>
      <point x="1050" y="1206"/>
      <point x="1051" y="1192" type="qcurve" smooth="yes"/>
      <point x="1081" y="1006" type="line"/>
      <point x="1204" y="1006" type="line"/>
      <point x="1204" y="1327" type="line"/>
      <point x="1080" y="1365"/>
      <point x="897" y="1407"/>
      <point x="797" y="1407" type="qcurve" smooth="yes"/>
      <point x="583" y="1407"/>
      <point x="260" y="1225"/>
      <point x="80" y="902"/>
      <point x="80" y="690" type="qcurve" smooth="yes"/>
      <point x="80" y="556"/>
      <point x="165" y="307"/>
      <point x="330" y="107"/>
      <point x="572" y="-19"/>
      <point x="729" y="-31" type="qcurve"/>
      <point x="729" y="-229" type="line"/>
      <point x="729" y="-229"/>
      <point x="761" y="-217"/>
      <point x="776" y="-217" type="qcurve" smooth="yes"/>
      <point x="816" y="-217"/>
      <point x="872" y="-256"/>
      <point x="872" y="-293" type="qcurve" smooth="yes"/>
      <point x="872" y="-340"/>
      <point x="791" y="-377"/>
      <point x="741" y="-377" type="qcurve" smooth="yes"/>
      <point x="703" y="-377"/>
      <point x="616" y="-360"/>
      <point x="616" y="-360" type="qcurve"/>
      <point x="616" y="-440" type="line"/>
      <point x="616" y="-440"/>
      <point x="714" y="-461"/>
    </contour>
  </outline>
</glyph>
<glyph name="Ecircumflex" format="2">
  <advance width="1194"/>
  <unicode hex="00CA"/>
  <outline>
    <contour>
      <point x="66" y="0" type="line"/>
      <point x="1128" y="0" type="line"/>
      <point x="1128" y="342" type="line"/>
      <point x="1018" y="342" type="line"/>
      <point x="981" y="139" type="line" smooth="yes"/>
      <point x="980" y="129"/>
      <point x="957" y="100"/>
      <point x="944" y="100" type="qcurve" smooth="yes"/>
      <point x="426" y="100" type="line"/>
      <point x="426" y="664" type="line"/>
      <point x="733" y="664" type="line" smooth="yes"/>
      <point x="746" y="664"/>
      <point x="770" y="638"/>
      <point x="770" y="627" type="qcurve" smooth="yes"/>
      <point x="791" y="485" type="line"/>
      <point x="895" y="485" type="line"/>
      <point x="895" y="942" type="line"/>
      <point x="791" y="942" type="line"/>
      <point x="770" y="801" type="line" smooth="yes"/>
      <point x="770" y="790"/>
      <point x="747" y="766"/>
      <point x="733" y="766" type="qcurve" smooth="yes"/>
      <point x="426" y="766" type="line"/>
      <point x="426" y="1276" type="line"/>
      <point x="870" y="1276" type="line" smooth="yes"/>
      <point x="884" y="1276"/>
      <point x="906" y="1252"/>
      <point x="907" y="1237" type="qcurve" smooth="yes"/>
      <point x="938" y="1069" type="line"/>
      <point x="1061" y="1069" type="line"/>
      <point x="1061" y="1374" type="line"/>
      <point x="66" y="1374" type="line"/>
      <point x="66" y="1286" type="line"/>
      <point x="172" y="1278" type="line" smooth="yes"/>
      <point x="194" y="1277"/>
      <point x="217" y="1248"/>
      <point x="217" y="1233" type="qcurve" smooth="yes"/>
      <point x="217" y="141" type="line" smooth="yes"/>
      <point x="217" y="126"/>
      <point x="194" y="98"/>
      <point x="172" y="96" type="qcurve" smooth="yes"/>
      <point x="66" y="88" type="line"/>
    </contour>
    <contour>
      <point x="281" y="1524" type="line"/>
      <point x="401" y="1524" type="line"/>
      <point x="612" y="1729" type="line"/>
      <point x="823" y="1524" type="line"/>
      <point x="946" y="1524" type="line"/>
      <point x="690" y="1872" type="line"/>
      <point x="539" y="1872" type="line"/>
    </contour>
  </outline>
</glyph>
<glyph name="Igrave" format="2">
  <advance width="676"/>
  <unicode hex="00CC"/>
  <outline>
    <contour>
      <point x="68" y="0" type="line"/>
      <point x="608" y="0" type="line"/>
      <point x="608" y="88" type="line"/>
      <point x="483" y="96" type="line" smooth="yes"/>
      <point x="462" y="98"/>
      <point x="440" y="126"/>
      <point x="440" y="141" type="qcurve" smooth="yes"/>
      <point x="440" y="1233" type="line" smooth="yes"/>
      <point x="440" y="1248"/>
      <point x="462" y="1275"/>
      <point x="483" y="1276" type="qcurve" smooth="yes"/>
      <point x="608" y="1284" type="line"/>
      <point x="608" y="1374" type="line"/>
      <point x="68" y="1374" type="line"/>
      <point x="68" y="1284" type="line"/>
      <point x="190" y="1276" type="line" smooth="yes"/>
      <point x="212" y="1275"/>
      <point x="233" y="1248"/>
      <point x="233" y="1233" type="qcurve" smooth="yes"/>
      <point x="233" y="141" type="line" smooth="yes"/>
      <point x="233" y="126"/>
      <point x="212" y="98"/>
      <point x="190" y="96" type="qcurve" smooth="yes"/>
      <point x="68" y="88" type="line"/>
    </contour>
    <contour>
      <point x="356" y="1524" type="line"/>
      <point x="473" y="1524" type="line"/>
      <point x="199" y="1841" type="line" smooth="yes"/>
      <point x="177" y="1867"/>
      <point x="133" y="1896"/>
      <point x="92" y="1896" type="qcurve" smooth="yes"/>
      <point x="38" y="1896"/>
      <point x="-2" y="1837"/>
      <point x="-2" y="1806" type="qcurve" smooth="yes"/>
      <point x="-2" y="1753"/>
      <point x="45" y="1722" type="qcurve" smooth="yes"/>
    </contour>
  </outline>
</glyph>
<glyph name="Icircumflex" format="2">
  <advance width="676"/>
  <unicode hex="00CE"/>
  <outline>
    <contour>
      <point x="68" y="0" type="line"/>
      <point x="608" y="0" type="line"/>
      <point x="608" y="88" type="line"/>
      <point x="483" y="96" type="line" smooth="yes"/>
      <point x="462" y="98"/>
      <point x="440" y="126"/>
      <point x="440" y="141" type="qcurve" smooth="yes"/>
      <point x="440" y="1233" type="line" smooth="yes"/>
      <point x="440" y="1248"/>
      <point x="462" y="1275"/>
      <point x="483" y="1276" type="qcurve" smooth="yes"/>
      <point x="608" y="1284" type="line"/>
      <point x="608" y="1374" type="line"/>
      <point x="68" y="1374" type="line"/>
      <point x="68" y="1284" type="line"/>
      <point x="190" y="1276" type="line" smooth="yes"/>
      <point x="212" y="1275"/>
      <point x="233" y="1248"/>
      <point x="233" y="1233" type="qcurve" smooth="yes"/>
      <point x="233" y="141" type="line" smooth="yes"/>
      <point x="233" y="126"/>
      <point x="212" y="98"/>
      <point x="190" y="96" type="qcurve" smooth="yes"/>
      <point x="68" y="88" type="line"/>
    </contour>
    <contour>
      <point x="2" y="1524" type="line"/>
      <point x="129" y="1524" type="line"/>
      <point x="340" y="1729" type="line"/>
      <point x="551" y="1524" type="line"/>
      <point x="674" y="1524" type="line"/>
      <point x="418" y="1872" type="line"/>
      <point x="260" y="1872" type="line"/>
    </contour>
  </outline>
</glyph>
<glyph name="Idieresis" format="2">
  <advance width="676"/>
  <unicode hex="00CF"/>
  <outline>
    <contour>
      <point x="68" y="0" type="line"/>
      <point x="608" y="0" type="line"/>
      <point x="608" y="88" type="line"/>
      <point x="483" y="96" type="line" smooth="yes"/>
      <point x="462" y="98"/>
      <point x="440" y="126"/>
      <point x="440" y="141" type="qcurve" smooth="yes"/>
      <point x="440" y="1233" type="line" smooth="yes"/>
      <point x="440" y="1248"/>
      <point x="462" y="1275"/>
      <point x="483" y="1276" type="qcurve" smooth="yes"/>
      <point x="608" y="1284" type="line"/>
      <point x="608" y="1374" type="line"/>
      <point x="68" y="1374" type="line"/>
      <point x="68" y="1284" type="line"/>
      <point x="190" y="1276" type="line" smooth="yes"/>
      <point x="212" y="1275"/>
      <point x="233" y="1248"/>
      <point x="233" y="1233" type="qcurve" smooth="yes"/>
      <point x="233" y="141" type="line" smooth="yes"/>
      <point x="233" y="126"/>
      <point x="212" y="98"/>
      <point x="190" y="96" type="qcurve" smooth="yes"/>
      <point x="68" y="88" type="line"/>
    </contour>
    <contour>
      <point x="125" y="1587" type="qcurve" smooth="yes"/>
      <point x="171" y="1587"/>
      <point x="238" y="1656"/>
      <point x="238" y="1702" type="qcurve" smooth="yes"/>
      <point x="238" y="1748"/>
      <point x="171" y="1815"/>
      <point x="125" y="1815" type="qcurve" smooth="yes"/>
      <point x="81" y="1815"/>
      <point x="14" y="1744"/>
      <point x="14" y="1700" type="qcurve" smooth="yes"/>
      <point x="14" y="1655"/>
      <point x="81" y="1587"/>
    </contour>
    <contour>
      <point x="551" y="1587" type="qcurve" smooth="yes"/>
      <point x="597" y="1587"/>
      <point x="662" y="1656"/>
      <point x="662" y="1702" type="qcurve" smooth="yes"/>
      <point x="662" y="1748"/>
      <point x="595" y="1815"/>
      <point x="549" y="1815" type="qcurve" smooth="yes"/>
      <point x="506" y="1815"/>
      <point x="438" y="1745"/>
      <point x="438" y="1702" type="qcurve" smooth="yes"/>
      <point x="438" y="1656"/>
      <point x="505" y="1587"/>
    </contour>
  </outline>
</glyph>
<glyph name="Eth" format="2">
  <advance width="1425"/>
  <unicode hex="00D0"/>
  <outline>
    <contour>
      <point x="1346" y="686" type="qcurve" smooth="yes"/>
      <point x="1346" y="492"/>
      <point x="1188" y="181"/>
      <point x="873" y="0"/>
      <point x="637" y="0" type="qcurve" smooth="yes"/>
      <point x="66" y="0" type="line"/>
      <point x="66" y="88" type="line"/>
      <point x="174" y="96" type="line" smooth="yes"/>
      <point x="194" y="98"/>
      <point x="217" y="128"/>
      <point x="217" y="141" type="qcurve" smooth="yes"/>
      <point x="217" y="668" type="line"/>
      <point x="31" y="668" type="line"/>
      <point x="31" y="772" type="line"/>
      <point x="217" y="772" type="line"/>
      <point x="217" y="1233" type="line" smooth="yes"/>
      <point x="217" y="1248"/>
      <point x="190" y="1275"/>
      <point x="174" y="1276" type="qcurve" smooth="yes"/>
      <point x="66" y="1286" type="line"/>
      <point x="66" y="1374" type="line"/>
      <point x="592" y="1374" type="line" smooth="yes"/>
      <point x="749" y="1374"/>
      <point x="1022" y="1297"/>
      <point x="1229" y="1132"/>
      <point x="1346" y="871"/>
    </contour>
    <contour>
      <point x="1114" y="686" type="qcurve" smooth="yes"/>
      <point x="1114" y="997"/>
      <point x="836" y="1276"/>
      <point x="582" y="1276" type="qcurve" smooth="yes"/>
      <point x="424" y="1276" type="line"/>
      <point x="424" y="772" type="line"/>
      <point x="752" y="772" type="line"/>
      <point x="752" y="668" type="line"/>
      <point x="424" y="668" type="line"/>
      <point x="424" y="98" type="line"/>
      <point x="584" y="98" type="line" smooth="yes"/>
      <point x="839" y="98"/>
      <point x="1114" y="387"/>
    </contour>
  </outline>
</glyph>
<glyph name="Ntilde" format="2">
  <advance width="1477"/>
  <unicode hex="00D1"/>
  <outline>
    <contour>
      <point x="55" y="0" type="line"/>
      <point x="498" y="0" type="line"/>
      <point x="498" y="88" type="line"/>
      <point x="381" y="96" type="line" smooth="yes"/>
      <point x="359" y="98"/>
      <point x="338" y="126"/>
      <point x="338" y="141" type="qcurve" smooth="yes"/>
      <point x="338" y="1147" type="line"/>
      <point x="1100" y="0" type="line"/>
      <point x="1260" y="0" type="line"/>
      <point x="1260" y="1233" type="line" smooth="yes"/>
      <point x="1260" y="1248"/>
      <point x="1281" y="1277"/>
      <point x="1303" y="1278" type="qcurve" smooth="yes"/>
      <point x="1417" y="1286" type="line"/>
      <point x="1417" y="1374" type="line"/>
      <point x="979" y="1374" type="line"/>
      <point x="979" y="1286" type="line"/>
      <point x="1096" y="1278" type="line" smooth="yes"/>
      <point x="1117" y="1277"/>
      <point x="1139" y="1248"/>
      <point x="1139" y="1233" type="qcurve" smooth="yes"/>
      <point x="1139" y="293" type="line"/>
      <point x="457" y="1323" type="line"/>
      <point x="457" y="1374" type="line"/>
      <point x="51" y="1374" type="line"/>
      <point x="51" y="1286" type="line"/>
      <point x="172" y="1278" type="line" smooth="yes"/>
      <point x="194" y="1277"/>
      <point x="217" y="1248"/>
      <point x="217" y="1233" type="qcurve" smooth="yes"/>
      <point x="217" y="141" type="line" smooth="yes"/>
      <point x="217" y="126"/>
      <point x="194" y="98"/>
      <point x="172" y="96" type="qcurve" smooth="yes"/>
      <point x="55" y="88" type="line"/>
    </contour>
    <contour>
      <point x="406" y="1587" type="qcurve"/>
      <point x="487" y="1587" type="line"/>
      <point x="492" y="1624"/>
      <point x="553" y="1686"/>
      <point x="594" y="1686" type="qcurve" smooth="yes"/>
      <point x="661" y="1686"/>
      <point x="746" y="1636"/>
      <point x="825" y="1587"/>
      <point x="879" y="1587" type="qcurve" smooth="yes"/>
      <point x="979" y="1587"/>
      <point x="1091" y="1722"/>
      <point x="1114" y="1812" type="qcurve"/>
      <point x="1032" y="1812" type="line"/>
      <point x="1028" y="1775"/>
      <point x="967" y="1714"/>
      <point x="926" y="1714" type="qcurve" smooth="yes"/>
      <point x="860" y="1714"/>
      <point x="774" y="1763"/>
      <point x="696" y="1812"/>
      <point x="641" y="1812" type="qcurve" smooth="yes"/>
      <point x="541" y="1812"/>
      <point x="429" y="1678"/>
    </contour>
  </outline>
</glyph>
<glyph name="Ograve" format="2">
  <advance width="1497"/>
  <unicode hex="00D2"/>
  <outline>
    <contour>
      <point x="750" y="-33" type="qcurve" smooth="yes"/>
      <point x="900" y="-33"/>
      <point x="1146" y="79"/>
      <point x="1322" y="277"/>
      <point x="1417" y="537"/>
      <point x="1417" y="686" type="qcurve" smooth="yes"/>
      <point x="1417" y="835"/>
      <point x="1322" y="1096"/>
      <point x="1146" y="1295"/>
      <point x="900" y="1407"/>
      <point x="748" y="1407" type="qcurve" smooth="yes"/>
      <point x="595" y="1407"/>
      <point x="349" y="1296"/>
      <point x="173" y="1098"/>
      <point x="80" y="838"/>
      <point x="80" y="688" type="qcurve" smooth="yes"/>
      <point x="80" y="482"/>
      <point x="248" y="156"/>
      <point x="549" y="-33"/>
    </contour>
    <contour>
      <point x="745" y="80" type="qcurve" smooth="yes"/>
      <point x="600" y="80"/>
      <point x="409" y="247"/>
      <point x="315" y="524"/>
      <point x="315" y="688" type="qcurve" smooth="yes"/>
      <point x="315" y="851"/>
      <point x="409" y="1125"/>
      <point x="602" y="1290"/>
      <point x="750" y="1290" type="qcurve" smooth="yes"/>
      <point x="893" y="1290"/>
      <point x="1084" y="1126"/>
      <point x="1180" y="851"/>
      <point x="1180" y="684" type="qcurve" smooth="yes"/>
      <point x="1180" y="522"/>
      <point x="1085" y="247"/>
      <point x="893" y="80"/>
    </contour>
    <contour>
      <point x="739" y="1524" type="line"/>
      <point x="856" y="1524" type="line"/>
      <point x="582" y="1841" type="line" smooth="yes"/>
      <point x="560" y="1867"/>
      <point x="516" y="1896"/>
      <point x="475" y="1896" type="qcurve" smooth="yes"/>
      <point x="421" y="1896"/>
      <point x="381" y="1837"/>
      <point x="381" y="1806" type="qcurve" smooth="yes"/>
      <point x="381" y="1753"/>
      <point x="428" y="1722" type="qcurve" smooth="yes"/>
    </contour>
  </outline>
</glyph>
